<mxfile host="Electron" modified="2024-04-13T10:15:39.209Z" agent="Mozilla/5.0 (Windows NT 10.0; Win64; x64) AppleWebKit/537.36 (KHTML, like Gecko) draw.io/21.2.8 Chrome/112.0.5615.165 Electron/24.2.0 Safari/537.36" etag="MmuyfPj0aybSmA7gsclq" version="21.2.8" type="device">
  <diagram name="Page-1" id="2XWkQP5S-hDbL94sL5Vg">
    <mxGraphModel dx="2058" dy="1180" grid="1" gridSize="10" guides="1" tooltips="1" connect="1" arrows="1" fold="1" page="1" pageScale="1" pageWidth="3300" pageHeight="4681" background="#999999" math="0" shadow="0">
      <root>
        <mxCell id="0" />
        <mxCell id="1" parent="0" />
        <mxCell id="HT3JYzme7oOu0LbbBRVU-1" value="C++" style="rounded=0;whiteSpace=wrap;html=1;fillColor=#dae8fc;strokeColor=#6c8ebf;fontSize=52;" parent="1" vertex="1">
          <mxGeometry x="1250" y="270" width="370" height="400" as="geometry" />
        </mxCell>
        <mxCell id="HT3JYzme7oOu0LbbBRVU-2" value="QML" style="rounded=0;whiteSpace=wrap;html=1;fillColor=#f8cecc;strokeColor=#b85450;fontSize=52;" parent="1" vertex="1">
          <mxGeometry x="1640" y="270" width="370" height="400" as="geometry" />
        </mxCell>
        <mxCell id="S9IRetqxCuwVArKSv5vH-1" value="Default Properties" style="rounded=0;whiteSpace=wrap;html=1;fontSize=30;fillColor=#dae8fc;strokeColor=#6c8ebf;" parent="1" vertex="1">
          <mxGeometry x="1260" y="80" width="680" height="140" as="geometry" />
        </mxCell>
        <mxCell id="QpZZbZkxJaNFYBWu2Nyi-1" value="" style="shape=image;verticalLabelPosition=bottom;labelBackgroundColor=default;verticalAlign=top;aspect=fixed;imageAspect=0;image=data:image/png,iVBORw0KGgoAAAANSUhEUgAAAp8AAAQ9CAYAAAAf7CbXAAAAAXNSR0IArs4c6QAAAARnQU1BAACxjwv8YQUAAAAJcEhZcwAADsMAAA7DAcdvqGQAAOimSURBVHhe7P0PbFRXnud/f8HMz7ItMUDZGePEppKA+SMRDN6k6bEwgulklGRYW8limV2plbRCq2P9HoKYRiIromwUtEHKDMqgXXeriZqopV0s86RlL5O0utMdhCN3CPkZTCMBBrop7MTwBJftYWX7hxbDc86955ZvVd0ql8vlS5X9fknVvnWqbp17bzntD+ffnffUuqoHAgAAAPhgvvkJAAAAzDjCJwAAAHxD+AQAAIBvCJ8AAADwDeETAAAAviF8AgAAwDeETwAAAPiG8AkAAADfED4BAADgG8InAAAAfEP4BAAAgG8InwAAAPAN4RMAAAC+IXwCAADAN4RPAAAA+IbwCQAAAN8QPgEAAOAbwicAAAB8Q/gEAACAb+Y9ta7qgdkGkAVaPmoyW1PT+Eqz2QIAIHvR8gkAAADfED4BAADgG8InAAAAfEP4BAAAgG8InwAAAPAN4RMAAAC+YaklRHtkvqz74XwpME8jBu/Ln355X0bN0zjp7oc4iZdaGpKuT7vk+FdXJHTDFEml7P3oB1KttlhqCQCQC2ZJ+Jwn5T/Kk0eXmKeJZE0QMscrqR1Pcf0CWb7cPInyQMYGRb791/sy8F2GvkZfw+c8qfxpnkz2tbkNfnpPrlw0T2apROGz60izvN9pnkQQPgEAuYVu95w2TwqWzJPlP8yTdZvmmbJp+u6+nP+ne3I68hgXlW8nl+5+SNGQfPuNvVX7xg4roNoPO3gCAJArZlnL5wP59lfj0vedKc5a6bV8xrX6PTJPilfOl+Xf08Fzps7dtE5OudU4/f1y67vMPO+WzyH5X28fk/8pG+XQOxukzJS60fIJAMgFtHw+JAVT6WtO5LsHMvDFffmWJkYAAJAjaPlUCtfMl8c2zpclkUD4QMau3ZerbQ+StthNab81ebJuo+4mN8+TuTYup9VnOBK2fFpSOPdH1Hv+Vh3nclW/KRobfCCDp+9L38XJvv4caPlMcH7f/uu4DCTbfwrXxf4OHsi1f7ovBfXz5VG1j/6+Bz8dV9+J+py4Mmu3tCQd8/kNLZ8AgNw2x1s+ddBZIE+94A6Qmgojy/PkKRWeyh8xRVHS2y8jrZ1uuttdhx71uTr0xgc1HYryZOMPVZhzBSxNjxV99IU8qVxjCnJU4abE57f8hwsSjIVN/7o8qoOxFTK1ebJE/eNDf1ZUmdq/2DzLuBuDctNsAgCQi/L+prT0v5jtHDZP/nr9fFmoUsT/Pv9A7oyY4kno4LJihdNadV/Ot9+Xb/6oHtceyLxy/XnzZOG6efL//jG6JTOt/W4/sN9jPR5I4d/OlwLdKvjfx+V6pNw8Lpt9jMJVdsgtWDFfHlP7RR7rVLl6/duT9+XKFx4tmGvyZM335lmteTeOq/d85tTxQP7fPBWSHlPBS51H7PlFmycBfaxjD+T/d+6B/B9TOrn090v5u1TnV73FfA9f3ZerLfcj13JwWH0H6twK1DnOU99L1OekcV3s72Ce/FWB3SJ78TP1XauyhapsoWmljZSp71+G70v4ttl5iv5D/dNmK9rNs1/LH/sCUlP/hGfL5/+37WuzBQBA9pplLZ/z5NEfLpCNP/V41DstU8Yj82WFa6LOFXc363cPpO+X42YspfpMd+tZuvvNFKulbr5UrvGo6+K4/OlX9+S8OqbopZj0WNFxuXbNflbg2bqb7eZJ+Ub7nK1ubhW+3QF6VJ37+U/1OaswuTLm2kzjuoypkGu3MD+Q8FV7X3eZXvoq84ak/9Pfy3G9zNKyJbLULgQAICfN3W73YtPd6tldrakgedoOF7oVrNDaUtLdLwP0mM+JpYzs5Yz+9Ol9GdMB6wXv5ZZGnWPUXfRrVEitV+/7UZ4VyO21Q9X5zFgf8QxS52MNeRi8L98kGl958b613JPX95DudRkLu8OqzV026vF62m6elX2vNEvjK8dkT+sVCS2rlP/4E+/xngAA5IpZFj51a2RsQDMP1wQerTBg/xwL2z89DTxQwU5ZMhFe0t1vZjyQURWwzv9KB1AVsr43P26soZ4UVfmjBdb4xuV6jKoe46iOK+c5/whYMl+ecrdwRz0SL2Cfi9clqB6P2psAAOQsllqaDb57IIOmuzeqq3hN3sSkKD2L+6txufYr3eU8bgVyp3t5zsmV67J0gxy0FpLfIXsbiiV044q8//Oz0m9eBgAgF8358FlgWjI9Oa1rKqDETshJd78oM9oyOk8qX9AteQ/k209VqPqlPS5Sj3EcjRrnmKOc1mW9LJW7hdvrEbXUUy5el8VS/UKD7K1Rm8x2BwDkuDkbPkd7THhZPj/xckpmQsvY1YkQme5+iWRkso8z/lEZix2HqgJw2HMtTxOQU5VuUJ6pgO209ib8HiaRqesCAACmZO62fH53X761ulf1DHm9rqNrvJ8Kc/ZC5/rJA/nWvYxRuvtFUcHJ+Yx/mC/F7vBkTYBxfWZSKtityZN1P5xvBSY963rAfmHCkvmyYpM7AJp9rPUqTdEk7Bnc9uz9yOfo45wk9KW7X2qciV3me9B1RH2uqmeTOs+fJlhzMwPXBQAATN0cv8OROyx6SfR56e7n8sj8SGiMp++kMx4Jks4djpLyuJOQXo/0KWtZKA+Dqo6rYt0X3vvOSRMSfk7MnZhipbff1L7LpOeoqfPUdzpyf04618XrLlPO50xWNlXc2x0AMJvN8TGfel3Oe9ZyRc6EHdsDGVMB6U8qAHqHn3T3c/lOz1IfV/tHhzDrtpDqc+NaMBOw36/HLsbfwnL0C70Ukzom9zFG3q/CbbIZ+y7W53xlhhs49OdcMdsJpLvfVOg6Tqvr+O21+Hr0RKI/qfOM/S4ydV0AAMDUzZKWT2D2oOUTADCbsdQSkEtunJa2c0PmCQAAuYfwCeSExfLvvmdPner4l2NWK6f9+L10WaUAAOQGwieQI8peaJBDDZUSXGYKAADIQYz5BLKM95jPyTHmEwCQC2j5BAAAgG8InwAAAPBNzne7V1QEpbc3ZJ4BAAAgm9HyCQAAAN8QPgEAAOAbwicAAAB8Q/gEAACAbwifAAAA8A3hEwAAAL4hfOakUtm94S05X/OWtFesNWVT5XxGk+wuMkUAAAAzjPCZi4rWyJYCezNYvlq22ZtzXvH2f5b/+6N/lJXmOQAAyD6Ez1w0clFOjtmbob5LcsLenOOCsmLDUpGb30rYlMw6y4Kycvs/yn9673+qkP3P8v1lphwAgBxC+MxJt+SDs+/Kus53pa73gimb68plscqecutbGbALZo+af1RhUwXOd/6rPPtitX2e0i+DN6xXAQDIKYRPzIxlG2Xve03S8lGTHNpebApnUM0z8oT68Zf/5wv7+WzS+bG0vP2fzeN/yZAuO3dGeqwXAQDILdzbPevpiUE75VUzxjNWqO+I1PXeMs+8lMrqklo5WL5SguYzQuFO+bDvc5Hyt+RAICxHu5vlgxH7tUypfaNJmtabJyoutb99TI5ltKVuk7zwXr08sdRqBpxEl3z2yj97hrXimn+Uv/8HpzVRuyl/+aRNzhz/IkkLalBWvvH/kX+3fqksNiVD5/6X/D9tLdLz2D/K/72zTLre/kf50jrfoHz/vf8q1bd+Jv+tTeT79fVSrfaTm13S9fN/li/VecSVJbtOuhV0Z7UMffKf5X8cn82/9wCA2YqWz1nNDq4tlRPBUwsGauRAVZO8VmgKctGyR1VgTCV4Kp7jQHV4/Z/SqILcRPDUlsoTL74uje81imd77bJG+U8f/Vd51hU8tcXr/708+84/ywv/rlo9c3eJm+EA8oy88M7rdsjUllbLE/X/KP8ppqy6fpO9nUBxWZn1c6if4AkAyE20fOao1RVN0lIeSNryuW2VbtnUW2E5deXXsuu2/b7VRWvl9ZX1stkKpDPT8ml1u/9kg1SrXNX/SavsOT6TIzFVkPzodXni5v+SljdbUhjzad7vtHKe+UIGnLC4bJN8/ycqEKrj/suR/yifdppyi7Ofour67Oct0mP2s1pQdZDVT9zHocPqO//eLj/3M2n5F1WXab20xJap5/9NPU9k5Rv/UwXfm66WVQAAcgstn7NV0VZ5zQRPHS6d4KldGrkgu84ekaNmxvyMuHFa3n+zWRpfaZ7h4KnoVlD9M8XJRivf0AGySz5TAe5T3b3uDnE3vpAvf26Pq1xcFrTLDHs/RQdEFS6d4KkNdP6z/I8jXfYT93E8Zo5NB1IdMvX2N9/a4zbdZcZQf5/Z8rJJntRDGW5+LVcJngCAHEX4nK0Ki8WKTuEvMt+qmW1MwEttspEJcFItz76jlyzyeDgtlW7LGuXfWcHPDozJuI/D6Sb/y7+6WmSd43WVpdSdPsWQDQBANiJ8zlKrC+wRi6HR29bP2WylNc7ypgx9Yz9PysyKn6riZ562gt/Q2dMJg58dIKOPI1Cmx3NGl3kdr/2+LvlzVDd/DBNak7eOAgCQ3QifyHFBWVKqf6a27mWkJfLIf5T/9kryh3s2uRMi/3ImUcukWeQ+6jicVlZ3mdfxOt3pyRfId0Jr4mMAACD7ET5nuWBhidmarcxs8imuexk7nnP6zHG4A6TTTR51bB7Hm1J3+tRCNgAA2YrwOUtdCl8Wq30skODe70Ul8kSCtUMzwq9F5p3glqKB/n7r5+ING72XUlKKa4IJXlsqix8zm1H0up9mMpLHZKOobnLT7R9VllJ3uke4BQAgBxE+Z6vI/d9XyoENDbKtyCq1rC5pkPaqetlsns+E2np7mSWt7MVnZcdM34d8fb18X4VGR7FeMumNRnX2MTrPyF/0z6X/3lrLc6XruOx9/lkad/5XeabGFBrh/pvWzyd2/mP0PjWN8sJ7et1P+7k7QHpNIkq1LA6TjQAAswTrfOaoVNb51MsttVfViGcH81iPnBpdKZtz9g5HDnMHIRN0Y8Wv1am419n0MHTuZ/LbmCWQotb4jHWzSz47WybPvihR6296rclpl7nvuOQcv1eZ9SQp7nQEAMg1tHzOZiOfS113mxwNuztqw3Kqr00az7bKz0ZnrgO3o+2sdNmNhdL/yWczFDy1kHz55n+WrnOmMmNIB8K3PYKn1vnP8t/e/pn85WbMPuf+l7XP/4gLntoX8qnaJ6oetf9fjvxnaXnzn01X+GQTi0xZVNe5V3e6KUsBdzoCAOQaWj4BAADgG1o+AQAA4BvCJwAAAHxD+AQAAIBvCJ8AAADwDeETAAAAviF8AgAAwDeETwAAAPiG8AkAAADfED4BAADgG8InAAAAfEP4BAAAgG8InwAAAPAN4RMAAAC+mffUuqoHZjsnVVQEpbc3ZJ4huVLZvWGnvFogEuprk7reC6Y8A4q2SntVjQTN04ixTmk8+7lcMk8BAMDcRvjMKSY8SpqBLiog9sj+zlY5YW0nMoX65kT4XCA7GhZL3SK1OTwq+1pHxPrNW7FQWrbk6y3pOnlb3r9qbUbUPlciTXEXxtY/PC43z92R41fv2Z+FlAVXFMn29flSvSjPlOjreVfa/nBHOsKmIKeZ3zdx/a7NiPR+rwEgXXS7zyUjF+XkmL0Z6rs0SfCcopHPpa7zXVkXebTJKfPSrDTsFRbH5ZtBs5miMhWcqrcsloMNRfHBHQkFn1kiB7cURgVPrWxRvjS9XCKHnsvneqYjQ7/XAJAM4XNOuSUfnLXDYUa73JES3XrU+Av3Y0j2nRyVfv3iokLZ9cwC632YxIqFcrBKh85xdU2Hoq6pvp5dwyqEBovk+wH77QCA7EL4zCkl8kSB2fSF3/VNw7KNsve9Jmn5qEkObS82hZl2T75VwSbO4LgdIKfsnoSujsiek3etZ7oVFJOrfdzuCu7vviPvX71nbTv09Xy/VYX6jwflWM53vefJY7orfMZl+vcaAJJjzGe2K2mQ9vKVEkwlBIbbZN1lp0VzYnKRl1DfEanrvWWeuaRdX6y1crimXjZPZcxn0VrZXb5JtgQCkS7T0FiPfNjTKidGTEECtW80SdN680SGpP3tY3LshnmaQc74zf7uIdlzxgSfQJEcerlQyuSuNP/ijnTYpRHOPgnHzTn7u8fbuQXyZUd1kTwdzFN12PTYxq/PjcqxmPA1aV0WZ4yf9/HaYyl1l7YpEBVCQiNy+Hd3PbpkY8clLlDHsFDq3ccaGlX7Zm7Moud3MKno49TXdPvfFU102w+PS9e5+DDrNrXrYrOGB1SJtDth2Ou7DN2Z+IwVC+XQ+nz1DxHrpeTUfo1qv2jq+j9TqK6/+zPMcXapOhIE8nR+rwEgXbR85oCUgmAG+V2ftrqiSc5X1curruCpBQtWyoGqt6S9otSUPFy9KqRoN4dcISV8T27qn+q1XqtgaoJPqqCgN+LG26nA9NwSaXl5odS5woqmxzbWbVkse1eYAqOjy+7Gr16fZAypCkBP62ASuhsTKHRAKzFjKU2RRdUdXCgHf7xEdiTqylYhrkJ97l4V8JpijzVYmNExrR3XTUtxVaHUTrVrXR3ndnVND6prGjVeVG3rsbctz9mtqtGmcV1cdBD1/C7Vw/29pxQ8PZnrXxUbXs1xvrxE9iYY2jETv9cAkAgtnzkljdbEGDrktZQHErd8RplOfVPYt6RBzleuVBthOdX3hfys90Lk/avVawfVa0H12tHuZvkgUQuo7nb/yQapXirS/0mr7Dk+YF7IMDMDOLplMbb1L1ri1kjTSqXDgnoW97qpy57BPSodKgzY9H4LVcjQ4Sm+VWqy1k/79fGJ1jjDbqVzxlK6WgF1a93fqdBkBZrY+sy5R8KO+ly1r9MiG9TjM2dgxrRzjhZ1fdo9WoGjRR+nbo1t6xoxs+Ld1zP+ONO7LjZn3y4V9KuD6jqoY22O+S6DAfWPDs8WSRUmf6xCcqIW8RiR47TqUMcS+UxVx4pC2bVe1R9K0Fqcxu81AKSLlk88ZKWyu1wHT5FTV5pllyt4apdut0rdlR61FZAtgSStnzdOy/tvNkvjK80zFzwjEsz+HfaaKTyhekuJtPzY/TCtVOo13fUaF8yu3pF9H9+WPa06SLgDwz3pODMozVZlC+TRmFa3SOunGRsZLV++p0ObCihfugNPoEh2mYClQ2lU93P4rhxrHZJ2a1xgvtQnmhilQ88vVKB17RtS52Afp8jSxZmbUNXxu9uyr/uumaxltwK3/Fi37E0+y93qWv6dEzw1+3ru67Zb/6KuWyaui6KDp6630eO7TNQVni4drKOXmtJji++o3yP1u5R0mEJ6v9cAMFWETzxcRWtki+7mH+uUn922i+LcvmQt2xQsXiOr7ZKHR/0Rb9QBK+aP+zH1hz1+/N3k+odHpfljHYa8940Ek8ACqV1RJHufWyKHGpZY4dVu+cuTx5ZY75igQtHXOhAFi+K7g1fkS7X60R+KGae4xHQFh0YSTNRR53jOdHerIBUf8FQ4061t5pmb06WbaaEzKlC5Zrjra1FdZXeD712RKAiOy9d/9g5goT87YXbBxPlN+7oY6h8XqY9PTY9z/GXqGlghfCpDEjL8ew0AyRA+8XAVFtt/sAtqpKXmLTnv+aiXzdabc5vu0owsCWRa2cqG78W0hEXTk1z2NpRIy8uLpUmPOdTjBd1jFT05gShPnn7SHcIWyA7d9Sp3pS0mCAVNq6Re9D4hZ/azHt9pFWQHe4a7uq4f35H2kD5+e/xm7HjYlLnOL1PXJen+mRIekT0f6yBuQvjLpoVd/WNlymEUAGYQ4RN4CEJnRqRLb3i1Tjqs8ZJmksvwXenqvmO1ku5TDx1gne5sT1dHre5ga1KOKUo80WiW0N3gv3N1nyebdDVbqQBqB/Ehae5WvzMq9PbryVQmjLL4PoBsQPjMRQXFstxs+mIm6xsdsLt/9bJNUXdI8njMmtt0anfluBWS8qTu77xCUr7stSbq6Ak89ljB98+o0BjWYwRT6b69J19arYD58j3TAmjPqlef15W4GzVpq6rTBa0CTTbPfo50n09VkvN7qNclSYtqQup3pOOM+p1pHbSGJuhWYXvx/YXczADAQ0f4zEnF8mSR2fTFNOqbLLg6t/wMbJLd0zknXxaZzyw9ZtGarLKoULYn6iLWE4M8Z3EvkEfNViJO66rdArhAvh9UASp2opERCWwJW2KdLnuP8aI+q30u2ZhOxQmDCcSNkbV4n192XJf4SWVegiuStGqG78r7ztjUZEEaAHxA+MwpF+QzKzgE5NWVW2WbO6wVlcq2kkyvhTmd+m7LX6z7yK+U1yrWTkwUKlob/Tn6lp999mz2V6ua5LB+b9Trqp6KBmmvaZBtpsRLbb29zJJW9uKzsmOZvZ3dJiarJOwitm676Q4VetmchXJIL4Ezaf+paV1dlC/fV5+hu9wTBqTwiLRZL+RJnV4P0h3u9JJCkWWK4seL+ipQZC1gr8d0HmpYKLWB6BBqXRtnaadzXssD6X1jZsUnO7+Hel3uyldO3X9XFL2mqTUBzX0sRbJriz3Zyupaj70u6ljtlnSfxp8CQBKs85lrirZKe1VNghaOHtnf2SonzDMvU1vnU5lGfU5dcTzujJTwvY6xHjna05pwnU+/7nCUjuTrbpq1FHUwjLljz8T6kh70skbq114v1ZR8/UyzVqS1rZdC8p6Rbps4Fm/2ckPRM6KdfbxesznnMbU7EiWhgtbev4td8D2aXroqegUB13XW3c+e+yY6h3Sui23a567O1b7LkJfo7zP+DkweUlwzFABmEi2fuWbkc6nrbpNTY9F/6fRtKI9e6UgaPNMyjfou9TZLY19P9B86vV84fk0l/d51qp6j4XDM+/XC823SeDZx8NQ62s5Kl3U7FhUuPvksa4Ln5FxL9bgnBykhvfbkybtWWIpQodMZA9oxZMqSclrPlEknGtlL60wsXeTQt2e8I/viluJ5SKxJNUPx10bRC/InW7pKn8vXf9DnGL2vXhuzOUGAfKjXxZrBrsdrRrdW6vNsV8fj/j6dWf/2cXq9X10zgieALEDLJzDLJbqj0dwyeQstAMAftHwCs5k1RlL9HPaeaAQAgN8In8AspccAOuMFvSffAADgP8InMJvoCSrm3vF6gXodPD3vGw8AwENC+ARmE/cal8Pj0nUy2eQbAAD8x4QjAAAA+IaWTwAAAPiG8AkAAADfED4BAADgG8InAAAAfEP4BAAAgG8InwAAAPAN4RMAAAC+IXwCAADAN4RP5KhS2b3hLTlf0yS7i0wR5oAFsqNB3z50iewImCIAQE4hfGIGmGC4YausNiVzmxOY1KOhSIKmVFYstMvUY+8KU5ZAcEWR7G1YEnm/fhx6rkhqsyqAmfN0n2POy5e9zvV+ZoEpixZ8xv5eEr2e/ab/+wkAU0H4BPw0fE/ibwY7Lt8Mms04Khg8t0QObimU6kV5psxWFiyUppeXEAx8UlZVKLVme9aa8u8nAEwd4RPIWrpFarHUBXXoHJeuk0Oy7xe3pdF6DElz913plzypfjzffjtmWL7U52zrJgBkD8InZkCJPFFgNrPdso2y970mafmoSQ5tLzaFmXZPvh02m26D4yo8JrGiUOoW6Y270vzxoLx/1d0qdU86ztyRPR8PSePv7pqyhy1PHrOOdxYK3ZUu9WN2tn6m+fsJAGma99S6qgdmOydVVASltze+o2h2KpXVJbVysLxYggXOYL+whMJfyL7LF+SSKYm1umSrvF5eI5sjgXDyfSxFa2V3+SbZEghExoGFxnrkZF+HfHD7likxShqkvXylOi7zPJlwm6xTdcebyvnpcaU75dWCsBztbpYPRkpl26qX5DX3sYY71X6fJz3H2jeapGm9eSJD0v72MTl2wzzNoNrnSqRJHVh/95DsOXPPLgwUyaGXC6VMh8tf3JEOu9QwrZ4qzHWdvK2CpymeAj1OdPt63V1vCkSFidCIHFZhNel/MYF82VFdJE8H89Sx2fqH78rX50blmArAUVYslEPr86UsldAZupMgKC9Qx1oou9YvUJ/jDC1IdKzOdRmXdhXIj4UXqGu7UOrdxxoaVfuNJD/HlOkxnwulWh37vuEiOViVF/0dKnrMp1d5xBSup/17on8fRuVRdV4Trd76Hx96CEZsmbVbtAT1tf1B/Y6FTUGMqf9+AkD6aPnMFSoIHlZhq6VSBzz3LBMVtgL10uI569ue+NNS6Q6eWrJ9NLXfqiY5X1Uvr7rCnBYsWCmvVu6UwyWmwCWl4JlIWudnFNr7Hog91kCNtGTJpKfe4XHr580hV9gI35Ob+qd6rdcqcFEB4mnT6vnVlIOnDmglZpyoKbKoMBJcKAcTzhTX4WaJtLxsBxwnuGhli/Klbstiz/GlKQXPRNR57lVh8uAWHWDdY1onO1Zlib1vU+yxBgvlYKYnPS1aIHJmZIqtn+ldT71ffWS4hZYn1euL1GfFlG1ZGHcc1uSnBPU1vZx4UtSUfz8BYBpo+cwJKlzV1MtmvTnWI0ejWh5LZVtFrbxWvlJuXHlXdt02xcrqiiZpKdd/ucNy6sqv1WtmH92iuVIFSyss9sj+zlY5Yb1glDTIeRUCdSvnhz0dcmLEXddLcsD6TI/9IszxjnVK49nkLY+2dM7Pafk0T9U5HlXn6Oy3Wp2DDrLaqZjrEkV3u/9kg1QvFen/pFX2HB8wL2SYnjmsAlZ0K6ZpxZNR2dca01Jn3p+4tTAxpyXObh27Y3XXW3SL2N+pYGJCbVxrlqnTbiUblQ4VPmwLpPaZhdJkfWayVjDTSjjscT6ezPv1pqqzPaolUNdZKPVV+XLT65pFAu+4tKtzdPYLqnPQQVZLt8U4WvQ5iUcrZ8KWzzSup9MCaZ2XadmdON/4sqhzdH5n9PfePSLHz0y0Guvrsku9Vhb5DPOCw+yb8u8nAEwDLZ85YHXFJhPMdJhrjenyviUnelulrvtIdMAq2ioHTfDU3dKR4KmNXJAPzh6Ro2P6yUp5raLUKo643SqN3e9KnaprInhquq5m2W/94SqWJzO0vmZa5+emAuv+zuao/S6pc7CPU+XLgpjzc7txWt5/s1kaX2meueAZkWDW8HD8DOPg4jQntgSKZJcJnjpkRIKnFr4rx1qHpN0a3+cxeebqHdn38W3Z06q7Z137WeNLB6XZOsgF8miilsgpCj5TZIKnDjcTAdI2MaY1YYBUoa75FypIufYLqXOwj1NkabrXMInQVFo/p3E9+7vV9bB+f+/JlyG7VdJdFj9GUwXF9U7oVt+7K3hq+rrsOan/EZMnTz+Z6Lqk/vsJANNB+Mx6pfL3xSZE9iRpRYwKiUphsd3tGP5CPhixSmLckg/6eqytYPGauK7pS84+RaWyrWSrHF7VJO0bmuR8zVtywPpjGZAnCq13TFOa5xeh9/Nugb02Gtu88xCpP/6NOihFHdI9FQZvZ3bC0BLT3RoaiW/dsqg6z9n1lQXz47qmQ84+gQVSq9cWfW6JHDLri9otcnny2BLrHdO0QL5vdSGrkPyHJK1qUaHNTe/n3QLrdCHPjLtyvFt/fmoz39O9nlHd34a7LO4cnWEaKsgfTxTWr5pJUx7fu2+/nwCgED6znjNzfED+7Bkiva0usGduh0YTNRcqowP2H3313uVWwQQ9SemwXii+aqcc0GNG9XjKqLGYmZLe+c12ISdoLFowpbGLTotpf7IA5sxiXpQnFVbBBHsx+xJpeXmxNOkxo3rsYMz6opnhzIy/J996huTsNZXWT9+up/OPjkWFctAsDB//MEMcAOAhI3winjVe0kxSGuuRU31tsr/7iDSqx7rOdyPd2ZhBSQLijLHGS5pJSsN3pav7jjR/PCT79HJOv7gd6c5GdOtn5B8KsbieAOCJ8Jkz0htjGSz0mJbucLrmxwbkmlWgrZXD1kQdPYFHhc2zrbKr94I19vNSwq7vBDxaVBPL3BjSWSF8V75ONDYzBUlb15xWsqhZzPmy10xWaT+pwlHrHWvcoB6rGErY9Z3AlAJz5saQ+inS+unVhW3J4PVMhfOPFT1BLXIjggQPJg8BeMgIn1nvgnxmtTQG5NWVSZYNKiqNeu1S+LL9ByawKfFySuX2bPDQwMX4sZZjl+W3URN/HKXypNmaXCqBMr3zyxhfFplPx8REk7KqhYmXG9Iz2FdMhNPQn/Vdj5RgUeLllMzElP6Qx3qfw3fly6iJPw4VEs3W5FIJlHflK6vyPKn7uyTLIgWmNuzAP6b1c1GhbH/cFHnJyPVMgfOPlYTfOwBkD8JnDjjR12nGZup1Kxtkd4l79rZemL1B2qt2SsuqtaZMGflcPnRCXVWTHHbvo5daiixT1CMf9nqETFXXwYq1rsBn6tH7TfrHLTpQbnMHUGsCU/Ts87TOL0Nq6+1llrSyF5+VHcvs7WwQOnPHzExXAU3fw/0ZdyubXph9oRzSazpucYXT8Ii0OaHOuu+7q9VUB9XIsj13pc1rQXQVpnZ51aP3mzQFRgfKWvfviTXhJroFt6Nr1Awt0OtyqnOIet05v8Vy8Dk7LGcbp/WzOpjk+KZ1PafCmUjm+l2J+u/UXt7p0I/j1wYFAL+xzmeuKNqqAlhNklYge0ml6JntsWthxvLaRy995KwP6kEvazQgcqB8ZfL1M5Mer8caoVM+P+fcvM9Bc84j1HdE6rwCtuLXHY7S517n0YvXnW4m38drrceJ9UE96GWN1H9mTVWxa0HGiNwVx0v0mpaWpO/XYo/VOTfvc9AmvePQlCRfu9R9zWLrS+d6Out8usucz5msTEtap6bq1asEeK+EAAD+oOUzV4x8LnWdR2R/X4+ErPU5Hfr2k23SqNe5jAtgt+SDs+9K45VOOZXyPiKXepvVPjH16MXfzRjQE1GflYA+3u42VW/0Xzm9cP3RKx3xSyOldX7T19F2Vrqs27io8PDJZ1kWPDV7uZt9J0elK2oGu7795Ki557spinDvY4osep87si9uSR1b6Myg2ueu9Lv30WHFjFnsGDJlyYRHZM/Hd2KOVV1b63NG45dG0u//xZA0d8fUO8mxZgun9dNLRq7nFOk6G9X1bw+ZMaAO9X3oCU/WeqoETwAPGS2fAAAA8A0tnwAAAPAN4RMAAAC+IXwCAADAN4RPAAAA+IbwCQAAAN8QPgEAAOAbwicAAAB8Q/gEAACAbwifAAAA8A3hEwAAAL4hfAIAAMA3hE8AAAD4hvAJAAAA38x7al3VA7OdkyoqgtLbGzLPMLeVyu4NO+XVApFQX5vU9V4w5fDXPCn/UZ48ukRk7KtxOf+F9//FFG7Kk6e+Ny/pe7JTsdRuf1rqNzwuZUtNkVyX5ld+Ix3mGQAgMVo+MQN0CHxLzm/YKqtNiS+K1sgWFTy1YPlq2WZv5rzCNfOlUoW5jT9dEHmsU8+LHzFvSEiHQPX+H82XQlPii0fmyRIVPLWC781XUW12qX2jQZpedAdPAMBUED4xe4xclJNj9mao75KcsDdzmtU6+MJ8FebmmRJbgXq+/IcqhNbP8zdYpuK7BzI4aG+OfXVfBuzNWaJYHi21t7qOtErjK83mQasnAKSK8IlZ5JZ8cPZdWdf57uzocl9jd0uLqDD36bic/qd7kcefPr1vBbyC5fMlMGkLqN8eSN8v7ePMre70Kbh5Vo53zq5YDQB+IXxiBpTIE6b7e9ZatlH2vtckLR81yaHtM9OxXFxpt3bq1sMrF6ND3OhFVfbLcfnTr8al7ztT6KHAdH8DAJAtmHCUU0pldUmtHCwvlmBBwJSFJRT+QvZdviCXTEmcorWyu3yTbAkEJGiKQmM9crKvQz64fcuUOMykHemUxrOfW/u+vnKTbHbqGwvLqb5fy67Y/UoapL18pTou8zyZcJusU8cbJ53jTFBfqO+I1PXG7qNFn98l9XzbqpfkNXed4U51PfVridW+0SRN680TGZL2t4/JsRvmaYYU1y+Q5cuTT9qJsyZP1m2cl1rovDYup9uiP9eeBCTyrRNqH5kn5X87X5YsV59pv0XG1H5X1X6j1rOJyUVepjPhqLg+T52/CuCqvj9F6nPxOrbBB/Ltv47LQIJAPvXzi2d996VnZd+bp4WpjgAwdbR85goVzA6r0NRSqQOeEzw1FZoC9dJS0yS7i0xRhApaq5rkfFW9vOoKV1qwYKW8WrlTDpeYglgFxfK62rdF7RsJnpra3qz2O79qrSmYkFLw9DSN40yXOr/l5poeiK0zUCMtfk+W8jBwxQ5k1qSdKXStZ6q1Uwe1jT9UwdIVzDS9nSiYZYquO1nwTHhszljYTdFjZL1M6/yWLpYKswkAmBpaPnOCCkk1KgTqzbEeORrVElgq2ypq5bXylXLjyruy67Yp1koa5LwKq7r18MOeDjkx4t7nJTlQrkNlj+zvbHVNzoluUdStgB/2fa721c/c+4mciq0vwhzvmNO6OIm0jtPb6goVmNX7J235jKSNsBy98uvI9VytjkUHfC3x+Sm62/0nG6R6qUj/J62y5/jMjP9zWj8tulXv9H3pi+mCT2yeVP40T5YM3pc//fJ+SoHRbhmcJ4PXHlitgbrOa/96Xwa+c+qcJ4WPqDCYpKtfcz4nnZZPp1wSHfcaFRpf0OHygQx+dV++Ufs67ylUr61QrxWo1yKtmy6ZOD+71ZullQAgXbR85oDVFZtM8NRhrjWmC/qWnOhtlbruI/FB6XarNHa/K3Vqn4lAp+l9mmV/WG8Xy5NxLaY2K8BddoKnZu/X2GftKJsD8a2faZnmcaZNhd39nc1R1/OSOha7PpUvC8y0Zi83Tsv7b9oznWcqeGoDbffkT189EGsS/5J58ugLesmlPKncNLOz3HUw06Hw9C91F7Y7PE4ePKdj0uCpu/k36uCp3vLpuFxxBU9t9KIKsp/q450nS1ba7/OS3vkVS3D781Kvh1vcHJJeuxAAMEWEz6xXKn9frFv+wnK0J0krYlRom3DJCY5FpbKtZKscXtUk7Rua5HzNW3LAasAMyBOeKSYsJ8MJPjN82R7rVliSsa7p9I8zXfp6erekXhs16TNLjH6hApVrhrsVrL6nQpoOoWsSB6xpuZa4xXKmTATPB3ItUUuts4aoCqffXLSL4lxU10n9KFiRJKBP5fyWbZRDH+nJZQ1yUK/vefO6tP+c8Z4AkC7CZ9ZzZo4PyJ8jLZCpW62DnF7wvWqnHKiskc16fGPUmNFp0OMmzeZ0zehxzhL2DPd7cvpX4/LtNdO694IOoPbrmTTmc/7W3eVW8LREt2ZGKTbjM5fMV+F7YtH96EeeTDbsdTrn168e39qbAIA0ED5nM2v8ogpy+q/1WI+c6muT/d1HpFE99FqYTvfyQ5crx5ktvnsgfW3jVne8tmSjz3cwyrQVKkjqMZyD9+WaPicdLOtnqEU3HTdOyx5rIflWaf5kSMqWPi5NP9kYNUkNAJA6wmfOmOqYx7Vy2Jo4oyfUqBB3tlV29V6wxlReStBFn7LCYvsP79iAXLMKEkipZXQGj3OWG+0xY0EnsyQL74LkomeoO2M8B74Yl2v6l2p5ghbdAXPO16IX3fd8pDjJKnUD0nH8mDSfU5vMdgeAtBE+s94F+cxq+QvIqyuTLP9TVOr92thl+W3cGplaqTxpthLxHmNZKrvL7dngoYGLk8xkn0JgnsZxPhR+LDJfP8mYTqcLOgUFWXcXJJeYyUUDbePWmE09pKA89ri/M7fuXD4//jUAQE4gfOaAE32d9uSGAr3+ZIPsLnHPwtYLzzdIe9VOafFYe1Pvc7BirSuYmvfr5YaSDqnU63k2yWH3vnoR+MgyRT3yoedSRlp0YN7mDqDWhCKPWeRpH+fDUVtvL7Oklb34rOxYZm9nzCPzrfUndQBb96M8KX4kOoTqMZLrrOWGVHY7naiFTwU1q2l6njz6DzFrharPK56pyUpTNHY1doznA7liZqzr447+N9AD6TttXvuhmfUfFULVeW1S1+an6pqZEgBAdiF85oKRz6Wu2wmg9qLreha4/TALz+tu6z73XYMuyM/MkkjBcr0Ifez7e2R/X4/1eiKhMRVA3fvqReCt4Knq6k6+5qY7MB+ocurWn6EnFNXKNutd2vSPc1b67r6c/5W5f7u1cLpeYmliUo0eI2kNkb02LlcSzfpWBv543yzTNN9afD3yGerzlr+gAqn1rix00Yxp9Rr/6bymJ1zpWf/u81Khc/n31LXR121GWkaL5VH9byeWWgKAtBE+c4UOoJ1HrCAWihrop2+v2SaNer3KmNnwl/SanFdi3j/WExlbeSLpgMGwnOx5N25/vej8/u74uuJYgblNTsVMK9YLyR+90hEVXKd3nA9HR9tZ6bppb/d/8lnGb61pUQHUun/7pw9kTHc1u+jbSF771bicj7k9ZhwrxI6rEBv9Pus2lJ/el5lboXT6Rr+4L99aXezxww/08lPOrP+oXw91XoNfqWumrluye94DAB4e7nCEGM4dgHTrZgohE5hTimXHew1SJ9zbHQDSRcsnAEzV0g2yvYZRpQCQDsInAKRsQL48O2RtVe9ssFY7sB/PS61VCgCYDOETAKYgdPyY7PvkuvSbMb8AgKlhzCdiMOYTAADMHMInAAAAfEO3OwAAAHxD+MxyumUXAABgtiB8AgAAwDeETwAAAPiG8AkAAADfED4BAADgG8InAAAAfEP4BAAAgG8InwAwJQtkR0OJtPy4RA49k2/KAACp4g5HWY47OGHqdDhaLHWL1ObwqOxrHRHrN2jFQmnZYoelrpO35f2r1qan4Ioi2b4+X6oX5ZkSkf7QqLR1jUhH2BQ8dOY8xXWOfggUyaGXC6XMenJXmn9xRzqs7UyZ/vcHANmMlk9gNhu+5xHKxuWbQbMZRwWf55bIwS2FUcFTKwsWStPLS2TvClMwV4XvytfD9mZ/990MB88YU/7+ACD7ET4BGKbFLahD57h0nRySfb+4LY3WY0iaVdDqlzypfnyudzXfk2Ot9nXZc+auKQMApIrwCfhp2UbZ+16TtHzUJIe2F5vCTLsn35qWuSiD4yo8JrGi0O7q1V3JHw/K+1fdrW73pOPMHdnz8ZA0/i5bAleePGYd72yT5vcHADmCMZ9ZbvaP+SyV3Rt2yqvSKY1nP5dL6vm2VS/Ja4GAOHe1D4U7Zd9l/VoCRWtld/km2eLeZ6xHTvZ1yAe3b5kS27ZVb8mBQI/s7+yQJ1U9r6p9RMJy6kqz7LqtjiWuzNotWoL6PuxplRMjpiCB2jeapGm9eSJD0v72MTl2wzzNoNrnSqRJHVx/95DsOXPPLoyMVfQapzgxzjDt8YSBfNlRXSRPB/PMeEhV//Bd+frcqBxTQTZa9HhNve/2vyua6OofHpeuc3esABxlxUI5tD5fylIJnaE73kE5neNMUF/U9Y0SfX4h9bz2uYVS764zNCqHf+c9VnXq3x8A5A5aPpEdCopluQp1h1UQPeAKdVowUCMtG7bKavN8gg6LTXK+qt4KjFH7FKyUVyt3yuESUxClWF7TgdcKmVpANpdvVZ8VU1bZINvMM8fqisT1Hah6S9orSk3Jw9Wrwpt2c8gVjML35Kb+qV7rtQpcVCB72rR6fjXl4KmC1nNLpOXlhVaXvROutLJF+VK3ZXHicaIqbG7XY0zVvlFjTNV2tdqv5bn4Lv6UgqenaRxnutR5VKhru1cF0abYOoOFcrChKOr3yDHl7w8AcgjhE1lCh7d62VwQlqNXjsi6znetR+OVHvvlghp5PTZIltRaIVC3Ou7vnthnXecR2d9nT8n2CpA6WAZ1Pd32e4+OqSL1+a8GYsrUMT3rrrOkQVrKTatoX5s0Ruqzj1O3YAXLX5LdRda7PXW0nZUuK0GI9H/y2Yy0emohd2iJGJdvvLpztSUmGIXSmECju+tVsNKth826Wz5qnKgdoqq3LJRaaytWvlTrfUOjat/4/SS4MDoQXr3j+vw70qXL9IzwSJnrEdvqmdZxTozvdD/2Occ3qXxpsoL1uLSfnKhz30lzbIsKZbtH4J3y9wcAOYTwieyhQ2Rnc1RX+aXbrbLfLO2zrCCmVVG91qjCYt1Z3d3t7l6/JSd6m81+xfKkRxgM9f1aPrC6yG/JbwfsCtxlfx61ilxKZXf5SmvL6o7vvRA1DEAfZ50VlAOyJZCk9fPGaXn/zWZpfKVZ9hwfMIUzJcGs6OH4GdTBxQvMVhpUINynguOe1jvSEXaHJj1OdFCarcoWyKNOo3IMq2v5d+4lnOz9nICXsQlO0zzOtOmw+4vBqC79kDoWuz6RpQmvferfHwDkEsInskRYjuoxk+aZ27XRSCqJc8kZY1lUKttKtsrhVU3SvqFJztfosZ36hYA8UWi9I8qNseixoJq7LK7OojWypUD9HOuUn3mNA9VuX5JT6keweI3HEAGfWS2EKvBEnYZpxZuBCUMhp57AAqldUSR7n1sihxqWWAux67GL1uSgJdY7YozL13/2auVTn/lnPbteWbTAs2s6HekfZ7rGpf0P3uMzna51Tz5/fwDgJ8InctpqHTg3vCXnq3bKgcoa2azHYhZkuulKKSy2A1BBjbSoYKvDbfyjXjZbb849kW7eNIOeXpR+r77rz8uLpUmvEarHN7rHcE6HHjdpNqdrRo8TAJASwidylx6DqQOn1SLZY43D1GM/G834T6e7HilwlvFJJ+itWGgWpVfbw3elq/uONaZynxlX6XQvP3S5cpwAMMsRPpGj1srhSj0G00xQOttqjcPUYz8vRY3/zJDRAXucXbgtMsko4cNaMirHRO7aky/1z0xl/Ge+7LVu+Wgm1LTekffP3LXGVIaixlWmwZkENdns7pQC8wweJwBgSgifyG1jl+W3MWt52krlSbOVESMX5aSeAR/YlHQ2+6R8WWQ+Hffky5A9BrGsaqHsSDRyQa+RucIjnA7flS/j1sjUFsijZisR7zGWC2THenuiUX/o7iQTbKYwSWgaxwkAyAzCJ3JbQY0crFjrmuBTKqtLGqTdWsfTFGXELfmgz57N/mpVkxzWdUaF0FLZVqHqrfFa2mlCbf0GqV5qb5e9+KzsWGZvZ4PQmTvSbrV+5kmdvof7M/mu8Z8LJKgXeNdrZG7xCKeLCmWX1/v1QutJB5Hq9Txj6tIBN7Kw+11p81zEXbsrX1mpVB3v3xVJrfuYrAlFHiE57eMEAGQK4RM56oL8zKzlGSyvd00C2iktlStVuOiR/VZYzCC9tJNVp16UXtVZ5Z5stFMOlKt6x8RzaafcoGdTD0UCaHXVQjn44xJrJnjLjxfLwS35Uib6nu/uWdh35bhZEkm3mMa//651T/hk+odj6tIB1wqe49L+cfI7+XR0jZqxqoXS9LJTt/4Me0LRxJqd0z9OAEBmED6Rsy71NtuLu1sLwhtjPZExoCfc5Rmi61zX3SZHw+HoruAxs/C8qtdeK9SbX4vMp89ezmffyVHpiloKaNwsBK/v+W6KjJBek/PkXRUiTYE2fDcytrJjyJR5Gpev/2Avuu7e36kreqkhD+ER2aMCavSx6kCr6x+NCq7TO04AQKZwb/csN/vv7Y65yblnum7dTCFkAgBmDVo+AQAA4BvCJwAAAHxD+AQAAIBvCJ8AAADwDROOshwTjgAAwGxCyycAAAB8Q/gEAACAbwifAAAA8A3hEwAAAL4hfAIAAMA3hE8AAAD4hvAJAAAA3xA+AQAA4BsWmc9yLDKfzUpl94ad8mqBSKivTep6L5jymeJ3ffC2QHY0LJa6RSL93Xdkz5m7pnwqnM8Yl/aPB+VY2BRPKsF+gSI59HKhlJmnEcOjsq91RGbn/4Nk4ntIYMauZ7rfOzC70PIJpKtojWxRQVALlq+WbfZmEjo8viXnN2yV1aZkSqZc32yl/4CXSMuP1aOhSIKmVFYstMvUY+8KU+ZI9polX/aa11ueyzdlCQTy5WkVeLSyqnyptTeRMtf3l+zh/m69zLrvIY3fayBHET6BdI1clJNj9mao75KcsDdnjt/15YLhex6tUOPyzaDZ9FD9uEe4XJEv1WZzUuG78vWwvdnffVc67M2HKzwie35xWxojjzvSZV6atWbye3jY1zON32sglxA+gbTdkg/OvivrOt/1qQvc7/pmqWB8K1mtVyBN6J4ca7VDSUa7eucc3fXsDngxj0m7t/kegFxF+AR8UyJPmG7zWWvZRtn7XpO0fNQkh7YXm8JMuyffmhavKIPj0m82E+kK6ZCSL9+L6r5Uz3Ufp3pt1rcWIoul/3sN5BomHGW52T/hyEyikU5pPPu5SNFaeX3lJtlcELBfHgvLqb5fy67bt+znHlaXbJXXy2vUPqZAwhIKfyH7Ll+QS6YkXqlsq6iV14pXSjB2vz6134gpipiY7OMl1HdE6no9jrGkQdrL3XUkEW6TdeqYbWnW5zK16xL9PVzS12fVS/JaIBAZexYKd6p99WuJ1b7RJE3rzRMZkva3j8mxG+ZpBtU+VyJN6sD6u4dkz5l7dmFkkshdaf7FnehuWD1ubku+ev+o3KwqlOrQHWn8nWktM691qdck9jXXpBYvUfV7WiDBFYWya32+lJnP6A+NSluX+gWr1ueQaOJJuvs59BjWhVI9lQkygXzZUV0kTwfzIhNt+ofvStsf1LXM6MSYdCbdTPd7UKZ1flO9nul9f1P+vQZyFC2fyA4FxfL6qiZpqaqfCJ6a2t5cuVPOr1prCtzsCTwtle6ApanAFKiXlpom2V1kiqKslcMqaB2IC4Vmv6omOVxRasqmL6XgmVHpXhdFfQ/L1T8ArOvjCp5aMFAjLelOlsqw3uFx6+fNIVfgCN+Tm/qneq3XKvByT77RrUuurvfg4gXqf8flmyGRpXZRhtiB6aAKtk4A0cqChdL08hKpTxCk0t8vfcFnlkjLywulzhXMtLJF+arOEjn0jL5Gucvf80v/+0v/9xrILYRPZImVslmFHd26tr/bHte4rvOI7O8zTQMqNB0usTcdqyteMi2DYTl15YjZRz262+SoNTEnIK9WNcTNCl9doVtW1cZYj6suu77GKz0SGgvIMvutLhPjLd2PRuf4Ernd6np/m5zSZWOd0uj6jMgj0uqppVmfku51sa2UA9Y/AMJy1LWvvi6Wghp5PeZ7cOtoOytd1l9Kkf5PPpuRVk8t5P7jHKECpFe3ZZRx+TKk/8A7Xe8L5PsqkMjwXfnSczLHxLhC92Nftx0Skql9zmmpG5euk0MT+358R7qGVQhKEELS3S9tKxbKwSp1DXR93Xdkn6nPqvPkXavLt6xqoexw/ZvQf+l/D36f33S+v/R/r4HcQvhE1rC6ki9/LiciXd635ERvcyRwbQ64Wj+LtsrBcv3XQoWk7ubobvmRCyq4HTFBa6W8lqAVMzTQ4apLuyWXVFisU6Fvsi7trJWB62KF8s5m+cC1r74u+03uXVaQpFX4xml5/031nb3SLHuOD5jCmZJg9q/nTGFb2aI8CZ0ZscZ2WrPezXI9XecyvBZmoEjqrWZju3v1/asToSIUvivvtw5Ju1egSHe/tC2QHevtyVZdJ1V9Z+5GXYfQ1TuyRwU0kTx5+slMt37mSd3LZmmh2Mdky12lzOfzy8j3N/XfayDXED6RJcJyMuwd+C6FL9v/p1tYMtHlW1hsdwmHv5APogKk45Z80Ge31gWL10R1FTufFyx/SQ5XrJXVibqgc9E0rotNhdaeVs9lnK6NTt7q6hsVGhp/ETtmzrSORcZrJnJXvtK/AIsWSO2T+dZYuq+uqudLortkp8X5rNBIimMajXT3S5ezVubwqBzX18DLVXsiVlkwP2oYRk7w+/ym+/1N6/cayB2ET+QOPR7RbK5W21po9Lb109PogB1aXftZRj6Xuu5OOTUWkM3leoznW3K+Ri/+rsd65nYYndZ1mUM6rqs/5IsKpUl3x4Yyv1anPY5UT2hJoVvYJd390uaEJXUtDnq1QFqPhamvgTolunVwogs86pGpoOXz+fn+/QE5ivCJuUkF0F16TGW3Hlfao4JoWEJ6cpMJo+2rVAg1b8UsZFq7tC4dRAEAviF8Ivs5XcljA3LNKpgQLEwy+yXJfhEjelxpqwqizVJnJuWcGlOfG6iXgxmc8R7FhxbHaV+XWe+ufNU9Lv3Do3aX+wzRY0zTke5+U+asIamXl/JqgXQ/cvEe8Q/p/Hz7/oAcRfhE1nii0GxEKZXd5SutrdDAxcgak5FxoIFNCZYN8t5PW12SpFVz5ILscsZEJgtw01IsT85Q1/50rktG+LLIfGZ0nBmUPSpwzMS6iaE/27Oove6mZAnkyWMes57T3S8hFYIqzKYn5xaVwaKHPJt9hmT6/Ca5nhn//oBZivCJLBGQzZVmzKUp0QvOTyy03iMfumegj3wuH1qD8vWyQWq/ElcrZbL99GzwSnutS6trvSi6dXO1XuOy0oSzZOMm03JBPnOOeeVW2eYOh+o4trnPIV3pXpcMqa3fINVmscyyF5+VHfFrVs0NTuiRfGlqWCi1ruATXLFQDr2cYJxhuvvFcZbnyZf6Z1wTaQIqFEWFsHty7JwedqBnni+Rvfq9Ua8vkNpnVL0/VsdiSnJLps4vxeuZse8PmN24w1GWmzN3OFKBKKS7u61gFMteNih+9vbEvt6894u/848HvRandaef5FZXNElLeSClOw5ZVPhtr6qZ+OMVRS9x5D3T3JFafelcF2efRNc6tbr9usPRlKk//PouRlb3a6LJLKm8x9CLluu1I5PeWSdyZxoPw3elazhfqr3udJPufjGcY4zjcX4J3+tQ9bb/4U6GZuDbi7BP7Q5H3lL6HpRMnF/K1zND3x8wm9HyiSwRlpM99mLmOoQ67EXnvcOQsxB74xU9c90UWfRtJNukUa9V6bHfpdv2ZCN7v+j/9w+N9ViLq6cSPNNizbTX40q96u1IGjxTl951yQS/FpnPCeER2fPxHWm3FrV3mIXOW+/I8UQzotPdL0bozKDs6zbdwA4dsq7H76/f22jqjH7/RL25HJQycX4pX88MfX/AbEbLZ5abOy2fiVvcAADA7EHLJwAAAHxD+AQAAIBvCJ8AAADwDeETAAAAvmHCUZab/ROOAADAXELLJwAAAHxD+AQAAIBvCJ8AAADwDeETAAAAviF8AgAAwDeETwAAAPiG8AkAAADfED4BAADgGxaZz3IsMp9A0VZpr6qRoHkaMdYpjWc/l0vmaXYqld0bdsqrBSKhvjap671gygEAmP1o+QT8VrRGtqjgqQXLV8s2e3MOK5Yd7zVJy3sb4/8xAQCYdQifyE0jn0td57uyLvJok1Pmpaw3clFOjtmbob5LcsLeBABgTiB8Ar67JR+ctUMzXe4AgLmG8Akg3rKNsld3hX/UJIe2F5vCmbJEHltqNgEAsx4TjrLc7J9wZCbfiD1RSIrWyusrN8nmgoD98lhYTvX9WnbdvmU/T2itHK6pl81TmXCk6tpdvkm2BAKRsYahsR452dchH8TUt23VW3JAHdKpK++qYzGFcZyJRD2yv7PVdKdPTC7yEuo7InW9XucWfV0uqefbVr0kr7mPNdwp+y4nPtfVJQ1ysHylBBPUrSWqv/aNJmlab57IkLS/fUyO3TBPM6HmeTn0D49LWSqh89zvpfFfrpgntuD2HXLwRZk4rmWVsqO+Wp5ev1jK7LdIv9rvsNrP+q9HhelD72yQsptnZd+bp+2yKHrcaYPULU1yrl513LwubT//jXRk8toAwCxHyyeyQ0GxvL6qSVqqVIB0gqemtjdX7pTzq9aagkxQwU7VdV7V9aorzGnBgpXyqqrvcIkpME70dVqBZXP5VlltF8VzJhKFMziOU12X5SokH1ZB9EDssQZqpGWD9/Fs09eyMnnwfNhSCp4p0EG05Z0fSJ0rFGp6O1P/bEtYx9LHpekdP1qHAWD2oOUzy82Zlk8TknRr3od9n8uJEf2sVLZVvCQHyu0wmrzVcQotnyUNcl4FM93K+WFPh6rLaflz1+duvbRN1vppvx6Wo93N8oF1/ImtrlDhUNUzactnJDyqz73y60iLrG7V1OFSizsec37x+2yVg5V6ear4c4uju91/skGqVUDs/6RV9hwfMC/MhErZ+9EPpDphq2Q8u+VzsXSduy7V6x8XuXldmn/+tXTccI6zWILLBiTktEhOp+Wz5nlp2anqkCHp+qRLjh83ralKUL22S71WNhOtwwAwS9HyiaxhBbHLTvDUbsmJ3mZp7AtbzzYHMtT6ebtVGrvflbqzKoBFgqdm17ffqq5YniyyCiMirZ+ex7FWntWZdeyy/HaS4DllKiTv71SB1jUU4JI6B/s4Va4qKLU3jNUFdivcqSux+3wudVd61NZKeTamZTfOjdPy/pvq2r/SPMPBc3p08NThuPFN3fXtPk5X8JwWFUr/QQdPka4jx+R9V/DUQp2/kT1HrqutxfL0M7R+AkAqCJ/IEmE5GXYHwQmXwpftP/iFJYm7vKfokhMQi0plW8lWObyqSdo3NMn5Grt1UyQgTxRa75jgLJEU2CS7Y4KplKyWzepHaOBihhe4D8vRHu9WymujJn2mITaw5qxzv5/ZcLxsuTythwfcPCvHO+2iOJ1/li71o2zD8qhhEQAAb4RP5A49/tFsTpfugj684S05X7VTDlTWyGY9ntI91tTTLfmgT7ccBmRLwB3eSmV3ue7m7pEPPbvQ/XVpzA5jmysbZJs7JOuxo6ar/sbYwz/OTOjvHzRbM+QxM8Zz6QY5+JE9+z/+8QOptt4MAEgF4RNzjzVeUgVOPZ5yrEdO9bXJ/u4j0qgeeu1Npzvb0+0OOTomEiyvnbgz0UxMNJqOSJf8SjlQpQJ2jXnoyVy6ONwmP0s4dhYAgJlF+ET2Kyy2uzPHBuSaVTAdTuufnoyjwubZVtnVe8Ea+3kpavxnIrfktwM62U2Mm1wdWKWOT31eXzYtGG8n6OiJNXrZqjZpvHwhw0MDMmTpYqkwm1njmyHp1z/1ck+v2GNgEz5SnCwFAHMd4RNZI26MpcXp0k5xPGWqXfN6YlDMWp62UnnSbCVyqfcL61ae9rJLpfL3xYGZmWiUrpIGa9zqUT2pKuoWpM1W0E4pePq6yLxjkTy6zGxm2o1Bual/Jgi4we3PSp3X0k83rsnXesf11bJjpo4NAOYYwieyhF7Ps0kOV6ydmFSkF4GPLDc02XjK2/IX637pK+W1mM+IGvfoKKiRg+73qRCply9q1/VNNvRTLsjP9Az8glXy9xV2l3vmJxqlz57tHpAnosalTk1tvb3Mklb24rMzHLyuyFfn9M/FUveTjVLrrmtZsdTWZCL8Dso3Vvp8XJreqJyYGKQ+f8cb9rJN3gbk2L/as9nr3tkhe7erfaOuhTq+7c/LoY+el1pTAgBIjnU+s9xcWuczpMdSWkEzVnhKa2fGCbfJussTXeIJ36fpZY0GRA6Ur0xtXVFrO4V1M2Okvs5n4nNP+BlFW6W9Sq/nmViiOzk5ZvwOR7GcdTjN02jXpfmV30iHeaY563xOaQ3SyHqd8fTntJU1qHP2PlenvoRuXpf2n/+GdT4BIAW0fCJLhOVkz7vSeKXHCqEOvej8/hSCp3bJWhNU7W+eW1TIOhqOTpDW+2Lqsd5nxoCecJcndEE+cyYmZctEI8fIRfkw7Byct0R3cnJ0tJ2VLqulUAezz2Y+VN04LXve/r2qc8gU2PTtK9uPfB0VPNPW+RvZd+S6+kzzXNOL079tr2Xa2x9dt1vo+DFpVMfXfs6MAXWo4+365Pey702CJwCkipbPLDd3Wj5Ta93MJlO5o5F/zPWM3BPei75PvL5dpwpVCVteAQCYGbR8Auko2iqv6Z77bJpopJlln5KPQb01rQXqAQCYDsInMEV6gXpnTOWpvknuI/+QBMtfksMlpXF3hFqtJ3Gtcsa8Zsei+ACAuYVu9yxHt3uW8JjEEwq3SZ1rIlO2sIcDmCeJ6DGuPa05NcwBADA70PIJpMJZ6F4bC8upK0eyMnhqJy7riVudckodZ+w/W/Qsdz2xqvEswRMA8HDQ8pnlZn/LJwAAmEto+QQAAIBvCJ8AAADwDeEzy9HlDgAAZhPCJwAAAHxD+AQAAIBvCJ8AAADwDeETAAAAviF8AgAAwDcsMp8Dat9okqb15okMSf/NYWn7+W+k44YpAgAAyBG0fOacxVK29HFpeud5qTUlAAAAuYKWz1yzrFJ2/OQHUrd0SNrfPibHaP0EAAA5hJbPXHPjinx5dsg8AQAAyC2EzxwU6h82WwAAALmF8JmDgmWLzBYAAEBuIXzmrGH5lvGeAAAgxxA+AQAA4BvCZ856XJre2yi1y8xTAACAHMBSSzmpWGrfeFbq1y+WMlPS/0mr7Dk+YJ4BAABkJ1o+c5gTPAEAAHIFLZ+5qOZ5adn5uMjN69L886+l4wYtngAAIDfQ8pmD7KWWhqTdur87wRMAAOQOwmfOYqklAACQewifOWuRPMpMdwAAkGMInwAAAPAN4TMHcW93AACQqwifOYh7uwMAgFxF+Mw1yypl+4uLzRMAAIDcwjqfOaD2jSZpWm+eOG6elX1vnpa5dm8nAACQ22j5zDlD0n/urDT/nOAJAAByDy2fAAAA8A0tnwAAAPAN4RMAAAC+IXwCAADAN4RPAAAA+IbwCQAAAN8QPgEAAOAbwicAAAB8Q/gEAACAbwifAAAA8A3hEwAAAL4hfAIAAMA3hE8AAAD4hvAJAAAA3xA+AQAA4BvCJwAAAHxD+AQAAIBvCJ8AAADwDeETAAAAviF8AgAAwDeETwAAAPiG8AkAAADfED4BAADgG8InAAAAfEP4BAAAgG8InwAAAPAN4RMAAAC+IXwCAADAN4RPAAAA+IbwCQAAAN8QPgEAAOAbwicAAAB8Q/gEAACAbwifAAAA8A3hEwAAAL4hfAIAAMA3hE8AAAD4hvAJAAAA3xA+AQAA4BvCJwAAAHxD+AQAAIBv5j21ruqB2c5JFRVB6e0NmWeIKNoq7VU1EjRPI8Y6pfHs53LJPEVuqH2jSZrWmydRrkvzK7+RDvMMAIBsR8snAAAAfEPL55yxVg7X1MtmWj5zkt3ySSsnACD30fIJAAAA3xA+gXQs2yh732uSlo+a5ND2YlMIAAAmQ/jMeqWye8Nbcn7DVlmtnq0uWiuHNzTJ+RpVph9q+3BJqf3WTFN17V7VJO1OXerRvqFBdnvUt22V/frhElPgyZxLTYNsMyVREtS3rci87mF1hb4WTbLbeY/XZ6xaa127aKWyraJBff7E+/TnWO9NUp+jtn6DVC+1t8tefFZ2LLO3AQBAcoTPXFFQLK+rUNVSVS+bCwKmUFHbmyt3ynkVmjJHhURV13lV16uBQNSM+WDBSnlV1RcbMk/0dYoeebu53A7JnorWyJYC9TN8SU7YJRFWiExQ34EqFSArJg/YCT9DPaLHuOoAv1MOlK9Un2+KLGq/QL26xirQp1AfAACYOsJnzlgpm1WoCoU7ZX/3u7KuUz+OyP6+sP2yCk3JWx2noKTWCnChsR5V1xFTV3R9mytjWi9HPpcP9UsFNfJ6guPYVq6XfgrL0b4LpsQoaZCWch2ow3Kqr00aI/W9K41XeqxQGyx/aaJ1M05Anig3n+FxzI0x9a2u2KQCvNqw3jtRl/VeXd9YQCZryOxoOytdN+3t/k8+k2M37G0AAJAc4TOHhPqOSN3lz+XEiCmQW3Kit1mFKxMIAxlq/bzdKo0qlNWdbVV13TKFml3ffqu6YnkyJgxGWj89j2OtPKvz5dhl+W3k+LVS2V2+0to6daVZdvVeiGqlvKSOpU4FQh0wtwQSt0ZuDqy0rs86j2O+FFXfhNBAh+taauq9ur6z6tx73Z/h4cZpef9Nde1faZY9xwdMIQAAmAzhM2eE5WTYOxBdCl+2Qp8UliTu8p6iSGArKpVtJVvlsB5HacaaHrB6/QPyRKH1jgkjF+XkmPoZ2BTfSlmyWjarH6GBi9Fd4E5X/Fin/Oy2XRTn9iU5pX4Ei9ckPr9w2+SB0XCul25NPVyR2hhPAACQGYTP2aSgWJabzelarQOnnoxTtVMOVNZYXf5B91hTT7fkgz6vVkqndbNHPowNiIXF9vjMghppiUz8iX3UW8E1mdBoouTqYeRzqevulFNjAdlcrsd4mnr05C3CKAAAM4rwiXh6DKYOnGZcpB6HqcdRNpqxlHa3ewK3O+TomG5VrJ0YE5pkotFDowLorrPvyjp1TvtVYD41FpaQnrxlwqj3DHkAADBdhM/ZwGk9HBuQa1bBdKyVw5W6lTIsR6/YYyj1OEw9jvJS1FjKRG7Jbwd0Ol0pz5qJR6sDq7wnGmmjA/aQgXCba+JPgsdM3JlJndOJXnWOZ5ulTtfR3aaCqArPgXo5yIx3AAAyjvCZQ+LGWFomJuzEjaf0kmrXvJ4YdNsrbJbKk2YrkUu9X1hjNO1ll0rl74v1LPTYiUZGsnGiM2R1SZJWzZELsssaOqACaGGS5QNYZB4AgLQQPnOGXs/TjEk0JdaC6ht2yqvWWpUe4ymj3Ja/6JAnK+W1mM/wXMS9oEYOut+nQuTqEr0ou6pvsqGfckF+pmfgF6ySv6+wu9wTB+OJcaKvWutrqjqjjscsBp9oYfqpKtoqByvrpSWyoHx066a1iL/V8pt8HCmLzAMAkJ55T62remC2c1JFRVB6e62O21lK3xXIDpgh3R1sBc1YYTna3SwfJFhSyKEXYbfX04yhu7wvT3SJJ3yfptfGHBBrgfZTV96VXQnzmQpxkYlCap/O1qTjPZPWqal6j/a0xp2js5+1DFWKs931ZKrXy82Y1kTGOqUxSTd/7RtN0rTePJEhaX/72Iyu9WnXd12aX/mNdJgyAAByES2fOSMsJ3vMoutWC6bNXnR+8uCpXbLWBLUXbY/QoS4cnSCt98XUY73PjAE94S5P6IJ85kxMSmGika5Tj7c8Gg7HHJ9ZeF7Vm8o5puLSbXuyUeMVPeM9evaUXlhfn2ey4KmxyDwAAOmh5TPrOS2fqbVuZhN9v/cDgdw77mxEyycAYLag5RMzo2irvKZ70RNNNAIAAHMS4RMZp8dUtlfp+7iLnOqbgeWR5qzHpekje4b9xON5qTWvAgCQCwifyIwiFTjNHYn0AvU6eIbCbUkmJAEAgLmIMZ9ZL0fGfJY0yHmzRJE9SejXKnimNvscAADMHYRPAAAA+IZudwAAAPiG8AkAAADfED4BAADgG8InAAAAfEP4BAAAgG8InwAAAPAN4RMAAAC+IXwCAADAN4RPAAAA+IbwCQAAAN8QPgEAAOAbwicAAAB8Q/gEAACAbwifAAAA8A3hEwAAAL4hfAIAAMA3hE8AAAD4hvAJAAAA3xA+AQAA4BvCJwAAAHxD+AQAAIBvCJ8AAADwDeETAAAAviF8AgAAwDeETwAAAPiG8AkAAADfED4BAADgG8InAAAAfEP4BAAAgG8InwAAAPAN4RMAAAC+IXwCAADAN4TPLFdRETRbAAAAuY/wCQAAAN8QPgEAAOAbwicAAAB8Q/gEAACAbwifAAAA8A3hEwAAAL6Z99S6qgdmOyfppYh6e0Pm2ewz288vWxSumS+PbZwnS5bMMyUiY4MPZPD0fem7mI3/icyT8h/lyaNLHsi3vxqXvu9McVYoltrtT0v9hselbKkpkuvS/MpvpMM8AwDMXbR84iHTIWqBbPxp7CNP1qlwVb5mIgzOmDV58tQL86OCp1agnj9aaZ4gZbVvNEjTi+7gCQDABMInstQ8O/y9kCcbfzRfCk1p5s2Tyhfs0Dn21bj86Z/uyWnn8atxufZH6yWkrFgeLbW3uo60SuMrzeZBqycAwEb4RJZ4INdig99XD2RMv7Rkvjw1UwH0ERVy9c/B+3L1iwcyahUa3z2QAfVAGm6eleOdA+YJAAATCJ/ITjr4fTEu5391PxJAH1tjvQIAAHIYE46y3OyfcDQxcebaP42LV1tZ4aY8eep786zWyT/98n5066T2iPqMv50vS5abVkxFTxb69l/V53lMxNGft0J9nvPehK6Ny+k2j/88plSfOT9xjn2eFNfPl0fd+167L1fbPM7LMs+aDLVio3r/ErtEv//bP94X+dsFsnx5kglHU7wumn2tZeIzvT5DXZer6rp4H68e89kkTaVnZd+bp4WpcgCAWLR8IuuN9jjd7yqIWSUTdFja+EMV7lzhSNPjRZf/cIGs2+Q9Ycn93qlItz7r2FWQq1RBdHnsvssTDSuwg+tTL6j3m+Cp6fcv18fgKouV9nG6JPwM9UgUPCOWLpYKswkAgFve35SW/heznZP++q8Xyb/927B5NvvM9vPTAeuv18+XhSrRDP4xQWvaiMj/tcp+z9i1B3JHPbesyZPqLTpEPZDBr+7L1Zb7cv2P9+Ub9RgcnicLV6jQ9Ng8mefeR/k/vQ+s91iPayKBdfPkr3Sr6n8fj+xvPS6bHRxp1eec3zxZsm6+FBQ8kG8/vS8X2yf2+xu1n6jX/2r4voRvm92U4voFEnxUb6n61D7nnX3U5/9VufpMEz7/9/no80v3umh/tWy+/I167V7RPAk+pT5j8IFcO35frnxm7/+N+o4GVdn/idnPbdnGp+XppcPydds1uWHKAABw0PKJHKJCU7HZ1K2CG3XAUvno03G5EjNZaPTiuJz/VHeZq9C30n7f9GSgPh3k/mk8at1Qvd81FYC1goBrv0d017zesLvVr7j3+e6BXPnluHw7aAqiZOa66G52Pfv/tKonetKV+rwEXfZ6pntw+/NSv15t3hySXrsQAIAohE/kpkf0gvDq5+B9+eaiXRTn4n3R+axgRXx3/ZRNuz4z1tI8cxsNu8OdUWy6uq/dn9oC8pm6LtdUSFXBNSXLNsqhj5qk5aMGOajX97x5Xdp/znhPAIA3widyyAMZc9KbE870MkxxC9Q7jzxJMixyanyurzBg/xwL2z9TlqHjnHK9Lv3q8a29CQBAHMInsp/TmqeMTaUVEP64cVr2WAvJt0rzJ0NStvRxafrJRgmalwEAcGOppSzHUkv2rGtrqSX30kePzJd1P5wvBYmWQ0qV8zmJlnFypF3fxPklWhLJOT89xtLp6vY85ygJPnea18XrWKbKWmppPfdyBwB4o+UT2U2FKb0mpzZ4xRWGvtOzrtXP5fOl/BG7aEb5XF9keSlVX2SOlZs6BvfySxF+XxcAAKaI8Ins9Mg8Kd6UZ7fi6efX9Ixv6xXjgfSd1mF0njz6wzyp3KTX0bRfsZn9f5rnHd6mzOf6nBCpPnf5j9RnuuoqXKOvS6Jxm35fFwAApoZu9yw3d7rdzVMPye4AFOmeTsTc0SfhjPFUu92NqdeXXre7xTk28zSKqmdwcJ4sSXCHo3Svy/S73Ytlx3sNUifc4QgA4I2WT2SpB9atIK+pYHU+4a0nRUa/GJfT6j3fXjPd1A4dzlSA+tMvkwTPNPha33f35bypa8JEPd94LdFk+H1dAABIFS2fWW72t3xidqHlEwCQHC2fADJv6QbZXsOoUgBAPMIngAwakC/PDllb1TsbpMW685F+PC+1VikAYK4jfALIqNDxY7Lvk+vSf9MUAADgwpjPLMeYTwAAMJvQ8gkAAADfED4BAADgG8InHio9rAAAAMwdhE8AAAD4hvAJAAAA3xA+AQAA4BvCJwAAAHxD+AQAAIBvCJ8AAADwDXc4ynKcH/AQBYrk0MuFUmaeRgyPyr7WEeE3FwCmjvCZ5Tg/INYC2dGwWOoWqU13CFyxUFq25Ost6Tp5W96/am1GBJ9ZIger8syzaP3D43Lz3B05fvVedKAkfM6A9L4/ALMH3e4ActdwTFi0jMs3g2YzRWWL8qR6y2I52FAkUbc9CI/Inl/clsbI4450mZcwIRjIlx3PLZGWH5dIy3N2gExJhr4/ALmF8AlgTunvHnKFSf0Ykn0nR6Vfv7ioUHY9s8B6HyZX+5wKmypwHnx5odQFvVuVASAW4RNA5izbKHvfa5KWj5rk0PZiU5hp9+TbYbPpNjhuB8gpuyehqyOy52M7gJYF86NbP5FQb9cdaT5pHt3jpnQymf7+AOQawicwo0pl94a35PyGrbLaPN+2qknaa1SZebSvcl5LoGit7I7dZ0OD7C4pNW+YsG2Vfr1Btul61T72+5vkcIl+1avMQ4L6thWZ15Oord8g1Uvt7bIXn5Udy+ztmaLHasZT4SZsNqcifE9u6p+L8qTCKsgQ0yV9SHdJm8ehhoWyY0V8C6vTkrh3hSnwpMdM6vctlFpTEiVBfbUB87oHPR625cdLZIfzHq/PeC4+lIfCd6XjqnkM3TOlqcvo9wcgZxA+AT8UFMtyFeoOb9gpBwKBqD/iwUCNtETCqZsJi1X18mrsPgUr5dXKnQkCZLG8purR+9gCsrl8q/qsmLJKHVKjra5IXN+BKhVCK+ID78PQa0LLTXfgccKjeq3XKnjYVEjU4yBNl7R70lLZonyp27I4LmR2dNmtr9XrY8aeuqlg+LSerBNSgc8uibBCZIL6ml5WATKFIQUJP0M9MjXBKje+PwAzhfAJ+EKHt3rZXBCWo1eOyLrOd61H45Ue++WCGnk9NkiW1FohMDTWI/u7J/ZZ13lE9vfZTUNeAVIHy6Cup9t+79ExVaQ+/9VATJk6pmfddZY0SEu5DqdhOdXXJo2R+uzj1MEjWP6S7E7SAtrRdla6rAQh0v/JZ3Lshr2daSHPVrZx+carOzdVK/KlWv/MVPhZUWgFuP7hu9L8sXuc6VCki7p6S0zrZXhE2vSFXlQo2xO0ftZW69n349LeddeUGCsWmtn849LVfUf2uca17jt51x5SULVwonUzTp48Vm0+w+OY98XWNw0z8v0ByBmET8AvOkR2NssHt2+ZApFLt1tlv+liXFYQ06qoXmtUYbHubKucGJnYR+SWnOhtNvsVy5MeYTDU92v5YERv3ZLfDtgVuMv+PGoVuZTK7vKV1tapK82yq/eCXLKe2fRx1llBOSBbAklaP2+clvffbJbGV5plz/EBUzhTEsyK9pxBncwCCargdsgs89MfupuZFr6rKgB+fFv2tN6RjrA7bN2TjjOD0mxVskAejQmDkdbPx71mjefL93STqAqHX0Z1TS+QHeudZYoG5f0z0ecQUseyRwVQHTCffjJx62d1MN+ekOVxzKGo+jIhU98fgFxD+AR8EZajPSpEmmdu10YT/1W/ZIVFpahUtpVslcN6LOYGe9zmASu0BOSJQusdUW6MucOqzV0WV2fRGtlSoH6OdcrPbttFcW5fklPqR7B4TfIxqn5QYarxF4NyLOo07smx1tvS+LvkLXRlVYsj4xjtx2I5qIKn7lbuD6mQdsarVS49kcAWWCC1K4pkrx5H2WAvSdRk9avnyWNLrHdMCN+Vr3ULYLAovpXStM7GBWSnK354VI4nWh/z6l1rmaikE6oyfP4JTeP7A5D7CJ9AFlutA6eesFS1Uw5U1shmPRazIGG/afoKi+1AUlAjLa6JRtGPetlsvXn20V3j7SeHZE+Gg09QB049OejlxdK0pVCq9TjKRZMtSaRC2DmvVkqndfOutMUGxCVmfOaiQjkYFazdj4X2sIIkvCcAAUBmET6BbKXHYOrAabVI9ljjMPXYz0Yz/tPprsfUxK/zaXeNH7ua4RY/PQZTB06rRfKuNQ5Tj6PcZ8ZS2t3uCVwdlfZh3UpbODEmNMlEIwDIJYRPICutlcOVegymmaB0ttUah6nHfl6KGv+ZIaMDdjduuC0yySjh4+znUeNB4SVf9lpjSMetFlU9hlKPw9TjKENRYykTuSdfhnQrZL58z0w8Cj6phwZ4TDTSnDUyQ7o7OzpYxz24LSiAh4zwCWSzscvyW9cEpQml8qTZyoiRi3JSz4APbEo6m31SviwynwVSXQtUTwzybFFdII+arURCZ0asMZr2sksL5PtBexZ69EQjI9k4UQDIMoRPIJsV1MjBirWuCT6lsrqkQdqtdTxNUUbckg/67Nnsr1Y1yWFdZ1QILZVtFapeawH7xPxeZN5/znJA+VL/jGviTiDfexF363ad7gk+ZmZ9w2KpSzjrx3FXjuslmRbly/fVZ+gu98Qz8SfGida9vET26jqjjmeB1D6j6k20MD0A+IjwCWSlC/Izs5ZnsLzeNQlop7RUrlRhpkf2W2Exg/TSTladelF6VWeVe7LRTjlQruodE8+lneYOpzvcXjMzMrnn5YXSVO1eGskERyXqfZGZ9XeluXvyyU1266cKlFV6bU+PiUZuemknq848qdZ1vuzUadfbVKXqVcE5dmmndDl3Y4o8zFJVElwYXf6c+7oAAOETyFqXepvtxd2tBeGNsZ7IGNAT7vIM0XWu626To+FwdAvbmFl4XtVrrxXqza9F5h+m0JlBFfLsRdsj9Gz563bYdFjv04u7Wy2lhplVb62jOWTKkrorXzlfRAoTjXSdjR/fkXYVkKOPzyw8rydWMVENwEM276l1VQ/Mdk6qqAhKb+/sHT7P+QFzm25hbAqOS/vHsetiAkBuouUTALJVoEjq9djQRBONACAHET4BIAvpBeoPvazHeop0nWN5JACzB+ETALJFQAVOM1FHL1Dv3PLz/US3zASAHET4BIBs4dwmU9OThGbglp8A8LAx4SjLcX4AAGA2oeUTAAAAviF8AgAAwDeETwAAAPiG8AkAAADfED4BAADgG8InAAAAfEP4BAAAgG8InwAAAPANi8xnOc4PD0+p7N6wU14tEAn1tUld7wVTPlP8rg/eFsiOhsVSt0ikv/uO7DmTzh2WnM8Yl/aPB+VY2BRPKsF++raj5j73UYZHZV/rbL3vfSa+hwRm7Hqm+71jrqHlE4C3ojWyRQVBLVi+WrbZm0no8PiWnN+wVVabkimZcn2zlf4Dbt/fvaWhSIKmVFYstMvUY+8KU+ZI9polX/aa11ueyzdlCQTy5WkVeLSyqnyptTeRMtf3l+zh/m69zLrvIY3fa8xahE8A3kYuyskxezPUd0lO2Jszx+/6csHwPY9WqHH5ZtBseqh+3CNcrsiXarM5qfBd+XrY3uzvvisd9ubDFR6RPb+4LY2Rxx3pMi/NWjP5PTzs65nG7zVmF8IngARuyQdn35V1ne/61AXud32zVDC+lazWK5AmdE+OtdqhJKNdvXOO7np2B7yYx6Td23wPmL0InwAypESeMN3ms9ayjbL3vSZp+ahJDm0vNoWZdk++NS1eUQbHpd9sJtIV0iElX74X1X2pnus+TvXarG8tRBZL//casw8TjrIc55frzCQa6ZTGs5+LFK2V11duks0FAfvlsbCc6vu17Lp9y37uYXXJVnm9vEbtYwokLKHwF7Lv8gW5ZErilcq2ilp5rXilBGP361P7jZiiiInJPl5CfUekrtfjGEsapL3cXUcS4TZZp47ZlmZ9LlO7LtHfwyV9fVa9JK8FApGxZ6Fwp9pXv5ZY7RtN0rTePJEhaX/7mBy7YZ5mUO1zJdKkDqy/e0j2nLlnF0YmidyV5l/cie6G1ePmtuSr94/KzapCqQ7dkcbfmdYy81qXek1iX3NNavESVb+nBRJcUSi71udLmfmM/tCotHWpX7BqfQ6JJp6ku59Dj2FdKNVTmSATyJcd1UXydDAvMtGmf/iutP1BXcuMToxJZ9LNdL8HZVrnN9Xrmd73N+Xfa8xatHwCfigoltdXNUlLVf1E8NTU9ubKnXJ+1VpT4GZP4GmpdAcsTQWmQL201DTJ7iJTFGWtHFZB60BcKDT7VTXJ4YpSUzZ9KQXPjEr3uijqe1iu/gFgXR9X8NSCgRppSXeyVIb1Do9bP28OuQJH+J7c1D/Va71WgZd78o1uXXJ1vQcXL1D/Oy7fDIkstYsyxA5MB1WwdQKIVhYslKaXl0h9giCV/n7pCz6zRFpeXih1rmCmlS3KV3WWyKFn9DXKXf6eX/rfX/q/15htCJ+AL1bKZhV2dOva/m57XOO6ziOyv880DajQdLjE3nSsrnjJtAyG5dSVI2Yf9ehuk6PWxJyAvFrVEDcrfHWFbllVG2M9rrrs+hqv9EhoLCDL7Le6TIy3dD8aneNL5Har6/1tckqXjXVKo+szIo9Iq6eWZn1KutfFtlIOWP8ACMtR1776ulgKauT1mO/BraPtrHRZfylF+j/5bEZaPbWQ+49zhAqQXt2WUcbly5D+A+90vS+Q76tAIsN35UvPyRwT4wrdj33ddkhIpvY5p6VuXLpODk3s+/Ed6RpWIShBCEl3v7StWCgHq9Q10PV135F9pj6rzpN3rS7fsqqFssP1b0L/pf89+H1+0/n+0v+9xmxD+AR8YnUlX/5cTkS6vG/Jid7mSODaHHC1fhZtlYPl+q+FCkndzdHd8iMXVHA7YoLWSnktQStmaKDDVZd2Sy6psFinQt9kXdpZKwPXxQrlnc3ygWtffV32m9y7rCBJq/CN0/L+m+o7e6VZ9hwfMIUzJcHsX8+ZwrayRXkSOjNije20Zr2b5Xq6zmV4LcxAkdRbzcZ29+r7VydCRSh8V95vHZJ2r0CR7n5pWyA71tuTrbpOqvrO3I26DqGrd2SPCmgiefL0k5lu/cyTupfN0kKxj8mWu0qZz+eXke9v6r/XmH0In4AvwnIy7B34LoUv2/+nW1gy0eVbWGx3CYe/kA+iAqTjlnzQZ7fWBYvXRHUVO58XLH9JDlesldWJuqBz0TSui02F1p5Wz2Wcro1O3urqGxUaGn8RO2bOtI5Fxmsmcle+0r8AixZI7ZP51li6r66q50uiu2Snxfms0EiKYxqNdPdLl7NW5vCoHNfXwMtVeyJWWTA/ahhGTvD7/Kb7/U3r9xqzCeETyBZ6PKLZXK22tdDobeunp9EBO7S69rOMfC513Z1yaiwgm8v1GM+35HyNXvxdj/XM7TA6resyh3RcV3/IFxVKk+6ODWV+rU57HKme0JJCt7BLuvulzQlL6loc9GqBtB4LU18DdUp06+BEF3jUI1NBy+fz8/37w6xF+ARmIxVAd+kxld16XGmPCqJhCenJTSaMtq9SIdS8FbOQae3SunQQBYAsQvgEHjanK3lsQK5ZBROChUlmvyTZL2JEjyttVUG0WerMpJxTY+pzA/VyMIMz3qP40OI47esy692Vr7rHpX941O5ynyF6jGk60t1vypw1JPXyUl4tkO5HLt4j/iGdn2/fH2YtwifgkycKzUaUUtldvtLaCg1cjKwxGRkHGtiUYNkg7/201SVJWjVHLsguZ0xksgA3LcXy5Ax17U/numSEL4vMZ0bHmUHZowLHTKybGPqzPYva625KlkCePOYx6znd/RJSIajCbHpyblEZLHrIs9lnSKbPb5LrmfHvD3MW4RPwRUA2V5oxl6ZELzg/sdB6j3zonoE+8rl8aA3K18sGqf1KXK2UyfbTs8Er7bUura71oujWzdV6jctKE86SjZtMywX5zDnmlVtlmzscquPY5j6HdKV7XTKktn6DVJvFMstefFZ2xK9ZNTc4oUfypalhodS6gk9wxUI59HKCcYbp7hfHWZ4nX+qfcU2kCahQFBXC7smxc3rYgZ55vkT26vdGvb5Aap9R9f5YHYspyS2ZOr8Ur2fGvj/MddzhKMtxfrlOL4huB6KQ7u62glEse9mg+NnbE/t6894v/s4/HvRanNadfpJbXdEkLeWBlO44ZFHht72qZuKPVxS9xJH3THNHavWlc12cfRJd69Tq9usOR1Om/vDruxhZ3a+JJrOk8h5DL1qu145MemedyJ1pPAzfla7hfKn2utNNuvvFcI4xjsf5JXyvQ9Xb/oc7GZqBby/CPrU7HHlL6XtQMnF+KV/PDH1/mNto+QR8EZaTPfZi5jqEOuxF573DkLMQe+MVPXPdFFn0bSTbpFGvVemx36Xb9mQje7/o//cPjfVYi6unEjzTYs201+NKvertSBo8U5fedckEvxaZzwnhEdnz8R1ptxa1d5iFzlvvyPFEM6LT3S9G6Myg7Os23cAOHbKux++v39to6ox+/0S9uRyUMnF+KV/PDH1/mNto+cxynF+um7zFDQCAuYSWTwAAAPiG8AkAAADfED4BAADgG8InAAAAfEP4BGaUPTN73QzOwAYAIJcQPgEAAOAbwicAAAB8Q/gEAACAbwifAAAA8A3hEwAAAL4hfAIAAMA3hE8AAAD4hvAJAAAA38x7al3VA7OdkyoqgtLbGzLPZh/Ob44q2irtVTUSNE8jxjql8ezncsk8zU6lsnvDTnm1QCTU1yZ1vRdMOQAAtHwCyLSiNbJFBU8tWL5attmbc1ix7HivSVre2xj/jwkAmIMIn0A2Gvlc6jr1bTmdR5ucMi9lvZGLcnLM3gz1XZIT9iYAABbCJ4AMc+5n/y5d7gCAOIRPAHPPso2yV3eFf9Qkh7YXm8KZskQeW2o2AQBMOMp2nF+uM5NvxJ4oJEVr5fWVm2RzQcB+eSwsp/p+Lbtu37KfJ7RWDtfUy+apTDhSde0u3yRbAoHIWMPQWI+c7OuQD2Lq27bqLTmgDunUlXfVsZjCOM5Eoh7Z39lqutMnJhd5CfUdkbper3OLvi6X1PNtq16S19zHGu6UfZcTn+vqkgY5WL5Sggnq1hLVX/tGkzStN09kSNrfPibHbpinmVDzvBz6h8elLJXQee730vgvV8wTW3D7Djn4okwc17JK2VFfLU+vXyxl9lukX+13WO1n/dejwvShdzZI2c2zsu/N03ZZFD3utEHqliY5V686bl6Xtp//RjoyeW0AzHm0fAJ+KCiW11c1SUuVCpBO8NTU9ubKnXJ+1VpTkAkq2Km6zqu6XnWFOS1YsFJeVfUdLjEFxom+TiuwbC7fKqvtonjORKJwBsdxquuyXIXkwyqIHog91kCNtGzwPp5t+lpWJg+eD1tKwTMFOoi2vPMDqXOFQk1vZ+qfbQnrWPq4NL3jR+swgLmEls8sx/nluuiWQd2a92Hf53JiRD8rlW0VL8mBcjuMJm91nELLZ0mDnFfBTLdyftjToepyWv7c9blbL22TtX7ar4flaHezfGAdf2KrK1Q4VPVM2vIZCY/qc6/8OtIiq1s1dbjU4o7HnF/8PlvlYKVenir+3OLobvefbJBqFRD7P2mVPccHzAszoVL2fvQDqU7YKhnPbvlcLF3nrkv1+sdFbl6X5p9/LR03nOMsluCyAQk5LZLTafmseV5adqo6ZEi6PumS48dNa6oSVK/tUq+VzUTrMIA5i5ZPwCdWELvsBE/tlpzobZbGvrD1bHMgQ62ft1ulsftdqTurAlgkeGp2ffut6orlySKrMCLS+ul5HGvlWZ1Zxy7LbycJnlOmQvL+ThVoXUMBLqlzsI9T5aqCUnvDWF1gt8KduhK7z+dSd6VHba2UZ2NaduPcOC3vv6mu/SvNMxw8p0cHTx2OG9/UXd/u43QFz2lRofQfdPAU6TpyTN53BU8t1Pkb2XPkutpaLE8/Q+sngMwgfAK+CMvJsDsITrgUvmz/wS8sSdzlPUWXnIBYVCrbSrbK4VVN0r6hSc7X2K2bIgF5otB6xwRniaTAJtkdE0ylZLVsVj9CAxczvMB9WI72eLdSXhs16TMNsYE1Z537/cyG42XL5Wk9PODmWTneaRfF6fyzdKkfZRuWRw2LAIB0ET6BbKHHP5rN6dJd0Ic3vCXnq3bKgcoa2azHU7rHmnq6JR/06ZbDgGwJuMNbqewu193cPfKhZxe6vy6N2WFsc2WDbHOHZD121HTV3xh7+MeZCf39g2Zrhjxmxngu3SAHP7Jn/8c/fiDV1psBIDMIn8BsY42XVIFTj6cc65FTfW2yv/uINKqHXnvT6c72dLtDjo6JBMtrJ+5MNBMTjaYj0iW/Ug5UqYBdYx56MpcuDrfJzxKOnQUAPGyET+BhKyy2uzPHBuSaVTAdTuufnoyjwubZVtnVe8Ea+3kpavxnIrfktwM62U2Mm1wdWKWOT31eXzYtGG8n6OiJNXrZqjZpvHwhw0MDMmTpYqkwm1njmyHp1z/1ck+v2GNgEz5SnCwFAJMhfAI+iRtjaXG6tFMcT5lq17yeGBSzlqetVJ40W4lc6v3CupWnvexSqfx9cWBmJhqlq6TBGrd6VE+qiroFabMVtFMKnr4uMu9YJI8uM5uZdmNQbuqfCQJucPuzUue19NONa/K13nF9teyYqWMDgBiET8AXej3PJjlcsXZiUpFeBD6y3NBk4ylvy1+s+6WvlNdiPiNq3KOjoEYOut+nQqRevqhd1zfZ0E+5ID/TM/ALVsnfV9hd7pmfaJQ+e7Z7QJ6IGpc6NbX19jJLWtmLz85w8LoiX53TPxdL3U82Sq27rmXFUluTifA7KN9Y6fNxaXqjcmJikPr8HW/YyzZ5G5Bj/2rPZq97Z4fs3a72jboW6vi2Py+HPnpeak0JAEwX63xmOc4v102sZxnSYymtoBkrPKW1M+OE22Td5Yku8YTv0/SyRgMiB8pXprauqLWdwrqZMVJf5zPxuSf8jKKt0l6l1/NMLNGdnBwzfoejWM46nOZptOvS/MpvpMM805x1Pqe0Bmlkvc54+nPayhrUOXufq1NfQjevS/vPf8M6nwAygpZPwBdhOdnzrjRe6bFCqEMvOr8/heCpXbLWBFX7m+cWFbKOhqMTpPW+mHqs95kxoCfc5QldkM+ciUnZMtHIMXJRPgw7B+ct0Z2cHB1tZ6XLainUweyzmQ9VN07Lnrd/r+ocMgU2ffvK9iNfRwXPtHX+RvYdua4+0zzX9OL0b9trmfb2R9ftFjp+TBrV8bWfM2NAHep4uz75vex7k+AJIHNo+cxynF+um7yFL1tN5Y5G/jHXM3JPeC/6PvH6dp0qVCVseQUAPCy0fAKIV7RVXtM999k00Ugzyz4lH4N6a1oL1AMAZhbhE0AUvUC9M6byVN8k95F/SILlL8nhktK4O0Kt1pO4VjljXrNjUXwAQDS63bMc55frcqTb3WMSTyjcJnWuiUzZwh4OYJ4kose49rTm1DAHAJgraPkEMLHQvTYWllNXjmRl8NROXNYTtzrllDrO2H+26FnuemJV41mCJwBkK1o+sxznBwAAZhNaPgEAAOAbwicAAAB8Q/jEQ0WXOwAAcwvhEwAAAL4hfAIAAMA3hE8AAAD4hvAJAAAA3xA+AQAA4BsWmc9yc2ER9to3mqRpvXkiQ9J/c1jafv4b6bhhigAAwKxByyeyzGIpW/q4NL3zvNSaEgAAMHsQPvHQdfxLszS+Yh5v/17ab+rSRfLoMutlAAAwixA+kV1uXJEvzw6ZJwAAYLYhfCLrhPqHzRYAAJhtCJ/IOsGyRWYLAADMNoRPZKlh+ZbZ7gAAzDqETwAAAPiG8Iks9bg0vbdRapnxDgDArJL3N6Wl/8Vs56S//utF8m//NnsnqMz28/MyfPGWfLesTB5d8YRs3fK0/If6p+Vv/+q6/PbiqHkHAADIVbR8ImuVmZ8AAGD2IHwi+9Q8LU3rF4vcvC7Nb7dai8/vOT5gXgQAALmM8ImsYy+1NCTt1v3dCZ0AAMwmhE9kqakutVQpe99rkpaPmuTQG5WmDAAAZBvCJ7LU1O7tHtxeLdVL7e2y9dWyg1nyAABkJcInZqHF8vQzxWYbAABkE8Insk4693YPHe+SrpvmCQAAyFqET2Sd9O7tfkXef7NZGo9cN88BAEA2InwiuyyrlO0vLjZPps6ZKf/1GWbJAwCQjQifeOhq37BnqVuPd34g1brw5nX5ckqz3ZVlG2WXDq7nuuTYVPcFAAC+IHwiywxJ/7mz0vzz0xIyJZMrluD25+XQOxukTC9M/y9XTDkAAMg2855aV/XAbOekioqg9PamHlNyzWw/v8yolL0f/UCWnvu9HFbBk6sFAED2InxmOcInAACYTeh2BwAAgG8InwAAAPAN4RMAAAC+IXwCAADAN4RPAAAA+IbwCQAAAN8QPgEAAOAbwicAAAB8wyLzWY5F5rPZPCn/UZ48ukRk7KtxOf+F939KhZvy5KnvzUv6nuxULLXbn5b6DY9L2VJTJNel+ZXfSId5BgDAVNHyiaxRuGa+VKowt/GnCyKPdep58SPmDQnpEKje/6P5UmhKfPHIPFmigqdW8L35KqrNLrVvNEjTi+7gCQDA9BE+kRWs1sEX5qswN8+U2ArU8+U/VCG0fp6/wTIV3z2QwUF7c+yr+zJgb84SxfJoqb3VdaRVGl9pNg9aPQEA00P4xMO3xu6WFlFh7tNxOf1P9yKPP3163wp4BcvnS2DSFlC/PZC+X9rHmVvd6VNw86wc75xdsRoA8HARPvHQFVfarZ269fDKxegQN3pRlf1yXP70q3Hp+84Ueigw3d8AACC7MeEoy82FCUfF9Qtk+fLkk3birMmTdRvnpRY6r43L6bboz7UnAYl864TaR+ZJ+d/OlyXL1Wfab5Extd9Vtd+o9WxicpGX6Uw4Kq7PU+evAriq70+R+ly8jm3wgXz7r+MykCCQT/384tW+0SRNpWdl35unhSlvAIBMoeUTD93AFTuQWZN2ptC1nqnWTh3UNv5QBUtXMNP0dqJglim67mTBM+GxOWNhN0WPkfUyrfNbulgqzCYAAJlAy2eWmytLLTmtnxbdqnf6vvTFdMEnNk8qf5onSwbvy59+eT+lwGi3DM6TwWsPrNZAXee1f70vA985dc6TwkdUGEzS1a85n5NOy6dTLomOe40KjS/ocPlABr+6L9+ofZ33FKrXVqjXCtRrkdZNl0ycn9XyuZ6llQAAmUXLJ7LCQNs9+dNXD2RMP1kyTx59QS+5lCeVm2Z2lrsOZjoUnv6l7sJ2h8fJg+d0TBo8dTf/Rh081Vs+HZcrruCpjV5UQfZTfbzzZMlK+31e0ju/Ygluf17q16vNm0PSaxcCAJARhE9kjdEvVKByzXC3gtX3VEjTIXRN4oA1LdcSt1jOlIng+UCuJWqpddYQVeH0m4t2UZyL6jqpHwUrkgT0qZzfso1y6KMmafmoQQ7q9T1vXpf2nzPeEwCQWYRPZB17hvs9Of2rcfn2mmnde0EHUPv1TBoLmw2f6O5yK3haolszoxSb8ZlL5qvwPbHofvQjTyYb9jqd8+tXj2/tTQAAMobwiez13QPpaxu3uuO1JRt9voNRpq1QQVKP4Ry8L9f0OelgWT9DLbrpuHFa9lgLybdK8ydDUrb0cWn6yUYJmpcBAMgEwiey3miPGQs6mSVZeBckFz1D3RnjOfDFuFy7pgqXJ2jRHTDnfC160X3PR4qTrFI3IB3Hj0nzObXJbHcAQIYRPvHQ6XUuk47pdLqgU1CQdXdBcomZXDTQNm6N2dRDCspjj/s7c+vO5fPjXwMAIIcRPvFwPTLfWn9SB7B1P8qT4keiQ6geI7nOWm5IZbfTiVr4VFDTrYgyTx79h5i1QtXnFc/UZKUpGrsaO8bzgVwxM9b1cUe32j6QvtPmtR+aWf9RIVSd1yZ1bX6qrpkpAQAgFxA+8XB9d1/O/8rcv91aOF0vsTQxqUaPkdStnvpuPFcSzfpWBv543yzTNN9afD3yGerzlr+gAqn1rix00Yxp9Rr/6bymJ1zpWf/u81Khc/n31LXR121GWkaL5dFS9YOllgAAGUb4xMOnAqh1//ZPH8iY7mp20beRvParcTkfc3vMOFaIHVchNvp91m0oP70vA+Z5Nhr94r58a3Wxxw8/0MtPObP+o8a9qvMa/EpdM3Xdkt3zHgCAbMMdjrLcXLnDEbJNsex4r0HqhHu7AwAyi5ZPAIkt3SDbaxhVCgDIHMInAA8D8uXZIWuremeDtFh3PtKP56XWKgUAID2ETwCeQsePyb5Prkv/TVMAAEAGMOYzyzHmEwAAzCa0fAIAAMA3hE8AAAD4hvCJh0oPKwAAAHMH4RMAAAC+IXwCAADAN4RPAAAA+IbwCQAAAN8QPgEAAOAbwicAAAB8wx2OshznBzxEgSI59HKhlJmnEcOjsq91RPjNBYCpI3xmOc4PiLVAdjQslrpFatMdAlcslJYt+XpLuk7elvevWpsRwWeWyMGqPPMsWv/wuNw8d0eOX70XHSgJnzMgve8PwOxBtzuA3DUcExYt4/LNoNlMUdmiPKneslgONhRJ1G0PwiOy5xe3pTHyuCNd5iVoC6T2uSVy6Mcl0uI8GpbI3hULzOuTyND3ByC3ED4BzCn93UOuMKkfQ7Lv5Kj06xcXFcquZ1IMTnNdIF/2NiyWpmBedMuwCfItz9mtmAAQi/AJIHOWbZS97zVJy0dNcmh7sSnMtHvy7bDZdBsctwPklN2T0NUR2fOxHUDLgvnRrZ+IZw1HWCjVi8alq/uO7HOF+X0n79rfQ3Ch7F1hvTtGpr8/ALmG8AnMqFLZveEtOb9hq6w2z7etapL2GlVmHu2rnNcSKForu2P32dAgu0tKzRsmbFulX2+QbbpetY/9/iY5XKJf9SrzkKC+bUXm9SRq6zdI9VJ7u+zFZ2XHMnt7puixmvFUuAmbzakI35Ob+ueiPKmwCjIkkC87YrqmDzUslB0eXdO1z9mve4c2hx4zqd+3UGpNSZQE9dUGzOse9HjYlh8vkR3Oe7w+4zlXKA+PyOHuu9L+8aC8f+ZuVNd56Ood2aMCqFb9ePLWz4x+fwByBuET8ENBsSxXoe7whp1yIBCIalkLBmqkJRJO3UxYrKqXV2P3KVgpr1buTBAgi+U1VY/exxaQzeVb1WfFlFXqkBptdUXi+g5UqRBaER94H4ZeE1puDt2zflqc8Khe67UKHjYVElWAa3l5odTFdE2XLcqXui2L40JmR5fd+lq9PmbsqZsKhk/ryTqhu9Jhl0RYITJBfU0vqwCZwpCChJ+hHlEh88wdOZYoJE7Sipkb3x+AmUL4BHyhw1u9bC4Iy9ErR2Rd57vWo/FKj/1yQY28HhskS2qtEBga65H93RP7rOs8Ivv77L/6XgFSB8ugrqfbfu/RMVWkPv/VQEyZOqZn3XWWNEhLuQ6nYTnV1yaNkfrs49TBI1j+kuxO0gLa0XZWuqwEIdL/yWdy7Ia9nWkhd2iJGJdvvLpzU7UiX6r1z0yFnxWFVoDrH74rzR+7x5kOSXO3Hb6qt8S0XoZHpE1f6EWFsj1B62dttZ59Py7tXXbrYsSKhWY2f+Ku8LKqhROtm3Hy5LFq8xkex7wvtr5kltjB1btlc4a+PwA5g/AJ+EWHyM5m+eD2LVMgcul2q+w3rUfLCmJaFdVrjSos1p1tlRMjE/uI3JITvc1mv2J50iMMhvp+LR+M6K1b8tsBuwJ32Z9HrSKXUtldvtLaOnWlWXb1XpBL1jObPs46KygHZEsgSevnjdPy/pvN0vhKs+w5PmAKZ0qCWdGeM6iTWSBBFdwOmWV++kPR3chpu6oC4Me3ZU/rHekIu8PWPek4MyjNViUL5NGYMBhp/fTsss6X7+kmURUOv4xqdVwgO9Y7yxQl6wrPk6efTNz6WR3MtydkeRxzKKq+ZJxjuSttZ7xCpiNT3x+AXEP4BHwRlqM9KkSaZ27XRhP/Vb9khUWlqFS2lWyVw3os5gZ73OYBK7QE5IlC6x1Rboy5w6rNXRZXZ9Ea2VKgfo51ys9u20Vxbl+SU+pHsHhN8jGqflBhqvEXgzHdvvfkWOttafxd8ha6sqrFkXGM9mOxHFTB02qpC6mQljQwTU0ksAUWSO2KItmrx1E26PGVJdJk9avnyWNLrHdMCN+Vr3ULYLAovpXStM7GBWSnK354VI4nWh/z6l1rmaikE6oycP61z9lreHadVAHWlMWZxvcHIPcRPoEstloHTj1hqWqnHKiskc16LGZBwn7T9BUW24GkoEZaXBONoh/1stl68+yju8bbTw7JngwHn6AOnHpy0MuLpWlLoVTrcZSLvBe6n6BC2DmvVsokLYqmm1t31x+MCtbux0J7WEESibrJU6XHi+pQrUM8i8QDSITwCWQrPQZTB06rRbLHGoepx342mvGfTnc9piZ+nU+7a/zY1cy1eFr0GEwdOK0WybvWOEw9jnKfGUtpd7sncHVU2od1K23hxJjQJBONskHkDlK69ZTWSwBJED6BrLRWDlfqMZhmgtLZVmscph77eSlq/GeGjA7Y3bjhtsgko4SPs59HjQeFl3zZa40hHbdaVPUYSj0OU4+jDEWNpUzknnwZ0q2Q+fI9M/Eo+KQeGuAx0UhzZper4BcbrOMeGb8tqH2XIx08dYsn3eYAJkP4BLLZ2GX5rWuC0oRSedJsZcTIRTmpZ8AHNiWdzT4pXxaZzwKprgWqJwZ5tqgukEfNViKhMyPWGE172aUF8v2gPQs9eqKRkWyc6IzSa47adznSLcq0eAJIBeETyGYFNXKwYq1rgk+prC5pkHZrHU9TlBG35IM+ezb7q1VNcljXGRVCS2VbharXWsA+Mb8XmfefsxxQvtQ/45q4E8j3XsTdul2ne4KPmVmvAltdwlk/jrtyXC/JtChfvq8+Q3e5J56JPzFOtO7lJbJX1xl1PAuk9hlVb6KF6dOhzlnfXrNO3+VIj5fN4EQtALMb4RPIShfkZ2Ytz2B5vWsS0E5pqVypwkyP7LfCYgbppZ2sOvWi9KrOKvdko51yoFzVOyaeSzvNHU53uL1mZmRyz8sLpanavTSSCY5K1PsiM+vvSnP35K2EduunCpRVem3PSZYu0ks7WXXmSbWu82WnTrvepipVrwrOsUs7pSVye039xNzLPVJX9COVhe0BzC2ETyBLXeptthd3txaEN8Z6ImNAT7jLM0TXua67TY6Gw9EtbGNm4XlVr71WqDe/Fpl/mEJnBlXIM/cvd+jZ8tftsOmw3qcXd7daSg0zq95aR3PIlCV1V75yvogUJhrpOhs/viPtKiBHH59ZeF5PrMrERDVndj0ApGHeU+uqHpjtnFRREZTe3swOn88mnB8wt+n7vTcFx637qGckOALAQ0bLJwBkq0CR1OuxoYkmGgFADiJ8AkAW0gvUH3pZj/UU6TqX6eWRAODhIXwCQLbQE3nMRB29QL1zy0/uFgRgNiF8AkC2cE/k0ZOEZuCWnwDwsDHhKMtxfgAAYDah5RMAAAC+IXwCAADAN4RPAAAA+IbwCQAAAN8QPgEAAOAbwicAAAB8Q/gEAACAbwifAAAA8A2LzGc5zg8PT6ns3rBTXi0QCfW1SV3vBVM+U/yuD94WyI6GxVK3SKS/+47sOZPOHZaczxiX9o8H5VjYFE8qwX76tqPmPvdRhkdlX+tsve99Jr6HBGbseqb7vWOuoeUTgLeiNbJFBUEtWL5attmbSejw+Jac37BVVpuSKZlyfbOV/gNu39+9paFIgqZUViy0y9Rj7wpT5kj2miVf9prXW57LN2UJBPLlaRV4tLKqfKm1N5Ey1/eX7OH+br3Muu8hjd9rzFqETwDeRi7KyTF7M9R3SU7YmzPH7/pywfA9j1aocflm0Gx6qH7cI1yuyJdqszmp8F35etje7O++Kx325sMVHpE9v7gtjZHHHekyL81aM/k9POzrmcbvNWYXwieABG7JB2fflXWd7/rUBe53fbNUML6VrNYrkCZ0T4612qEko129c47uenYHvJjHpN3bfA+YvQifADKkRJ4w3eaz1rKNsve9Jmn5qEkObS82hZl2T741LV5RBsel32wm0hXSISVfvhfVfame6z5O9dqsby1EFkv/9xqzDxOOshznl+vMJBrplMazn4sUrZXXV26SzQUB++WxsJzq+7Xsun3Lfu5hdclWeb28Ru1jCiQsofAXsu/yBblkSuKVyraKWnmteKUEY/frU/uNmKKIick+XkJ9R6Su1+MYSxqkvdxdRxLhNlmnjtmWZn0uU7su0d/DJX19Vr0krwUCkbFnoXCn2le/lljtG03StN48kSFpf/uYHLthnmZQ7XMl0qQOrL97SPacuWcXRiaJ3JXmX9yJ7obV4+a25Kv3j8rNqkKpDt2Rxt+Z1jLzWpd6TWJfc01q8RJVv6cFElxRKLvW50uZ+Yz+0Ki0dalfsGp9DokmnqS7n0OPYV0o1VOZIBPIlx3VRfJ0MC8y0aZ/+K60/UFdy4xOjEln0s10vwdlWuc31euZ3vc35d9rzFq0fAJ+KCiW11c1SUtV/UTw1NT25sqdcn7VWlPgZk/gaal0ByxNBaZAvbTUNMnuIlMUZa0cVkHrQFwoNPtVNcnhilJTNn0pBc+MSve6KOp7WK7+AWBdH1fw1IKBGmlJd7JUhvUOj1s/bw65Akf4ntzUP9VrvVaBl3vyjW5dcnW9BxcvUP87Lt8MiSy1izLEDkwHVbB1AohWFiyUppeXSH2CIJX+fukLPrNEWl5eKHWuYKaVLcpXdZbIoWf0Ncpd/p5f+t9f+r/XmG0In4AvVspmFXZ069r+bntc47rOI7K/zzQNqNB0uMTedKyueMm0DIbl1JUjZh/16G6To9bEnIC8WtUQNyt8dYVuWVUbYz2uuuz6Gq/0SGgsIMvst7pMjLd0Pxqd40vkdqvr/W1ySpeNdUqj6zMij0irp5ZmfUq618W2Ug5Y/wAIy1HXvvq6WApq5PWY78Gto+2sdFl/KUX6P/lsRlo9tZD7j3OECpBe3ZZRxuXLkP4D73S9L5Dvq0Aiw3flS8/JHBPjCt2Pfd12SEim9jmnpW5cuk4OTez78R3pGlYhKEEISXe/tK1YKAer1DXQ9XXfkX2mPqvOk3etLt+yqoWyw/VvQv+l/z34fX7T+f7S/73GbEP4BHxidSVf/lxORLq8b8mJ3uZI4NoccLV+Fm2Vg+X6r4UKSd3N0d3yIxdUcDtigtZKeS1BK2ZooMNVl3ZLLqmwWKdC32Rd2lkrA9fFCuWdzfKBa199Xfab3LusIEmr8I3T8v6b6jt7pVn2HB8whTMlwexfz5nCtrJFeRI6M2KN7bRmvZvlerrOZXgtzECR1FvNxnb36vtXJ0JFKHxX3m8dknavQJHufmlbIDvW25Otuk6q+s7cjboOoat3ZI8KaCJ58vSTmW79zJO6l83SQrGPyZa7SpnP55eR72/qv9eYfQifgC/CcjLsHfguhS/b/6dbWDLR5VtYbHcJh7+QD6ICpOOWfNBnt9YFi9dEdRU7nxcsf0kOV6yV1Ym6oHPRNK6LTYXWnlbPZZyujU7e6uobFRoafxE7Zs60jkXGayZyV77SvwCLFkjtk/nWWLqvrqrnS6K7ZKfF+azQSIpjGo1090uXs1bm8Kgc19fAy1V7IlZZMD9qGEZO8Pv8pvv9Tev3GrMJ4RPIFno8otlcrba10Oht66en0QE7tLr2s4x8LnXdnXJqLCCby/UYz7fkfI1e/F2P9cztMDqt6zKHdFxXf8gXFUqT7o4NZX6tTnscqZ7QkkK3sEu6+6XNCUvqWhz0aoG0HgtTXwN1SnTr4EQXeNQjU0HL5/Pz/fvDrEX4BGYjFUB36TGV3XpcaY8KomEJ6clNJoy2r1Ih1LwVs5Bp7dK6dBAFgCxC+AQeNqcreWxArlkFE4KFSWa/JNkvYkSPK21VQbRZ6syknFNj6nMD9XIwgzPeo/jQ4jjt6zLr3ZWvuself3jU7nKfIXqMaTrS3W/KnDUk9fJSXi2Q7kcu3iP+IZ2fb98fZi3CJ+CTJwrNRpRS2V2+0toKDVyMrDEZGQca2JRg2SDv/bTVJUlaNUcuyC5nTGSyADctxfLkDHXtT+e6ZIQvi8xnRseZQdmjAsdMrJsY+rM9i9rrbkqWQJ485jHrOd39ElIhqMJsenJuURksesiz2WdIps9vkuuZ8e8PcxbhE/BFQDZXmjGXpkQvOD+x0HqPfOiegT7yuXxoDcrXywap/UpcrZTJ9tOzwSvttS6trvWi6NbN1XqNy0oTzpKNm0zLBfnMOeaVW2WbOxyq49jmPod0pXtdMqS2foNUm8Uyy158VnbEr1k1NzihR/KlqWGh1LqCT3DFQjn0coJxhunuF8dZnidf6p9xTaQJqFAUFcLuybFzetiBnnm+RPbq90a9vkBqn1H1/lgdiynJLZk6vxSvZ8a+P8x13OEoy3F+uU4viG4HopDu7raCUSx72aD42dsT+3rz3i/+zj8e9Fqc1p1+kltd0SQt5YGU7jhkUeG3vapm4o9XFL3EkfdMc0dq9aVzXZx9El3r1Or26w5HU6b+8Ou7GFndr4kms6TyHkMvWq7Xjkx6Z53InWk8DN+VruF8qfa60026+8VwjjGOx/klfK9D1dv+hzsZmoFvL8I+tTsceUvpe1AycX4pX88MfX+Y22j5BHwRlpM99mLmOoQ67EXnvcOQsxB74xU9c90UWfRtJNukUa9V6bHfpdv2ZCN7v+j/9w+N9ViLq6cSPNNizbTX40q96u1IGjxTl951yQS/FpnPCeER2fPxHWm3FrV3mIXOW+/I8UQzotPdL0bozKDs6zbdwA4dsq7H76/f22jqjH7/RL25HJQycX4pX88MfX+Y22j5zHKcX66bvMUNAIC5hJZPAAAA+IbwCQAAAN8QPgEAAOAbwicAAAB8Q/gEZpQ9M3vdDM7ABgAglxA+AQAA4BvCJwAAAHxD+AQAAIBvCJ8AAADwDeETAAAAviF8AgAAwDeETwAAAPiG8AkAAADfzHtqXdUDs52TKiqC0tsbMs9mH85vjiraKu1VNRI0TyPGOqXx7OdyyTzNTqWye8NOebVAJNTXJnW9F0w5AAC0fALItKI1skUFTy1Yvlq22ZtzWLHseK9JWt7bGP+PCQCYgwifQDYa+VzqOvVtOZ1Hm5wyL2W9kYtycszeDPVdkhP2JgAAFsIngAxz7mf/Ll3uAIA4hE8Ac8+yjbJXd4V/1CSHthebwpmyRB5bajYBAEw4ynacX64zk2/EnigkRWvl9ZWbZHNBwH55LCyn+n4tu27fsp8ntFYO19TL5qlMOFJ17S7fJFsCgchYw9BYj5zs65APYurbtuotOaAO6dSVd9WxmMI4zkSiHtnf2Wq60ycmF3kJ9R2Rul6vc4u+LpfU822rXpLX3Mca7pR9lxOf6+qSBjlYvlKCCerWEtVf+0aTNK03T2RI2t8+JsdumKeZUPO8HPqHx6UsldB57vfS+C9XzBNbcPsOOfiiTBzXskrZUV8tT69fLGX2W6Rf7XdY7Wf916PC9KF3NkjZzbOy783TdlkUPe60QeqWJjlXrzpuXpe2n/9GOjJ5bQDMebR8An4oKJbXVzVJS5UKkE7w1NT25sqdcn7VWlOQCSrYqbrOq7pedYU5LViwUl5V9R0uMQXGib5OK7BsLt8qq+2ieM5EonAGx3Gq67JcheTDKogeiD3WQI20bPA+nm36WlYmD54PW0rBMwU6iLa88wOpc4VCTW9n6p9tCetY+rg0veNH6zCAuYSWzyzH+eW66JZB3Zr3Yd/ncmJEPyuVbRUvyYFyO4wmb3WcQstnSYOcV8FMt3J+2NOh6nJa/tz1uVsvbZO1ftqvh+Vod7N8YB1/YqsrVDhU9Uza8hkJj+pzr/w60iKrWzV1uNTijsecX/w+W+VgpV6eKv7c4uhu959skGoVEPs/aZU9xwfMCzOhUvZ+9AOpTtgqGc9u+VwsXeeuS/X6x0VuXpfmn38tHTec4yyW4LIBCTktktNp+ax5Xlp2qjpkSLo+6ZLjx01rqhJUr+1Sr5XNROswgDmLlk/AJ1YQu+wET+2WnOhtlsa+sPVscyBDrZ+3W6Wx+12pO6sCWCR4anZ9+63qiuXJIqswItL66Xkca+VZnVnHLstvJwmeU6ZC8v5OFWhdQwEuqXOwj1PlqoJSe8NYXWC3wp26ErvP51J3pUdtrZRnY1p249w4Le+/qa79K80zHDynRwdPHY4b39Rd3+7jdAXPaVGh9B908BTpOnJM3ncFTy3U+RvZc+S62losTz9D6yeAzCB8Ar4Iy8mwOwhOuBS+bP/BLyxJ3OU9RZecgFhUKttKtsrhVU3SvqFJztfYrZsiAXmi0HrHBGeJpMAm2R0TTKVktWxWP0IDFzO8wH1YjvZ4t1JeGzXpMw2xgTVnnfv9zIbjZcvlaT084OZZOd5pF8Xp/LN0qR9lG5ZHDYsAgHQRPoFsocc/ms3p0l3Qhze8JeerdsqByhrZrMdTuseaerolH/TplsOAbAm4w1up7C7X3dw98qFnF7q/Lo3ZYWxzZYNsc4dkPXbUdNXfGHv4x5kJ/f2DZmuGPGbGeC7dIAc/smf/xz9+INXWmwEgMwifwGxjjZdUgVOPpxzrkVN9bbK/+4g0qodee9PpzvZ0u0OOjokEy2sn7kw0ExONpiPSJb9SDlSpgF1jHnoyly4Ot8nPEo6dBQA8bIRP4GErLLa7M8cG5JpVMB1O65+ejKPC5tlW2dV7wRr7eSlq/Gcit+S3AzrZTYybXB1YpY5PfV5fNi0Ybyfo6Ik1etmqNmm8fCHDQwMyZOliqTCbWeObIenXP/VyT6/YY2ATPlKcLAUAkyF8Aj6JG2Npcbq0UxxPmWrXvJ4YFLOWp61UnjRbiVzq/cK6lae97FKp/H1xYGYmGqWrpMEat3pUT6qKugVpsxW0Uwqevi4y71gkjy4zm5l2Y1Bu6p8JAm5w+7NS57X0041r8rXecX217JipYwOAGIRPwBd6Pc8mOVyxdmJSkV4EPrLc0GTjKW/LX6z7pa+U12I+I2rco6OgRg6636dCpF6+qF3XN9nQT7kgP9Mz8AtWyd9X2F3umZ9olD57tntAnogalzo1tfX2Mkta2YvPznDwuiJfndM/F0vdTzZKrbuuZcVSW5OJ8Dso31jp83FpeqNyYmKQ+vwdb9jLNnkbkGP/as9mr3tnh+zdrvaNuhbq+LY/L4c+el5qTQkATBfrfGY5zi/XTaxnGdJjKa2gGSs8pbUz44TbZN3liS7xhO/T9LJGAyIHylemtq6otZ3CupkxUl/nM/G5J/yMoq3SXqXX80ws0Z2cHDN+h6NYzjqc5mm069L8ym+kwzzTnHU+p7QGaWS9znj6c9rKGtQ5e5+rU19CN69L+89/wzqfADKClk/AF2E52fOuNF7psUKoQy86vz+F4KldstYEVfub5xYVso6GoxOk9b6Yeqz3mTGgJ9zlCV2Qz5yJSdky0cgxclE+DDsH5y3RnZwcHW1npctqKdTB7LOZD1U3Tsuet3+v6hwyBTZ9+8r2I19HBc+0df5G9h25rj7TPNf04vRv22uZ9vZH1+0WOn5MGtXxtZ8zY0Ad6ni7Pvm97HuT4Akgc2j5zHKcX66bvIUvW03ljkb+Mdczck94L/o+8fp2nSpUJWx5BQA8LLR8AohXtFVe0z332TTRSDPLPiUfg3prWgvUAwBmFuETQBS9QL0zpvJU3yT3kX9IguUvyeGS0rg7Qq3Wk7hWOWNes2NRfABANLrdsxznl+typNvdYxJPKNwmda6JTNnCHg5gniSix7j2tObUMAcAmCto+QQwsdC9NhaWU1eOZGXw1E5c1hO3OuWUOs7Yf7boWe56YlXjWYInAGQrWj6zHOcHAABmE1o+AQAA4BvCJwAAAHxD+MRDRZc7AABzC+ETAAAAviF8AgAAwDeETwAAAPiG8AkAAADfED4BAADgGxaZz3JzYRH22jeapGm9eSJD0n9zWNp+/hvpuGGKAADArEHLJ7LMYilb+rg0vfO81JoSAAAwexA+8dB1/EuzNL5iHm//Xtpv6tJF8ugy62UAADCLED6RXW5ckS/PDpknAABgtiF8IuuE+ofNFgAAmG0In8g6wbJFZgsAAMw2hE9kqWH5ltnuAADMOoRPAAAA+IbwiSz1uDS9t1FqmfEOAMCskvc3paX/xWznpL/+60Xyb/82eyeozPbz8zJ88ZZ8t6xMHl3xhGzd8rT8h/qn5W//6rr89uKoeQcAAMhVtHwia5WZnwAAYPYgfCL71DwtTesXi9y8Ls1vt1qLz+85PmBeBAAAuYzwiaxjL7U0JO3W/d0JnQAAzCaET2SpqS61VCl732uSlo+a5NAblaYMAABkG8InstTU7u0e3F4t1Uvt7bL11bKDWfIAAGQlwidmocXy9DPFZhsAAGQTwieyTjr3dg8d75Kum+YJAADIWoRPZJ307u1+Rd5/s1kaj1w3zwEAQDYifCK7LKuU7S8uNk+mzpkp//UZZskDAJCNCJ946GrfsGepW493fiDVuvDmdflySrPdlWUbZZcOrue65NhU9wUAAL4gfCLLDEn/ubPS/PPTEjIlkyuW4Pbn5dA7G6RML0z/L1dMOQAAyDbznlpX9cBs56SKiqD09qYeU3LNbD+/zKiUvR/9QJae+70cVsGTqwUAQPYifGY5wicAAJhN6HYHAACAbwifAAAA8A3hEwAAAL4hfAIAAMA3hE8AAAD4hvAJAAAA3xA+AQAA4BvCJwAAAHzDIvNZjkXm/VG4Zr48tnGeLFkyz5SIjA0+kMHT96XvYjb+JzJPyn+UJ48ueSDf/mpc+r4zxVmhWGq3Py31Gx6XsqWmSK5L8yu/kQ7zDAAwd9HyiYdMh6gFsvGnsY88WafCVfmaiTA4Y9bkyVMvzI8KnlqBev5opXmClNW+0SBNL7qDJwAAEwifyFLz7PD3Qp5s/NF8KTSlmTdPKl+wQ+fYV+Pyp3+6J6edx6/G5dofrZeQsmJ5tNTe6jrSKo2vNJsHrZ4AABvhE1nigVyLDX5fPZAx/dKS+fLUTAXQR1TI1T8H78vVLx7IqFVofPdABtQDabh5Vo53DpgnAABMIHwiO+ng98W4nP/V/UgAfWyN9QoAAMhhTDjKcrN/wtHExJlr/zQuXm1lhZvy5KnvzbNaJ//0y/vRrZPaI+oz/na+LFluWjEVPVno239Vn+cxEUd/3gr1ec57E7o2LqfbPP7zmFJ95vzEOfZ5Ulw/Xx5173vtvlxt8zgvyzxrMtSKjer9S+wS/f5v/3hf5G8XyPLlSSYcTfG6aPa1lonP9PoMdV2uquvifbx6zGeTNJWelX1vnhamygEAYtHyiaw32uN0v6sgZpVM0GFp4w9VuHOFI02PF13+wwWybpP3hCX3e6ci3fqsY1dBrlIF0eWx+y5PNKzADq5PvaDeb4Knpt+/XB+DqyxW2sfpkvAz1CNR8IxYulgqzCYAAG55f1Na+l/Mdk76679eJP/2b8Pm2ewz289PB6y/Xj9fFqpEM/jHBK1pIyL/1yr7PWPXHsgd9dyyJk+qt+gQ9UAGv7ovV1vuy/U/3pdv1GNweJ4sXKFC02PzZJ57H+X/9D6w3mM9rokE1s2Tv9Ktqv99PLK/9bhsdnCkVZ9zfvNkybr5UlDwQL799L5cbJ/Y72/UfqJe/6vh+xK+bXZTiusXSPBRvaXqU/ucd/ZRn/9X5eozTfj83+ejzy/d66L91bL58jfqtXtF8yT4lPqMwQdy7fh9ufKZvf836jsaVGX/J2Y/t2Ubn5anlw7L123X5IYpAwDAQcsncogKTcVmU7cKbtQBS+WjT8flSsxkodGL43L+U91lrkLfSvt905OB+nSQ+6fxqHVD9X7XVADWCgKu/R7RXfN6w+5Wv+Le57sHcuWX4/LtoCmIkpnrorvZ9ez/06qe6ElX6vMSdNnrme7B7c9L/Xq1eXNIeu1CAACiED6Rmx7RC8Krn4P35ZuLdlGci/dF57OCFfHd9VM27frMWEvzzG007A53RrHp6r52f2oLyGfqulxTIVUF15Qs2yiHPmqSlo8a5KBe3/PmdWn/OeM9AQDeCJ/IIQ9kzElvTjjTyzDFLVDvPPIkybDIqfG5vsKA/XMsbP9MWYaOc8r1uvSrx7f2JgAAcQifyH5Oa54yNpVWQPjjxmnZYy0k3yrNnwxJ2dLHpeknGyVoXgYAwI2llrIcSy3Zs66tpZbcSx89Ml/W/XC+FCRaDilVzuckWsbJkXZ9E+eXaEkk5/z0GEunq9vznKMk+NxpXhevY5kqa6ml9dzLHQDgjZZPZDcVpvSanNrgFVcY+k7PulY/l8+X8kfsohnlc32R5aVUfZE5Vm7qGNzLL0X4fV0AAJgiwiey0yPzpHhTnt2Kp59f0zO+rVeMB9J3WofRefLoD/OkcpNeR9N+xWb2/2med3ibMp/rc0Kk+tzlP1Kf6aqrcI2+LonGbfp9XQAAmBq63bPc3Ol2N089JLsDUKR7OhFzR5+EM8ZT7XY3pl5fet3uFufYzNMoqp7BwXmyJMEdjtK9LtPvdi+WHe81SJ1whyMAgDdaPpGlHli3grymgtX5hLeeFBn9YlxOq/d8e810Uzt0OFMB6k+/TBI80+Brfd/dl/OmrgkT9XzjtUST4fd1AQAgVbR8ZrnZ3/KJ2YWWTwBAcrR8Asi8pRtkew2jSgEA8QifADJoQL48O2RtVe9skBbrzkf68bzUWqUAgLmO8Akgo0LHj8m+T65L/01TAACAC2M+sxxjPgEAwGxCyycAAAB8Q/gEAACAbwifeKj0sAIAADB3ED4BAADgG8InAAAAfEP4BAAAgG8InwAAAPAN4RMAAAC+IXwCAADAN9zhKMtxfsBDFCiSQy8XSpl5GjE8KvtaR4TfXACYOsJnluP8gFgLZEfDYqlbpDbdIXDFQmnZkq+3pOvkbXn/qrUZEXxmiRysyjPPovUPj8vNc3fk+NV70YGS8DkD0vv+AMwedLsDyF3DMWHRMi7fDJrNFJUtypPqLYvlYEORRN32IDwie35xWxojjzvSZV6CtkBqn1koh35cIi3Oo2GJ7H0mP/o6JpKh7w9AbiF8AphT+ruHXGFSP4Zk38lR6dcvLiqUXc8ssN6HSQSKZG/DYmmqyo9uGdZBvmqhHPzxEtkRMGUA4EL4BJA5yzbK3veapOWjJjm0vdgUZto9+XbYbLoNjtsBcsruSejqiOz52A6gZcEUW+3mtAWy4+8KpXrRuHR135F9H7vC/Md3pMv6fvKkrtruRo+W6e8PQK4hfAIzqlR2b3hLzm/YKqvN822rmqS9RpWZR/sq57UEitbK7th9NjTI7pJS84YJ21bp1xtkm65X7WO/v0kOl+hXvco8JKhvW5F5PYna+g1SvdTeLnvxWdmxzN6eKXqsZjwVbsJmcyrC9+Sm/rkoTyqsggwJ5MuO55ZEdU0falgoO1bEt7DWPme/vneFKfCkx0zq9y2UWlMSJUF9tUlaIfV42BZ3S6XXZzznDuX35NgfhqT540F5/8zd/3979x8bxZnn+/5L4MiyLbGYtmeNMzZNAgZHh8HgQ4Zdb4xASUaZDLJvOPgaXWmVrMJo038QhBaJSIyyUZCClCvE8IcnGqIld6UrfIwyssVkokwyQTjHN4QcGzNcYWyYpbETgwY39iIZX0s43Oeperpd3V3tn+1ydfv9knq7urqr60cz60+eH9+SsPN6R8bk/T9FW5KXTRrk0/r7AcgYhE/AC7mFslaFupNb9snRQCDuD3IwUC1NsXDqZMJiZZ28lrhN7np5rXxfigBZKK+r/ehtbAHZXrpTfVfCunIdUuNVlKXe39FKFULLkgPvQugzoeXO0CPr2RINj+q9PmvFQlMhUQW4pt3LpTa4NK5rumRFjtTuKEgKmW0ddmir2pww9tRJBcOterJOeEza7DUxVohMsb/QbhUgpzGkIOV3qEfc+Ex1vdtShcSV8dsmyozfD8B8IXwCntDhrU6250bkdO8p2dT+rvVo6O2x386tljcSg2RRjRUCw6M9cqRrYptN7afkSL/9V98tQOpgGdT76bI/e3pUrVLf/1ogYZ06phec+yyql6ZSHU4jcqG/RRpi+7OPUwePYOkrcmCSFtC2lk7psBKEyMAnn8uZ2/ZyuoWdoSVmXL5z686drnU5UqWf0xV+1uVZAW5geEwaP3aOMx2Sxi47fFXtSGi9jIxIi77QK/JkT4rWz5oqPft+XFo7xswaY91yM5vfdIXH9ndPDp8fs4cUVC6fZBzmUvlxlfkOl2M+nLg/F8GAmYBkzVpXx/gn94oA8/L7AcgYhE/AKzpEtjfKiXt3zQqR7nvNcsS0Hq3OTWhVVO81qLBY29ks50YmthG5K+f6Gs12hfK0SxgM9/9OTozopbvy2aC9A+e6vzy0VjkUy4HS9dbShd5G2d93VbqtVzZ9nLVWUA7IjsAkrZ+3L8r7bzVKw6uNcvDsoFk5X1LMinadQT2ZZRJUwc0OTCo0h8dmuH0KN+yxkAebH0hbxBm2HknbpfvSaO1kmTyZEAZjrZ9r3MZL5shPdZOoCodfx7U6LpO9m6NlikxXuPXKFlbHclAFUB0wtz6duvWzKphjT8hyOea4rnUnXY7KdM0f260nIKnvD+vwe1/OpNrGkq7fD0CmIXwCnojI6R4VIs0rp5sPU/+F7rbCopJfLLuKdspJPRZziz1u86gVWgLyVJ71iTi3R51h1eZcl7TP/GdkR656Hm2X39yzVyW51y0X1FOw8JnJx6h6QYWphqRw80jONN+Thj9O3kJXUlkQG8doPwrkmAqeupt4QIWmg5fcWuVmJxbYdIvgunw5pMdR1uvxlUUSsvrVl8qPV1qfmBAZk291C2AwP7mV0rTOJgXkaFf88EM5m6o+5o0xq0zUpBOq0nL+S61u/r9zGdMaM4ffD0DmI3wCPlahA6eesFS5T46WV8t2PRYzN2W/6ezlFdqBJLdamhwTjeIfdbLd+nD20V3jreeH5GCag09QB049OUi3CO7Ikyo9jnKFe6H7CSqEXXZrpYy2bo5JS2JAjI6xXJEnx+KCtfOx3B5WMAn3CUBTcNRCPfyxHlKgu/jtMa3TGWMKYPEhfAJ+pcdg6sBptUj2WOMw9djPBjP+M9pdj5lJrvNpd42fuZG+Fk+LHoOpA6fVIjlmjcPU4yh1QNP7tLvdU7jxUFqHdStt3sSY0EkmGvlFWE9CuvRAXc8hc/yTjTEFsFgRPgFf2igny/UYTDNBqbPZGoepx352x43/TJOHg3Y3bqQlNsko5aPzy7jxoHCTI4eik27O22Mo9ThMPY5SB7SpPZKvw7oVMkd+aiYeBZ/WQwNcJhpp0RqZYd2dHR+skx6e3BY0evyTjzEFsDgRPgE/G70unzkmKE0olqfNUlqMXJPzegZ84LlJZ7NPyZMi8z4w3VqgemKQa4vqMnnSLKUSvjRijdG0yy4tk78L2rPQ4ycaGZONE50XuozUJOWgoserxJVTAgCF8An4WW61HCvb6JjgUywVRfXSatXxNKvS4q6c6Ldns79WGZKTep9xIbRYdpWp/VoF7FPzusi896LlgHKkznn/8kCOexF363adzgk+ZmZ9fYHUpk5uxpic1SWZ9OQd9R26yz31TPyJcaK1u8291eOOJ3oP9hSF6WcoqL6rNqjHl6p9rYsvJB/UBer1+ekhAuocvkk1AQrAokX4BHzpqvzG1PIMltY5JgHtk6by9eqPfY8cscJiGunSTtY+dVF6tc9K52SjfXK0VO13VFxLOy0e0e5kezxjbHLP7uUSiruVpAmOStznYjPrx6yJOVOxWz9VoKzUtT1dJho56dJO1j7NvdV3R/dp79e6B7sKzomlnWYjfOm+2peeWKT2tUOdU2w/utySCqZW8ByXjvMPfDs+FcDCIXwCPtXd12gXd7cKwhujPbExoOec69NE73NTV4ucjkTiW9hGTeF5tV+7Vqg7r4rML6SJ4OWgZ8vfssNmlPU5Xdzdaik1zKx6q47mkFk3qTH5JvpDTGOikd6nvrd6qwrI8cdnCs/riVVpmqgW1hOLUuxLl6w6rG+9SasnABdLfrKp8rFZzkhlZUHp65v/4fMLhfMDFjd9v/dQcFxaVZhLV3AEgIVEyycA+FUgX+r0gMpUE40AIAMRPgHAh3SB+uO79VhPkY7LXpRHAgBvED4BwC+c90nfYQdPPX6SsZMAsgnhEwD8InqbTE1PEpqHW34CwEJjwpHPcX4AACCb0PIJAAAAzxA+AQAA4BnCJwAAADxD+AQAAIBnCJ8AAADwDOETAAAAniF8AgAAwDOETwAAAHiGIvM+x/lh4RTLgS375LVckXB/i9T2XTXr54vX+4O7ZbK3vkBqV4gMdD2Qg5dmc4el6HeMS+vH9+VMxKyeUort9G1HzX3u4ww/lMPN2Xrf+3T8DinM2/Wc7e+OxYaWTwDu8p+RHSoIasHSCtllL05Ch8dfyZUtO6XCrJmRGe8vW+k/4Pb93Zvq8yVo1sq65fY69Ti0zqyLmuw9S44cMu83vZhj1qUQyJGtKvBoJZU5UmMvYtocv99kD+dv6ybrfodZ/LtG1iJ8AnA3ck3Oj9qL4f5uOWcvzh+v95cJhh+5tEKNy3f3zaKLqjUu4XJdjlSZxSlFxuTbYXtxoGtM2uzFhRUZkYO/vScNsccD6TBvZa35/B0W+nrO4t81sgvhE0AKd+VE57uyqf1dj7rAvd5flgomt5LVuAXSlB7JmWY7lKS1q3fR0V3PzoCX8Jiye5vfAdmL8AkgTYrkKdNtnrVWb5ND74Wk6aOQHN9TaFam2yP53rR4xbk/LgNmMZWOsA4pOfLTuO5L9Vr3car3sr61ED42+3/XyD5MOPI5zi/TmUk00i4NnV+K5G+UN9Y/J9tzA/bboxG50P872X/vrv3aRUXRTnmjtFptY1ZIRMKRr+Tw9avSbdYkK5ZdZTXyeuF6CSZu16+2GzGrYiYm+7gJ95+S2j6XYyyql9ZS5z4mEWmRTeqYbbPcn8PMrkv879Ctr8+GV+T1QCA29iwcaVfb6vdSq3kzJKHN5oUMSevbZ+TMbfMyjWpeLJKQOrCBriE5eOmRvTI2SWRMGn/7IL4bVo+b25GjPv9Q7lTmSVX4gTT80bSWmfc61HuS+J5jUoubuP27WibBdXmyf3OOlJjvGAg/lJYO9Q+sSp9Dqokns90uSo9hXS5VM5kgE8iRvVX5sjW4NDbRZmB4TFr+pK5lWifGzGbSzVx/B2VO5zfT6zm732/G/66RtWj5BLyQWyhvbAhJU2XdRPDU1PL28n1yZcNGs8LJnsDTVO4MWJoKTIE6aaoOyYF8syrORjmpgtbRpFBotqsMycmyYrNu7qYVPNNqttdFUb/DWvUfANb1cQRPLRiolqbZTpZKs77hcev5zpAjcEQeyR39rN7rs1a4eSTf6dYlR9d7sGCZ+r/j8t2QyCp7VZrYgemYCrbRAKKVBPMktHul1KUIUrPfbvaCz66Upt3LpdYRzLSSFTlqn0Vy/Fl9jTKXt+c3+99v9v+ukW0In4An1st2FXZ069qRLntc46b2U3Kk3zQNqNB0sshejKooe8W0DEbkQu8ps416dLXIaWtiTkBeq6xPmhVeUaZbVtXCaI9jX/b+Gnp7JDwakNX2Rx0mxls6Hw3R40vlXrPj8y1yQa8bbZcGx3fEHrFWT22W+1Nme11s6+Wo9R8AETnt2FZfF0tutbyR8Ds4tbV0Sof1l1Jk4JPP56XVUws7/zjHqADp1m0ZZ1y+Dus/8NGu92XydyqQyPCYfO06mWNiXKHzcbjLDgmTqXkx2lI3Lh3nhya2/fiBdAyrEJQihMx2u1lbt1yOVaproPfX9UAOm/1Z+zw/ZnX5llQul72O/yb03ux/B6/Pby6/3+z/XSPbED4Bj1hdyde/lHOxLu+7cq6vMRa4tgccrZ/5O+VYqf5roUJSV2N8t/zIVRXcTpmgtV5eT9GKGR5sc+xLuyvdKizWqtA3VZe2b6XhulihvL1RTji21dfliMm9q3MnaRW+fVHef0v9Zq82ysGzg2blfEkx+9d1prCtZMVSCV8ascZ2WrPeTbmejstproUZyJc6q9nY7l59/8ZEqAhHxuT95iFpdQsUs91u1pbJ3s32ZKuO82p/l8birkP4xgM5qAKayFLZ+nS6Wz+XSu1uU1oo8TFVuatp8/j80vL7zfzfNbIP4RPwRETOR9wDX3fkuv3/dPOKJrp88wrtLuHIV3IiLkBG3ZUT/XZrXbDwmbiu4uj3BUtfkZNlG6UiVRd0JprDdbGp0NrT7FrG6ebDqVtdPaNCQ8NvE8fMmdax2HjNVMbkG/0PYMUyqXk6xxpL980N9XplfJfsnES/KzwyzTGNxmy3m61orczhh3JWXwM3N+yJWCXBnLhhGBnB6/Ob6+83p3/XyCaET8Av9HhEs1ihlrXww3vWs6uHg3ZodWxnGflSarva5cJoQLaX6jGev5Ir1br4ux7rmdlhdE7XZRFpu6X+kK/Ik5Dujg2nv1anPY5UT2iZRreww2y3m7VoWFLX4phbC6T1WD79GqgzolsHJ7rA4x7pCloen5/nvx+yFuETyEYqgO7XYyq79LjSHhVEIxLWk5tMGG3doEKo+SiykGnt0jp0EAUAHyF8Agst2pU8Oig3rRUTgnmTzH6ZZLuYET2utFkF0UapNZNyLoyq7w3UybE0zniP40GL45yvS9Ybk2+6xmVg+KHd5T5P9BjT2ZjtdjMWrSGpy0u5tUA6H5l4j/gFOj/Pfj9kLcIn4JGn8sxCnGI5ULreWgoPXovVmIyNAw08l6JskPt2WkXRJK2aI1dlf3RM5GQBbk4K5el56tqfy3VJC0+KzKdH26X7clAFjvmomxj+iz2L2u1uSpbAUvmxy6zn2W6XkgpBZWbRVfQWlcH8BZ7NPk/SfX5TXM+0/35YtAifgCcCsr3cjLk0a3TB+YlC6z3yoXMG+siX8qE1KF+XDVLbFTlaKSfbTs8GL7drXVpd6/nxrZsVusZluQlnk42bnJWr8nn0mNfvlF3OcKiOY5fzHGZrttclTWrqtkiVKZZZ8vILsje5ZtXiEA09kiOh+uVS4wg+wXXL5fjuFOMMZ7tdkmh5nhype9YxkSagQlFcCHskZy7rYQd65vlKOaQ/G/f+Mql5Vu33l+pYzJrMkq7zm+b1TNvvh8WOOxz5HOeX6XRBdDsQhXV3txWMEtllg5Jnb09s6859u+Q7/7jQtTitO/1MrqIsJE2lgWndcciiwm9rZfXEH684usSR+0zzqOntbzbXJbpNqms9vX17dYejGVN/+PVdjKzu11STWabzGUMXLde1Iye9s07szjQuhsekYzhHqtzudDPb7RJEjzGJy/ml/GyU2m/rnx6kaQa+XYR9Znc4cjet30FJx/lN+3qm6ffD4kbLJ+CJiJzvsYuZ6xAaZReddw9D0ULsDb165rpZZdG3kWyRBl2r0mW77nv2ZCN7u/j/7x8e7bGKq08neM6KNdNejyt122/bpMFz+mZ3XdLBqyLzGSEyIgc/fiCtVlH7KFPovPmBnE01I3q22yUIX7ovh7tMN3CUDlm3krfXn20w+4z//MR+MzkopeP8pn090/T7YXGj5dPnOL9MN3WLGwAAiwktnwAAAPAM4RMAAACeIXwCAADAM4RPAAAAeIbwCcwre2b2pnmcgQ0AQCYhfAIAAMAzhE8AAAB4hvAJAAAAzxA+AQAA4BnCJwAAADxD+AQAAIBnCJ8AAADwDOETAAAAnlnyk02Vj81yRiorC0pfX9i8yj6c3yKVv1NaK6slaF7GjLZLQ+eX0m1e+lOxHNiyT17LFQn3t0ht31WzHgAAWj4BpFv+M7JDBU8tWFohu+zFRaxQ9r4Xkqb3tiX/xwQALEKET8CPRr6U2nZ9W87oo0UumLd8b+SanB+1F8P93XLOXgQAwEL4BJBm0fvZv0uXOwAgCeETwOKzepsc0l3hH4Xk+J5Cs3K+rJQfrzKLAAAmHPkd55fpzOQbsScKSf5GeWP9c7I9N2C/PRqRC/2/k/337tqvU9ooJ6vrZPtMJhypfR0ofU52BAKxsYbh0R45398mJxL2t2vDr+SoOqQLve+qYzErk0QnEvXIkfZm050+MbnITbj/lNT2uZ1b/HXpVq93bXhFXncea6RdDl9Pfa4VRfVyrHS9BFPsW0u1/5o3QxLabF7IkLS+fUbO3DYv06H6JTn+izVSMp3QefkLafh1r3lhC+7ZK8delonjWl0ue+uqZOvmAimxPyIDaruTajvrfz0qTB9/Z4uU3OmUw29dtNfF0eNO66V21STn6raPO7ek5YNPpS2d1wbAokfLJ+CF3EJ5Y0NImipVgIwGT00tby/fJ1c2bDQr0kEFO7WvK2pfrznCnBbMXS+vqf2dLDIrjHP97VZg2V66UyrsVcmiE4kiaRzHqa7LWhWST6ogejTxWAPV0rTF/Xh26WtZPnnwXGjTCp7ToINo0zvPS60jFGp6OV3/2ZZyH6vWSOgdL1qHASwmtHz6HOeX6eJbBnVr3of9X8q5Ef2qWHaVvSJHS+0wOnmr4wxaPovq5YoKZrqV88OeNrWvaMufc3/O1kvbVK2f9vsROd3VKCes40+tokyFQ7WfKVs+Y+FRfW/v72ItsrpVU4dLLel4zPklb7NTjpXr8lTJ55ZEd7v/8xapUgFx4JNmOXh20LwxH8rl0EfPS1XKVslkdstngXRcviVVm9eI3LkljR98K223o8dZKMHVgxKOtkjOpeWz+iVp2qf2IUPS8UmHnD1rWlOVoHpvv3qvZD5ahwEsWrR8Ah6xgtj1aPDU7sq5vkZp6I9Yr7YH0tT6ea9ZGrreldpOFcBiwVOz93fE2l2hPJ1vrYyJtX66HsdGeUFn1tHr8tkUwXPGVEg+0q4CrWMoQLc6B/s4Va7KLbYXjIpcuxXuQm/iNl9KbW+PWlovLyS07Ca5fVHef0td+1cb5zl4zo0OnjocN7ylu76dx+kInnOiQukvdPAU6Th1Rt53BE8t3P6pHDx1Sy0VyNZnaf0EkB6ET8ATETkfcQbBCd2R6/Yf/Lyi1F3eM9QdDYj5xbKraKec3BCS1i0huVJtt26KBOSpPOsTE6IlkgLPyYGEYCpFFbJdPYUHr6W5wH1ETve4t1LefGjS5ywkBtaMdfmL+Q3Hq9fKVj084E6nnG23VyVp/4t0qKeSLWvjhkUAwGwRPgG/0OMfzeJc6S7ok1t+JVcq98nR8mrZrsdTOseaurorJ/p1y2FAdgSc4a1YDpTqbu4e+dC1C91b3aN2GNteXi+7nCFZjx01XfW3Rxf+ONNhYOC+WZonPzZjPFdtkWMf2bP/kx/PS5X1YQBID8InkG2s8ZIqcOrxlKM9cqG/RY50nZIG9dC1N6Pd2a7utcnpUZFgac3EnYnmY6LRXMS65NfL0UoVsKvNQ0/m0qsjLfKblGNnAQALjfAJLLS8Qrs7c3RQblor5iLa+qcn46iw2dks+/uuWmM/u+PGf6ZyVz4b1MluYtxkRWCDOj71ff1+KhhvJ+j4iTW6bFWLNFy/muahAWmyqkDKzKJvfDckA/pZl3t61R4Dm/IxzclSADAVwifgkaQxlpZol/Y0x1NOt2teTwxKqOVpK5anzVIq3X1fWbfytMsuFcvPCgPzM9FotorqrXGrp/WkqrhbkDZaQXtawdPTIvNRK+TJ1WYx3W7flzv6OUXADe55QWrdSj/dvinf6g03V8ne+To2AEhA+AQ8oet5huRk2caJSUW6CHys3NBU4ynvyX9Y90tfL68nfEfcuMeo3Go55vycCpG6fFGr3t9UQz/lqvxGz8DP3SA/K7O73NM/0Wj27NnuAXkqblzqzNTU2WWWtJKXX5jn4NUr31zWzwVS+8/bpMa5r9WFUlOdjvB7X76z0ucaCb1ZPjExSH3/3jftsk3uBuXM7+3Z7LXv7JVDe9S2cddCHd+el+T4Ry9JjVkDAHNFnU+f4/wy3UQ9y7AeS2kFzUSRGdXOTBJpkU3XJ7rEU35O02WNBkWOlq6fXl1Ra3kadTMTTL/OZ+pzT/kd+TultVLX80wt1Z2coub9DkeJonU4zct4t6Tx1U+lzbzSonU+Z1SDNFavM5n+npaSenXO7uca3V9Kd25J6wefUucTQFrQ8gl4IiLne96Vht4eK4RG6aLzR6YRPLVuqyao2t68tqiQdToSnyCtzyXsx/qcGQN6zrk+pavyeXRikl8mGkWNXJMPI9GDc5fqTk5RbS2d0mG1FOpg9vn8h6rbF+Xg21+ofQ6ZFTZ9+8rWU9/GBc9Za/9UDp+6pb7TvNZ0cfq37VqmfQPx+3YKnz0jDer4Wi+bMaBR6ng7PvlCDr9F8ASQPrR8+hznl+mmbuHzq5nc0cg75nrG7gnvRt8nXt+uU4WqlC2vAICFQssngGT5O+V13XPvp4lGmin7NPkY1LtzKlAPAJhfhE8AcXSB+uiYygv9U9xHfoEES1+Rk0XFSXeEqtCTuDZEx7z6oyg+ACAe3e4+x/llugzpdneZxBOOtEitYyKTX9jDAcyLVPQY157mjBrmAACLBS2fACYK3WujEbnQe8qXwVM7d11P3GqXC+o4E/+zRc9y1xOrGjoJngDgV7R8+hznBwAAsgktnwAAAPAM4RMAAACeIXxiQdHlDgDA4kL4BAAAgGcInwAAAPAM4RMAAACeIXwCAADAM4RPAAAAeIYi8z63GIqw17wZktBm80KGZODOsLR88Km03TarAABA1qDlEz5TICWr1kjonZekxqwBAADZg/CJBdf260ZpeNU83v5CWu/otSvkydXW2wAAIIsQPuEvt3vl684h8wIAAGQbwid8JzwwbJYAAEC2IXzCd4IlK8wSAADINoRP+NSwfM9sdwAAsg7hEwAAAJ4hfMKn1kjovW1Sw4x3AACyytK/LS7+V7Ockf7mb1bIf/5n9k5QyfbzczN87a78dXWJPLnuKdm5Y6v897qt8vf/5ZZ8du2h+QQAAMhUtHzCt0rMMwAAyB6ET/hP9VYJbS4QuXNLGt9utorPHzw7aN4EAACZjPAJ37FLLQ1Jq3V/d0InAADZhPAJn5ppqaVyOfReSJo+CsnxN8vNOgAA4DeET/jUzO7tHtxTJVWr7OWSzVWyl1nyAAD4EuETWahAtj5baJYBAICfED7hO7O5t3v4bId03DEvAACAbxE+4Tuzu7d7r7z/VqM0nLplXgMAAD8ifMJfVpfLnpcLzIuZi86U//YSs+QBAPAjwicWXM2b9ix16/HO81KlV965JV/PaLa7snqb7NfB9XKHnJnptgAAwBOET/jMkAxc7pTGDy5K2KyZWqEE97wkx9/ZIiW6MP2ve816AADgN0t+sqnysVnOSGVlQenrm35MyTTZfn7pUS6HPnpeVl3+Qk6q4MnVAgDAvwifPkf4BAAA2YRudwAAAHiG8AkAAADPED4BAADgGcInAAAAPEP4BAAAgGcInwAAAPAM4RMAAACeIXwCAADAMxSZ9zmKzPvZEin9p6Xy5EqR0W/G5cpX7v9Tyntuqfzkp0sm/Yw/FUrNnq1St2WNlKwyq+SWNL76qbSZVwAAzBQtn/CNvGeekHIV5rb9y7LYY5N6Xfgj84GUdAhUn/+nJyTPrPHEj5bIShU8tdyfPqGiWnapebNeQi87gycAAHNH+IQvWK2DP39ChbklZo0tV71e+48qhNYt8TZYTsdfH8v9+/bi6Dc/yKC9mCUK5clie6njVLM0vNpoHrR6AgDmhvCJhfeM3S0tosLcH8bl4v/5KPb48x9+sAJe7tonJDBlC6jXHkv/v9nHmVnd6TNwp1POtmdXrAYALCzCJxZcYbnd2qlbD3uvxYe4h9fUun8blz//+7j0/9WsdJFrur8BAIC/MeHI5xbDhKPCumWydu3kk3aSPLNUNm1bMr3QeXNcLrbEf689CUjk+2io/dESKf37J2TlWvWd9kdkVG13Q2330Ho1MbnIzVwmHBXWLVXnrwK42t+fY/tzcDu2+4/l+9+Py2CKQD7z80tW82ZIQsWdcviti8KUNwBAutDyiQU32GsHMmvSzgy61tPV2qmD2rZ/VMHSEcw0vZwqmKWL3vdkwTPlsUXHwj4XP0bWzZzOb1WBlJlFAADSgZZPn1sspZairZ8W3ap38QfpT+iCT22JlP/LUll5/wf587/9MK3AaLcMLpH7Nx9brYF6nzd//4MM/jW6zyWS9yMVBifp6tei3zObls/oekl13M+o0PhzHS4fy/1vfpDv1LbRz+Sp99ap93LVe7HWTYd0nJ/V8rmZ0koAgPSi5RO+MNjySP78zWMZ1S9WLpEnf65LLi2V8ufmd5a7DmY6FF78N92F7QyPUwfPuZgyeOpu/m06eKqP/GFceh3BU3t4TQXZP+jjXSIr19ufczO78yuU4J6XpG6zWrwzJH32SgAA0oLwCd94+JUKVI4Z7law+qkKaTqEPpM6YM3JzdQtlvNlIng+lpupWmqjNURVOP3umr0qyTV1ndRT7rpJAvpMzm/1Njn+UUiaPqqXY7q+551b0voB4z0BAOlF+ITv2DPcH8nFfx+X72+a1r2f6wBqv59OoxGz4BHdXW4FT0t8a2acQjM+c+UTKnxPFN2PfyyVqYa9zuX8BtTje3sRAIC0IXzCv/76WPpbxq3ueG3lNo/vYJRu61SQ1GM47/8gN/U56WBZN08turNx+6IctArJN0vjJ0NSsmqNhP55mwTN2wAApAPhE773sMeMBZ3KSh/eBclBz1CPjvEc/Gpcbt5UK9emaNEdNOd8M77ovutjmpOspm9Q2s6ekcbLapHZ7gCANCN8YsHpOpeTjumMdkFPQ67v7oLkkDC5aLBl3BqzqYcUlCYe91/NrTvXPpH8HgAAGYzwiYX1oyes+pM6gG36p6VS+KP4EKrHSG6yyg2p7HYxVQufCmq6FVGWyJO/SKgVqr6vcL4mK83Q6I3EMZ6PpdfMWNfHHd9q+1j6L5r3/tHM+o8Loeq8nlPX5l/UNTNrAADIBIRPLKy//iBX/t3cv90qnK5LLE1MqtFjJHWrp74bT2+qWd/K4P/zgynT9IRVfD32Her71v5cBVLrUz50zYxpdRv/GX1PT7jSs/6d56VC59qfqmujr9u8tIwWypPF6olSSwCANCN8YuGpAGrdv/0Pj2VUdzU76NtI3vz3cbmScHvMJFaIHVchNv5z1m0o//CDDJrXfvTwqx/ke6uLPXn4gS4/FZ31HzfuVZ3X/W/UNVPXbbJ73gMA4Dfc4cjnFssdjuA3hbL3vXqpFe7tDgBIL1o+AaS2aovsqWZUKQAgfQifAFwMytedQ9ZS1b56abLufKQfL0mNtRYAgNkhfAJwFT57Rg5/cksG7pgVAACkAWM+fY4xnwAAIJvQ8gkAAADPED4BAADgGcInFpQeVgAAABYPwicAAAA8Q/gEAACAZwifAAAA8AzhEwAAAJ4hfAIAAMAzhE8AAAB4hjsc+RznB2B2lsne+gKpXSEy0PVADl4aM+vTIJAvx3fnSYl5GTP8UA43jwj/iwYwGVo+ASwSOowVSdMv1aM+X2IVZtctt9epx6F1Zl2MY5u4x0o5Xr9c9q5bZj7nQ4Ec2aqCp1ZSmSM19qIPzOZ3AJBNCJ8AFp/hRy6tc+Py3X2zOKWlUrIiR2p3FMQHKD+JjMm3w/biQNeYtNmL6REZkYO/vScNsccD6TBvzcicfwcAmYjwCQBTGpNGZ9j6eEgaVaAb0G+tyJNjvgygj+RMs328ae1yB4A5InwCWHirt8mh90LS9FFIju8pNCvT7ZF8b1oC49wft0PkTEQeSdulB3Lw44exALqHruJpSuPvACAjET6BeVUsB7b8Sq5s2SkV5vWuDSFprVbrzKN1Q/S9FPI3yoHEbbbUy4GiYvOBCbs26PfrZZfer9rG/nxIThbpd93WuUixv1355v15UFO3RapW2cslL78ge1fby/NlYHjcLDmpUBQxi9MVGZGTXfZ3VW1O0foZyJG9L66U47HxokWTjBc14yFjLanLpCZx2xfd9pNqbKr9OP7sNMampjjOmoB5fx6k7XcAkFEIn4AXcgtlrQp1J7fsk6OBQFx4CAaqpSkWTp1MWKysk9cSt8ldL6+V70sRIAvldbUfvY0tINtLd6rvSlhXrkNqvIqy1Ps7WqlCaFly4M0kfSbs3Bl6ZD1bIo/kjn5W7/VZK2Ym/Jdo9/tSKbPWRKlAqMJc0+7lUhtcGjczPDpeNOXEGv1dKgweqi+QUOK2wfR38wefTX2cod3TDK8zMB+/A4DMQfgEPKHDW51sz43I6d5Tsqn9XevR0Ntjv51bLW8kBsmiGisEhkd75EjXxDab2k/JkX67acgtQOpgGdT76bI/e3pUrVLf/1ogYZ06phec+yyql6ZSHU4jcqG/RRpi+7OPU08MCZa+IgfmoQW0raVTOqzkITLwyedy5ra9nG5hZ9iJGZfv3LqBpys2sWeZPOlsJVyXZ4W5geExafx4aGK86G/1eFHTWrpjeYpZ6Dr0LZeqFePSen5i28PnzdjNpG7+ifGdzsdhs59JrVsuxyqXqoVx6eh6IIed26v96WBdUrlc9qaxBXRefgcAGYPwCXhFh8j2Rjlx765ZIdJ9r1mOmC7G1bkJrYrqvQYVFms7m+XcyMQ2InflXF+j2a5QnnYJg+H+38mJEb10Vz4btHfgXPeXh9Yqh2I5ULreWrrQ2yj7+65Kt/XKpo+z1grKAdkRmIfWz9sX5f23GqXh1UY5eHbQrJwvKWZTu868noml8uOVZlG7oYLcx/fkYPMDaYs4w5YeL3pfGq2dJQRWJx1af3tfztyY2DasvtPeTmRVQTpaI5fJ3s051lLH+fvy/qWxuGug93fQCrxLZevT6S4rNV+/AwC/I3wCnojI6R4VIs0rp5sPUw9w67bCopJfLLuKdspJPRZziz1u86gVWgLyVJ71iTi3R51h1eZcl7TP/GdkR656Hm2X39yzVyW51y0X1FOw8JnJx6j6mQpTDTrQxZ2+aTX8Y/pnhIej+wksk5p1+XJIj6msX2mNpwxZ/eYJgTVmXFr/pEKreeUU7bJOi2gt0OGHcvaGvSrJjTGrjFJJMCd9Xf0e/w4A/IXwCfhYhQ6cesJS5T45Wl4t2/VYzNw09n9G5RXawSK3WpocE43iH3Wy3fow3CW35AV14NQTgXYXSGhHnlTpMZUrdBe3T6w0Yzx1uSjHRKP4x3Kpsj4MAOlB+AT8So/B1IHTapHsscZh6rGfDWb8Z7S7HgssdiehhFnaeiylDpxWy+KYNZ5Sj/08bMZ/RrvPAWCxIXwCvrRRTpbrMZhmglJnszUOU4/97I4b/5kmDwftcXaRltgko5SPzi/jxoMudsGnc+zWw7DzLkI5cmiHHktpJgw1P7DGU+qxn+G48Z8LLFpbM6y7wScmGrk+uGc7gDQhfAJ+NnpdPnNMUJpQLE+bpbQYuSbn9Qz4wHPzMpt9Sp4UmZ8HgXzZb80UF+m45TJWcXhMvnZMGJqwTJ40SwsqOlM/mJ+e2exJ5aYAIBnhE/Cz3Go5VrbRMcGnWCqK6qXVquNpVqXFXTnRb89mf60yJCf1PuNCaLHsKlP7tQrYp5/XRebnTE8gena5HN+dZ1o9H8j7bhN2VuTJ/medE3WWSXCd2q6+QGrTWahz1h7Jmcv2bPba3SvlkD7WuH9X5jx/maokVFS0TFKO1DnPN5Azr0XqAWQmwifgS1flN6aWZ7C0zjEJaJ80la9Xf9x75IgVFtNIl3ay9qmL0qt9VjonG+2To6Vqv6PiWtop++VIyDkJR08gqrS72wfCD+Vw0gztMTlramzqGpkTk3kK5NgOvd2YdW94X9AloaxjXSpV+lh3O85THa91nipYpiwJZXkkX4ddznf3cglV2aWcACCK8An4VHdfo13c3SoIb4z2xMaAnnOuTxO9z01dLXI6Eokf3zdqCs+r/dq1QtPLqyLz6TMeKx5/8I/uYyHDl+7bRdqdhdPVNtExoG1DZp0P6GNt+PiBtKoAGXd/9WFTeF4db3xZpGTW+apAHb+9Ot9baSwNBSArLPnJpsrHZjkjlZUFpa8ve4fBc34AACCb0PIJAAAAzxA+AQAA4BnCJwAAADxD+AQAAIBnCJ8AAADwDOETAAAAniF8AgAAwDOETwAAAHiG8AkAAADPED4BAADgGcInAAAAPEP4BAAAgGcInwAAAPAM4RNACsVyYMuv5Er1r6S1bKNZN5+83h8AYCEQPgG4y39GduTai8HSCtllL07ChMctO6XCrJmRGe8vWy2TvfVF0vRL9ajPl6BZK+uW2+vU49A6sy4mRw6Z944/u8ysixd8duWk7/vfbK4LAD8ifAJwN3JNzo/ai+H+bjlnL84fr/eXCYYfSdgsThiX7+6bRRcllXlSY5az1iyuCwD/IHwCSOGunOh8Vza1vyu1fVfNuvnk9f6yVY7UZWzrJoDFgPAJIE2K5CnTbZ61Vm+TQ++FpOmjkBzfU2hWptsj+X7YLDrdH5cBs5hSeEw61FN2tn7O4boA8JUlP9lU+dgsZ6SysqD09SV3wGQLzi/T6XGQ++Q1aZeGzi9F8jfKG+ufk+25Afvt0Yhc6P+d7L93137toqJop7xRWq22MSskIuHIV3L4+lXpNmuSFcuushp5vXC9BBO361fbjZhVMeY4U4THcP8pqe1zOcaiemktde5jEpEW2aSO2TbL/TnM7LrE/w7d+vpseEVeDwRiYwfDkXa1rX4vtZo3QxLabF7IkLS+fUbO3DYv06jmxSIJqQMb6BqSg5ce2SsD+XJ8d56UyJg0/vaBtNlrDT3mc7lUhR/I4eF8OVa5NH5bRY/5dFsfFVyXL3s250nVCrNCVKgLj8jJP465dHHr8ZcFUisP5XDziHp/mTrm5VIXXKqOzzYQfqi21e+lEMiRvVX5stW5zfCYtPxJnVvErEgw8+sCwI9o+QS8kFsob2wISVNl3UTw1NTy9vJ9cmWD2+xuewJPU7kzYGkqMAXqpKk6JAfyzao4G+WkClpHk0Kh2a4yJCfLis26uZtW8Eyr2V4XRf0Oa9V/AFjXxxE8tWCgWppmO1kqzfqGx63nO0OOkBh5JHf0s3qvz1rhYsUykUsjM2z9tCfyHNvhDJ6aCoXB5XLslytlr+OfbJwVS6VMhchDKoiGHCFSKwnmyTHnxCAHa/LT7uVSm7jNihwJ7U49KWrW1wWArxA+AU+sl+0q7OjWtSNd9rjGTe2n5Ei/aeJRoelkkb0YVVH2imkZjMiF3lNmG/XoapHT1sScgLxWWZ80K7yiTLesqoXRHse+7P019PZIeDQgq+2POkyMt3Q+GqLHl8q9ZsfnW+SCXjfaLg2O74g9Yq2e2iz3p8z2utjWy1HrPwAictqxrb4ultxqeSPhd3Bqa+mUDivpiAx88vm8tHpqYWe4ihmX79y6nZOMydkuHdKmN/Yz+KwKgVboHJeO80PS8Nt79uPjB9Jq7W+p1Kqg6B5kdVhcrkLruLQ6tj18fsx+e0We7Emcgb5OBdrKpWpB7a/rgRyO7s9sp7vQSyqXuwbeuV0XAH5B+AQ8YnUlX/9SzsW6vO/Kub7GWODaHnC0fubvlGOl+q+vCkldjfHd8iNXVXA7ZYLWenk9RStmeLDNsS/trnSrsFirQt9UXdq+lYbrYoXy9kY54dhWX5cjJveuzp2kVfj2RXn/LfWbvdooB88OmpXzJcXsbdeZ3vHC0239DOTLfhMEWz++L+/fcLYojsmZ5iETQCcJssO6u/u+nHFsG77xQBrNQa4qcG63TPZuzrGWOs6r/V2K79LX2x20gutS2fp0quA8++sCwB8In4AnInI+4h74uiPX7T+aeUUTXb55hXZ3ZeQrOZE0PlO7Kyf67da6YOEzcV3F0e8Llr4iJ8s2SkWqLuhMNIfrYlOhtafZtYzTzYdTt7p6RoWwBh3o4g7pkQqD96Thj6ZVcVLTbP1cabq9wyMJ+4pS+7xs768kmOPSha5Cqx6jaV45RbvI4wRyZKtuZR1+KGdv2KuS3DCTptz2N+frAsAPCJ+AX+jxiGaxQi1r4Yf3rGdXDwft0OrYzjLypdR2tcuF0YBsL9VjPO27Bl3Zosd6ZnYYndN1WWSm0/oZNK2SA25BMSo6m1yP77RWzEE07K7Ik2OmMHzyY7lUWR8GkK0In0A2UgF0vx5T2aXHlfaoIBqRsJ7cZMJo6wYVQs1Hka3iWz/dx0sCgPcIn8BCi3Yljw7KTWvFhGDeJLNfJtkuZkSPK21WQbRRas2knAuj6nsDdXIsjTPe43jQ4jjn67JIxFo/XbvMJ5Ss0OM+U4i2VqZjNnm0FTWsu88nJhq5PqwSTgCyEeET8MhTeWYhTrEcKF1vLYUHr8VqTMbGgQaeS1E2yH07raJoklbNkauyPzomcrIANyeF8vQ8de3P5bqkhSdF5tPJtH7qWedrzCqH8F/s2eUSzE9RTmligtBA2K3e5wxFxuRbPYEp5f4ALAaET8ATup6nGXNp1uiC8xOF1nvkQ+cM9JEv5UNrUoUuG6S2K3K0Uk62nZ4NXm7XurS61vPjWzcrdI3LchPOJhs3OStX5fPoMa/fKbuc4VAdxy7nOczWbK9LmtTUbZGqVfZyycsvyN7kmlW+E239rAraITJOZERarESpyymtlEPrHJOTdBF4XUjeKsM0Ji0uhelnLjqByezv2RwJxoXQZVLz7HI5/stUpZ0AZAPCJ+ARXV/TGnOpJ//oR2VdrF7l6a7kGdjnrkfLBplC9NPZToWzw732ZCO7oLxjO/Wwitzrz422y+F5CGfn+tvNZJ9qORqd6GQd8z45Wl6TovbmzMzquixq0bGf7tr+GC2ntFSqdhRMTPzRReBN/c/Wj9N456AbD+SwdTxqf5XL5dhu52SjAglV5kiJOp4naRkFshbhE/BERM732MXMw1ZwstlF5xtTlw3q1NvoMGlWWfRtJFukQdeqdNmu+5492cjeLr5+Tni0xyqubt9ich5YM+31uFK3/balKRDO7rqkg1dF5tMt2vrpzi5VdPj8Q+mIK9aub6+pi8Anljaau/Cl+3YR+3DCfdmHTeH55gdp3ycA/+De7j7H+WU6fStI3RVsF0Wfr1AEAECmoOUTAAAAniF8AgAAwDOETwAAAHiG8AkAAADPED6BeWXPzN40jzOwAQDIJIRPAAAAeIbwCQAAAM8QPgEAAOAZwicAAAA8Q/gEAACAZwifAAAA8AzhEwAAAJ4hfAIAAMAzS36yqfKxWc5IZWVB6esLm1fZh/NbpPJ3SmtltQTNy5jRdmno/FK6zUt/KpYDW/bJa7ki4f4Wqe27atYjWL1N9vxijVStKjBrRAbu3JJvf/+tnGkfNGtmYfU2Of7OFikxL2PudMrhty4K/wsD4Ce0fAJIr/xnZIcKnlqwtEJ22YuofkmO7dsSFzy1klVrpPa/rTSvACD70fLpc5wfbBvlZHWdbKflM0OVy6GPnpcqtTTwyRdy8mzvRGvk6kKpUU9tt+fQ8pnE7I+WTwA+RMsngDSL3s/+XYJn1OqVsko/qzAYFzw1FTrTGzwBwN8InwAWn9Xb5NB7IWn6KCTH9xSalQAAL9Dt7nOcX6YzXdBid5dL/kZ5Y/1zsj03YL89GpEL/b+T/ffu2q9TmkW3u9rXgdLnZEcgEJu4FB7tkfP9bXIiYX+7NvxKjqpDutD7rjoWszJJtDu9R460N8u5uHXWiyTh/lNS2+d2bvHXpVu93rXhFXndeayRdjl8PfW5VhTVy7HS9RJMsW8t1f5r3gxJaLN5IUPS+vYZOXPbvEyT4J6XZP/La5InASW6/IU0/LrXvHBYXS5766pk6+aC2HdMf3LSTLvdC6Vmz1ap26KO12qi1YZk4HKHnGzplfBk1ybFcbZ88Km0pfmaAsgOtHwCXsgtlDc2hKSpUgXIaPDU1PL28n1yZcNGsyIdVLBT+7qi9vWaI8xpwdz18pra38kis8I4199uBZTtpTulwl6VLDqRKNJtgmcaqOuyVoXkkyqIHk081kC1NG1xP55d+lqWTx48F96KqYOnq0LZ++ZeaXrneal1BDrNmpy0r14OVZsVaaGC6nv1EtJBORY8NbXvzc/LsXf2yqEUrcPBPamPM/QOrcoA3NHy6XOcX6aLbxnUrXkf9n8p50b0q2LZVfaKHC21w+jkrY4zaPksqpcrKpjpVs4Pe9rUvqItf879OVsvbVO1ftrvR+R0V6OcsI4/tYoyFQ7VfqZs+YyFR/W9vb+LtcjqVk0dLrWk4zHnl7zNTjlWrstTJZ9bEt3t/s965rmeANQsB8/O85jLaCmk6bREVr8kTfvWmNbDbx3jQXXr5AsqJOrZ8rek8dVPpc1+w8X0Wz51gDymv1PtrzGutbJQgtVbZf8v1oh0ulwjc5y6hbTjkw456xjLGlTv7VfvlcxTqzKAzEbLJ+ARK4hdjwZP7a6c62uUhv6I9Wp7IE2tn/eapaHrXalVgWEieGr2/o5YuyuUp/OtlTGx1k/X49goL+jMOnpdPpsieM6YCslH2lWgdQwF6FbnYB+nym25xfaCUZFrt6Zd6E3c5kup7e1RS+vlhYSW3SS3L8r7b6lr/2rj/AfPmWr/VA6/rY7rLR0Encc2KG1nz0jjZb28Qp5cba1Mm4FOHXTNC8ughNWxHFTXKfkaFcpeHUqVjlNn5P2ESVTWdqduqaUC2fosrZ8A4hE+AU9E5HzEGQQndEeu23+484pSd3nPUHc0IOYXy66inXJyQ0hat4TkSrXduikSkKfyrE9MGLkm50fVc+A5OZAQTKWoQrarp/DgtTSXeYrI6R73VsqbD036nIXEwJppYmMsdRmm6m1y6M29cvy9vdYEKXusaoH8+MfWJ+YsfOmWDKjnkpdfkEN7yiU4nVC7eq1s1V30dzrlbLu9Kkn7X6RDPZVsWRs3nAIACJ+AX+jxj2ZxrnQX9Mktv5IrlfvkaHm1bNfjKZ1jTV3dlRP9uuUwIDsCzvBWLAdKdTd3j3zo2oXure5RuxVue3m97HKGZD121HTV3x5d+OOcC30nJGs2/jv1EtKF6fWYyoTi9Glz+6IcfLtTOu4USNXLeoynXQWgSYXdlGH0x2aM56otckx/1vVh1zUFgESETyDbWOMlVeDU4ylHe+RCf4sc6TolDeqha29Gu7Nd3WuT06Mq/JTWTNyZaD4mGs1FrEt+vRytVAG72jz0ZC69OtIiv0k5djYDxO6EpJbv3JKOT76Qxreb5bB66GECdrd7mkWHIah9NH6i9nlnSAZU2I2G0eNvqhBqPgoAc0X4BBZaXqH9h310UG5aK+Yi2vqnJ+OosNnZLPv7rlpjP7vjxn+mclc+G9TJbmLcZEVggzo+9X39fioYbyfo+Ik0umxVizRcv5rmoQFeKpdDZhJP6ykVNt/61BpPqcd+hr0oRK/20XZW7fOtM3JQBd2Gt79QQVSsWe/7nTPXv1PhVD/rMlH6c5M9uMMSgASET8AjSWMsLdEu7WmOp5xu17yeGJRQy9NWLE+bpVS6+76SC+rZLrtULD8rDMzPRKPZKqq3xq2e1pOq2u07KdmPRitoTyt4+r3I/J1b8rVrLc9CedIsTcuqAikzi6kEqydp1bzdK+//Xk8cUgG0xHH/+ds35VsVSmVzlexN88QnANmP8Al4QtfzDMnJso0Tk4p0EfhYuaGpxlPek//Qk4Fkvbye8B1x4x6jcqvlmPNzKkTq8kWten9TDf2Uq/IbPQM/d4P8rMzuck//RKPZs2e7B+SpuHGpM1NTZ7q1FT3RxncBatUW2a/HW5qXdtmjl+T4e/VSGyuOP5n78p0Oh7JG6pzfs7pcapznqkL4/n3Py7GP9tpd66vjg3hQfd5uiRUZGLhvPdsG5YwVSguk1qoDqre137HpslDqeD96ybpvPQA4UefT5zi/TDdRzzKsx1JaQTNRZEa1M5NEWmTT9Yku8ZSf03RZo0GRo6Xrp1dX1FqeRt3MBNOv85n63FN+R/5Oaa3U9TxTS3Unpygv7nAUZwZ1PmN1N93oWpydYhWE7zjVKO+nmmmupPyehDsq6clNe34xEcZdpTjuSY9VU8fb+sGn1PkEEIeWT8ATETnf86409PZYITRKF50/Mo3gqXVbNUHV9ua1RYWs05H4BGl9LmE/1ufMGNBzzvUpXZXPoxOT/DLRKGrkmnwYiR6cu1R3copqa9Gzu+3lgU8+91U4Cp89I4dP3ZIBc3wWHeLMGNA2a7Dl1Kzv+cQuoxSjv+d/OVsw1efa7clGh0/pazJk1tp0oXu931SBWe9DjwttvWzGgEap79ETpQ6r4yV4AkhEy6fPcX6ZbuoWPr+ayR2NvGOuZ+ye8G70feL17TpVOErZ8goAWCi0fAJIlr9TXtc9936aaKSZsk+Tj0G9O6cC9QCA+UX4BBBHF6iPjqm80D/FfeQXSLD0FTlZVJx0R6gKPYlrQ3TMqz+K4gMA4tHt7nOcX6bLkG53l0k84UiL1DomMvmFPRzAvEhFj3Htac6oYQ4AsFjQ8glgotC9NhqRC72nfBk8tXPX9cStdrmgjjPxP1v0LHc9saqhk+AJAH5Fy6fPcX4AACCb0PIJAAAAzxA+AQAA4BnCJxYUXe4AACwuhE8AAAB4hvAJAAAAzxA+AQAA4BnCJwAAADxD+AQAAIBnKDLvc4uhCHvNmyEJbTYvZEgG7gxLywefStttswoAAGQNWj7hMwVSsmqNhN55SWrMGgAAkD0In1hwbb9ulIZXzePtL6T1jl67Qp5cbb0NAACyCOET/nK7V77uHDIvAABAtiF8wnfCA8NmCQAAZBvCJ3wnWLLCLAEAgGxD+IRPDcv3zHYHACDrED4BAADgGcInfGqNhN7bJjXMeAcAIKss/dvi4n81yxnpb/5mhfznf2bvBJVsPz83w9fuyl9Xl8iT656SnTu2yn+v2yp//19uyWfXHppPAACATEXLJ3yrxDwDAIDsQfiE/1RvldDmApE7t6Tx7War+PzBs4PmTQAAkMkIn/Adu9TSkLRa93cndAIAkE0In/ApSi0BAJCNCJ/wKe7tDgBANiJ8AgAAwDOET/gO93YHACB7ET7hO9zbHQCA7EX4hL+sLpc9LxeYFwAAINsQPrHgat4MSdNH5vHO81KlV965JV8z2x0AgKxD+ITPDMnA5U5p/OCihM0aAACQPZb8ZFPlY7OckcrKgtLXl70xJdvPDwAALC60fAIAAMAzhE8AAAB4hvAJAAAAzxA+fY7xngAAIJsQPgEAAOAZwicAAAA8Q/gEAACAZwifAAAA8AzhEwAAAJ7hDkcZQN/7PLTZvIhzSxpf/VTazCsAAAC/o+UTAAAAnqHlM0MF9+yVYy8P0/IJAAAyCi2fAAAA8AzhEwAAAJ4hfAIAAMAzhE8AAAB4hvAJAAAAzxA+AQAA4BnCJwAAADxD+AQAAIBnCJ8AAADwDOETAAAAniF8AgAAwDOETwAAAHiG8AkAAADPED4BAADgGcInAAAAPEP4BAAAgGeW/GRT5WOznJHKyoLS1xc2r7JTzZshCW02L+LcksZXP5U28woAAMDvaPkEAACAZ2j5BAAAgGdo+QQAAIBnCJ8AAADwTEZ3uw+t+69maWYKbvy/ZgkAAABeouUTAAAAniF8AgAAwDOETwAAAHiG8AkAAADPED4BAADgGcInAAAAPJMVpZb+4ee/lH1PWYvKsNwdGpZzn/1R/uegWZWAUksAAAALIwtbPldIcUFQ9jW8KP9g1gAAAMAfsq/IfOFa+d9/tlN+XjAsf2hqlv/h0vpJyycAAMDCyL6Wz8Gb8s1fhs0LAAAA+ElWTjgK3yd8AgAA+FFWhs/gyhVmCQAAAH6SxaWWhuX7FLPdAQAAsDCyOHwCAADAb7I4fAZl3/+xVf6h0LwEAADAglv6t8XF/2qWM87/F/iRWYo3/N0dGSwskSdL1sj2/1ol/9uzVfJ3T9ySL74btd7Pvf9X6xkAAADeyupu92LzDAAAAH/IviLzWvmL8n+9GFQfCMupz/6X/M/B++YNG0XmAQAAFkYWl1oalj9Y93ePD54AAABYOJRaAgAAgGeyOHyukCeZ6Q4AAOArWT3hCAAAAP6SleGTe7sDAAD4UxZPOAIAAIDfZF/4LFwrdf+N8AkAAOBHWVHn8x9+/kvZ95S1OGHosrz9f38rYfPSiTqfAAAACyMLu92H5e5/XJZTn7kHTwAAACyc7LzD0RRo+QQAAFgYlFoCAACAZwifAAAA8ExGd7sDAAAgs9DyCQAAAM8QPgEAAOAZwicAAAA8Q/gEAACAZwifAAAA8AzhEwAAAJ4hfAIAAMAzhE8AAAB4hvAJAAAAzxA+AQAA4BGR/x+Ga6ZbrkZ7LQAAAABJRU5ErkJggg==;" vertex="1" parent="1">
          <mxGeometry x="979" y="860" width="671" height="1085" as="geometry" />
        </mxCell>
        <mxCell id="QpZZbZkxJaNFYBWu2Nyi-2" value="" style="shape=image;verticalLabelPosition=bottom;labelBackgroundColor=default;verticalAlign=top;aspect=fixed;imageAspect=0;image=data:image/png,iVBORw0KGgoAAAANSUhEUgAAAm4AAAPqCAYAAAAq/tNpAAAAAXNSR0IArs4c6QAAAARnQU1BAACxjwv8YQUAAAAJcEhZcwAADsMAAA7DAcdvqGQAANhISURBVHhe7P0PbBRngid+f429P8u25AW3nTVObDoJ2BiJYPCFMGthBDfJKslwtsKLZe4njcIojCatewliB4mciHKjoAsSu4jlvfNEIRqike6wzJuRvUwSzWQmCEeeADkbM0gYG2ZobDC8sdv2cbL9s9aG93mqnuqu6q5qd7fb7S77+5F6Xf10Vz9V1Wz6O8+/ynhhQ9UTEBEREVHaW6b+EhEREVGaY3AjIiIicgkGNyIiIiKXYHAjIiIicgkGNyIiIiKXYHAjIiIicgkGNyIiIiKXYHAjIiIicgkGNyIiIiKXYHAjIiIicgkGNyIiIiKXYHAjIiIicgkGNyIiIiKXYHAjIiIicgkGNyIiIiKXYHAjIiIicgkGNyIiIiKXYHAjIiIicgkGNyIiIiKXYHAjIiIicgkGNyIiIiKXYHAjIiIicgkGNyIiIiKXyHhhQ9UTtU1E86z5U5/aik/jm01qi4iIljK2uBERERG5BIMbERERkUswuBERERG5BIMbERERkUswuBERERG5BIMbERERkUtwOZCl5Kll2PDjZchRT4NGHuPPv3qMCfU0QqL7UQTn5UBG0flFJ85d7oP/ripCOQ59+kNUiy0uB0JERJILglsGSn+SiacL1FMnaRMi1PEituMprM/C6tXqicUTTI4A93/7GMPfJ+krSmlwy0D5zzMx29dmNvLFNPpuqCeLlFNw6zzdhOMd6kkQgxsREVmxqzRtZSCnIAOrf5yJDVszVNkcff8Y1/5pGpeCjxmIbDi7RPejGI3i/j19q/adPVq40x96aCMiIjK4qMXtCe7/egYD36vitJVYi1tEa9NTGSisWIbVL8nQNl/nrlrF4m6tTHw/d32XyWff4jaKf33/LP4ntuDELzahRJWascWNiIgktrjNg5x4+gedfP8Ew988xn02bREREZGy6FvcctctwzNblqEgGKaeYPL2Y9xqfRK1pSiu/dZlYsMW2bWpnkdzewaXxGcYHFvcNDGc+1PiPX8vjnO1qF8VTY48wcilxxi4MdtX64IWN4fzu//bGQxH2z+O66J/B09w+58eI6d+GZ4W+8jve+SLGfGdiM+JKNN2S0jUMW732OJGRETRLeIWNxkSsvDCa+bwJYkf8tWZeEEEj9KnVJFFYvslpZXNTHaVysAgPlcGxsiQIwNFJrb8WAQhUziR5Ni4p1/LRPk6VeBSuVudz2/1j7Mcxv4lfl2elqFSC2hSBgpEcJefZSkT+xeqZ0l3dwQP1CYREZGdzL8rLv4vajtNZeBvNy5DvvgF/j/XnuDRuCqehfzRX7PGaCV5jGttj3HvT+Jx+wkySuXnZSB/Qwb+nz9ZW9AS2m/oif4e7fEEuX+/DDmyNeq/z+BOsFw9bqp9lNy1ekDMWbMMz4j9go8Noly8fv/CY/R9Y9Nyti4T617K0FqR7p4T7/nKqOMJ/p9METCeEaFFnEf4+VllwCOPdfIJ/n9Xn+DfVOnsEt8v5u9SnF/1dvU9XH6MW82Pg9dyZEx8B+LccsQ5ZojvxfI5CVwX/TvIwN/k6C2BN74S37Uoyxdl+ap1MFgmvn+MPUZgSO0cp/9X/Ytqy+pB13f404AHNfXP2ba4/X9bv1NbRES0lLmoxS0DT/84C1t+bvOoN1pElKeWYY1pUH+fuWvs+ycY+NWMGjsmPtPcapPofvNFayFahvJ1NnXdmMGffz2Na+KYrMuFyLFxM7h9W3+WY9uqmO4yULpFP2eta1IEV3P4nBDnfu0Lec4iiFWEXZs5XJdJERD1ls0nCNzS9zWXyeVZkm8Ug1/8AefkUiCrCrBSLyQiIrK1OLtKC1UXmW0XoyRC2CX9h1m2vuRqW0Ki+yWBHOMWWm5DX3Ljz188xqQMJ6/ZLwkyYRyj7FZdJwJevXjfTzK1MKuvDSfOZ9769eaROB+tm3rkMe45jSe78VhbksTue0j0ukwGzEFPZy6bsHk9YQ+6cPjNJjS+eRYHW/rgX1WO//gz+/FtREREBhcFN9kKFh5u1MM02F/K9eh/JwP6X1vDT0QoEgpCP/yJ7jc/nmBChJNrv5bhTQSUl5ZFjK2SEyjKf5KljedaLcfkyTFd4rhczwjQBcvwgrll1fJwXtzXjdfFKx5P65tERESOuBxIuvv+CUZUF52le29dZmgChZwteXkGt38tuwlntDBrdAkuOW65Lis34Zi2yO4eHGoohP9uH45/1IVB9TIREZGdRR3cclQLmi2jVUf8uIcP3k90P4t5bZHLQPlrsgXpCe5/IQLJr/RxYHJM14RlXJdLGa2acukUc8uq3cOyHIkbr8sKVL/WgEM1YpOzSomIaBaLMrhN9Kof/tXLnJf8UIPfJ2+FAlii+zlJysQAY7yXMBk+7k6Ex4DtWm0qXMYq0ZA5X+HUaGV0/B5mkazrQkRElGYWZ4vb949xX+sSkzNR5bpdpvFNIgjpi8DKJ09w37zURqL7WYjQYXzGj5ah0Bw8tMHyps+MSoSidZnBm7vL2Y3D+gshBcuwZqs5PKl9tPXIVNEs9JmS+izZ4OfI45wlMCW6X2yMSSDqe5B1WD5X1LNVnOfPHdZUS8J1ISIiSkeL+M4J5qBlx+nzEt3P5KllwcAVSa7QPxMMYcadE6KyuUOBXG/uBW3pEhsjoo5b0O5zan9HhhDHzwm7w0O4xPaL77uMeo6SOE95BwXz5yRyXezuXmF8zmxl8eK9SomIaC4W8Rg3ue7atLakhjG4X/cEkyJc/FmEJ/vgkOh+Jt/L2aAzYn9rgNFu1SQ+N6LlzIH+fjlWK/K2UhPfyOVCxDGZjzH4fhEMo82MNdE+57LqIjbIz+lT2w4S3S8eso5L4jrevx1Zj5x08GdxnuHfRbKuCxERUTpyQYsb0eLBFjciIpoLLgdClC7uXkLr1VH1hIiIKBKDG9GCW4F/95I+zaL9X85qrWv64w/o1EqJiIh0DG5EaaDktQacaCiHd5UqICIissExbkQpZD/GbXYc40ZERBJb3IiIiIhcgsGNiIiIyCXSuqu0rMyL/n6/ekZERES0tLHFjYiIiMglGNyIiIiIXILBjYiIiMglGNyIiIiIXILBjYiIiMglGNyIiIiIXILBLe0U48Cm93Ct5j20la1XZfEyPsOHA3mqiIiIiFyPwS3d5K3D9hx901taiZ365pJXuPuf8Z8+/UdUqOdERERLEYNbuhm/gQuT+qZ/oAfn9c0lzos1m1YCD+4joEoWk8KaRrz24f8UwVQ9PvxnvFbjVa8SERGFMLilnYc42fUBNnR8gLr+66psqSvFCpHb8PA+hvWCRcKLinf+GY37/gOek+dnWLkSz+37ryK8qedEREQKgxvFb9UWHPrQh+ZPfTixu1AVzqOazXhO/Pnr//pGf74oePGDD/8rXt64EqNXf4nm9/8j/tub8vGf8dXnD7R3PPejRqTg6hIRkYvwXqULSk4i2Ie9akxbOP/AadT1P1TP7BSjsqgWx0or4FWf4Q904JOBr4HS93DUE8CZ7iacHNdfS5bad3zwbVRPMIq298/i7F31NCm24rUP6/HcSnMzlJNOfPXmP6NXPTMrrPlH/MOPqvXWOs0D/PXzVlw5902UljvZCvb/xr8TgWqFKhm9+q/4X63N6H3mH/Gf9pWg8/1/xLfa+erhq/rhL/HfWoEf1NejWuyHB53o/Oif8a04j4gy03WSrW3P/6//D77oCP83rj53pfO5ERHR0sQWN9fSQ19zeSi0SV5PDY5W+fBWripwo1VPi7AVS2gTbMe9yeD3P9G4zxzapJV47vW30fihQ0vWqkb835/qrWBGaJNWbPwPePkX/4zX/l21eDaIkWD4Ul242IzXfvG2HtCkldV4rv4f8X+HlVXXb9W3ld5/+Ueb0GaySMf0ERFR4tjiloYqy3xoLvVEbXHbuVa2qMmtAC72/Qb7h/T3Veatx9sV9dimhbn5aXHTukp/tgnVIpMMft6Cg+fmc+SZCGGfvo3nHvwrmt9tjmGMm3q/0bp25RsMG0Fr1Vb84GciTInj/uvp/yhCkyrXGPsJoq6vPmpGr9pPa7mTIVA+MR+HDHq/+A96uezu/BdRl3jvfxLv1YSXief/TTyfnX4sKz7/z/gf55bev38iInLGFjc3ytuBt1Rok8HMCG1Sz/h17O86jTNqZuq8uHsJx99tQuObTfMc2gTZ+ib/xjgxoeIdGb468dX7/4gvZJeoqWsSd7/Btx/9K0bF5ooS66xNfT9BhisRzIzQJg13/DP+x+lO/Yn5OJ5RxybDnAxocvvefe3zLWXK6OCA2orOOIf/xdBGRERhGNzcKLcQWuwIfJP81rR0o8JRbBMTtuJ5bexdNV7+hWl5DfPDaCEzW9WIfyf3U2ErGvNxFJaUaH//+ltTS6BxvKYy432jg7MHMble3csbH6DzfY5tIyKiSAxuLlSZo4/Q8k8MaX8XswptXNkDjN7Tn0elZp/Gq3Dzi1rYGu26ZGkhM9PDl/U4PCVy/Jq1zO549fd14i+WrtlIMrQ1vi67cY3JD0RERFYMbpTGvCgoln/NEwKcBVvAThtLazg/zGPHjAD21ytOLWJqAWDLcRite+Yyu+NV74s60UCt5yZCm5yxah17R0REFMLg5mLe3CK1tVipWZtXr8TVbRg+fm3u1HGYw5cx9s5ybDbHO9sYvVVyBqycyTqojctjSxsREUXD4OZCPYGb0NqGPA73Ms0rwnMOa8MlRaoW4DVCT4yGBwe1vys2bXFcuLawxuvw2kqseEZtWsjWMDVxwWZigmXCgeqqtZTZvU+Rs1XlkiHP4V/RLNdrY2gjIqJZMLi5UfB+phU4uqkBO/O0Uk1lUQPaquqxTT2fD7X1+lIgUsnrL2PPKn173mysxw9M9+4slMt6vNMYecP5jiv4q/y78j9oa7VVmI5L30feXuq/YnPYraQCg+pOBfv+0bqPdg9R2RqmPzeHL7sJB7GWBbtG1RIhsS1zQkRExHXc0lIs67jJJUHaqmpEBLAx2YuLExXY5to7JxiMOwiop2Ei12ITzOuo2ZC3l/pd2DIdljXcwj3oxFddJXhZjT8zujIr3vmfavZneJn5bgd2d0CIfk4W5jXjiIiIBLa4udX416jrbsWZgHnIewAXB1rR2NWCX07M35r77a1d6NQbqTD4+VfzFNokP7599z+j86qqTBmVYep9m9Amdfwz/tv7v8RfH4Ttc/VftX3+R0Rok77BF2IfSz1i/7+e/s8iOP2zGtc22yQEVWaZhGAzNi54t4UYLLqb6hMR0VyxxY2IiIjIJdjiRkREROQSDG5ERERELsHgRkREROQSDG5ERERELsHgRkREROQSDG5ERERELsHgRkREROQSDG5ERERELsHgRkREROQSDG5ERERELsHgRkREROQSDG5ERERELsHgRkREROQSGS9sqHqittNOWZkX/f1+9YyiK8aBTfuwNwfwD7Sirv+6Kk+CvB1oq6qBVz0NmuxAY9fX6FFPiYiIaH4xuKUNFbyQYBiyhKteHOlowXlt20kc9S2J4JaFPQ0rULdcbI5N4HDLOLR/eWvy0bw9W26h88IQjt/SNu158nBiVy5KxOZg9ygOXpnWy214NxfgWFWmemY1ODaDB1cf4dytaf0YTGpfKYIv4ovQRdsvKedHREQLjl2li8X4DVyY1Df9Az2zhLY4jX+Nuo4PsCH4aMVF9dKiNGYXfGZwb0RtOvA+n62FNqnEmx0ZdGNUsjwT1dtX4FhDXlyfEfN+CZ4fEREtPAa3ReMhTnbpwSqp3aQUoyz8wJuptWa1dc8Ay7PxA496KQrZMtf48ZDpMYrDFyYwKF9cnov9m7O094WTrWOJ7EdERO7G4JY2ivBcjtpMiVTXNwertuDQhz40f+rDid2FqjDZpnF/TG2ajczoYWg2nmy8uFwEMf8Uzv5lSuyTiRefTyQ8TcN/axwHP9NDWOwtd2q/C1PaM9n6ZjXH8yMiorTA4LaQihrQtuk9XKuRj3psk2U5NWjWnoc91q7XdtHJ8Wk271GPtrJi9b4wCdeXBHnrcWCtD22mOto2NWBnnno9itr6TaheqW+XvP4y9qzSt+eLHCsWSQSfgNq0U5CpdZM+GJ0GAtN4ILbn0l1qfAZEACvTCmJkBLHlWY51J3R+RESUFhjcFpg3xa1eqa5Pqizz4VpVPfZ6PJYw4c2pwNGqKEEzxfpVoNHCl8EIUOK1fq3AXu2zcoD/FC5rg/vFXzmILMbu0mQKjrOzGcc2l/MjIqL0wOC2kIZaIgf8y5mawTLT46Z53FpoPJv50TgwS5NJwvXNQVEDmktlegng4kCrpa7Gvl4tXHhL38CBKC1v7a1d6NTSBTD4+Vc4e1ffTja/OdAEzeCeXRejRTZekonUP4V2vQDtd2SXZaLdpcKabFTLvzEHqizUbs7HfjVTtVOr3yrx8yMionTB4EbzqBgHSiu0rYt9Tdjff92ydEiPCJJ1IrwBHmz3RGl1u3sJx99tQuObTTh4blgVzheH2ZW2MzEVFbIsYenWFDrFn/i7S7PgXZOPE2qJDjlmzq7e6u1FaP6p+bECviq9tW3Q/yjKsh4JnB8REaUNBjeaP3nrsF12zU524JdDelGEoR6t5c9buA6VesnCufUIjR+P4Kyl4XIaZ1uG0Pj7yBYsg7Wb1BBbd2lJ1YqIAHZMhDYjgEVbCy7c4NgEmj4bxUGnY03w/IiIKH0wuNH8yS3UW5ucJkBoDzVJwrVUN6n467MEMGOh3Pi7SwfHptB2IUoAE8zLgRyWy48IJWPTaA/EHvSIiMh9GNyI5sIYixZFtO7SyHXchnCw5RHO3oo9gPmvjGvdsvDmYU+KJ0MQEVFqMbilm5xCrFabKTGf9U0M6+OmAq3WiQ92D5feOkvvJp1B22fW8KU/RtEmB/7P++zSKZzTWt0yUffv47vbAhERuQuDW9opxPMxrG2WPHOob7bQZ9yGy7M16qzRWaVkAd5EqG7SsSl8azuhdxrf+vVAlfDs0hj5rzxSITEXu9foZUREtPgwuKWN6/hK+/H3YG/FDuvCtHnF2FmU7LXO5lLfEP6q3Re1Am+VrQ9NKshbH7ag7kOcHNBnje6t8uGUfK/ldVFPWQPaahqwU5XYSfUCvDFT3aROMz8lv3YXhURml8ZrGmev6mPiqjey1Y2IaLFicEsj5wc69ACQU6MtTBscwF+1D0fLa6OGm0QkXt9D/G5Yb2LyltaHJh5U1eNoadgdF4Za1PpyHmyT7zXXUyPqKa2AV4TA1LYyJofeTRq2oG244B0QUrAY762JYKsb71VKRLQ4Mbilk/GvUdfdiouT1n43/2QvzvS147x6njRzqK+nv0kEMn0B3SC5XyBy3Q/53g2injOBQNj71aK8XS04Oa7KbKRqAd74GLNJw5cBCaeWBUlBd6m51a2kKhe12hYRES0mGS9sqHqittNOWZkX/f2Wn3oiIiKiJYstbkREREQuweBGRERE5BIMbkREREQuweBGRERE5BIMbkREREQuweBGRERE5BIMbkREREQuweBGRERE5BIMbkREREQuweBGRERE5BIMbkREREQuweBGRERE5BIMbkREREQuweBGaagYBza9h2s1PhzIU0W0BGRhT0MRmn9agD0eVURERBYMbhQnFao27UClKlnajLAhHg158KpSrMnXy8Tj0BpV5sC7Jg+HGgqC75ePE6/koTatwos6T/M5ul42DhnXe3OWKrPybta/F6fX09/c/30SUXphcCNKlrFp+NVmyAzujajNCOJH9ZUCHNuei+rlmapMV+LNhW9XAX9UU6SkKhe1anvRivvfJxGlIwY3ogUhW0JWoM4rA9sMOi+M4vDHQ2jUHqNo6p7CIDJR/Wy2/naaZ9mod22rGhEtJQxuFKciPJejNtPdqi049KEPzZ/6cGJ3oSpMtmncH1ObZiMzInhFsSYXdcvlxhSaPhvB8Vvm1pBptF95hIOfjaLx91OqbKFl4hnteBch/xQ6xZ/F2eqW4L9PIkpbGS9sqHqittNOWZkX/f2RjfuLUzEqi2pxrLQQ3hxjcFMA/sA3OHzzOnpUSbjKoh14u7QG24JhavZ9NHnrcaB0K7Z7PMFxL/7JXlwYaMfJoYeqRClqQFtphTgu9TyaQCs2iLojxXN+chzdPuzNCeBMdxNOjhdj59o38Jb5WAMdYr+vo55j7Ts++DaqJxhF2/tncfaueppEta8UwScObLB7FAevTOuFnjyc2JWLEhnMPn6Edr1UUa1tIgh1XhgSoU0Vx0GOi9u9UXaxqgKIH2L/OE6JoBf1/2M82dhTnYcXvZni2HSDY1P47uoEzorwaLEmHyc2ZqMklsDmf+QQMrPEseZi/8Ys8TlGd7DTsRrXZQZtIsyeDWSJa5uPevOx+ifEfuPRzzFmcoxbPqrFsR8ey8OxqkzrdyjIMW525UFxXE/934n89zCBp8V5hVpbZXCX3ebhZdpuVg71tf5R/BsLqIIw8f/7JKJ0xha3dCBC1CkRVJrLZTgyj0gXQcVTj2bb2ZX6JIHmcnNok6LtI4n91vpwraoee01BSPLmVGBv+T6cKlIFJjGFNicJnZ+Sq+97NPxYPTVoTpMJEv1jM9rfB6OmH+rANB7Iv+K1fq3ARPz4vqha2y7HHdpkuClS4+JUkUb8kHvzccxxRqYMBgVo3qWHA+NHXypZno267Stsx9PFFNqciPM8JILYse0y/JnH8M12rEKBvq8v/Fi9uTiW7AkSy7OAK+Nxtroldj3lfvXBLnIpE9Ub88RnhZVtz484Dm2ihEN9vl3OEyji/vdJRGmNLW4LTgSTmnpsk5uTvThjafEqxs6yWrxVWoG7fR9g/5AqFirLfGgulb96AVzs+414Te0jW9IqRCjTglYvjnS04Lz2glLUgGsiQMnWtU9623F+3FzXGziqfabNfkHqeCc70NgVvcVLl8j5GS1u6qk4xzPiHI39KsU5yBAoXQy7Lhayq/Rnm1C9Ehj8vAUHzw2rF5JMztAT4cTaeqZajzCBwy1hLUTq/c6tVM6MFiC9VeaR1sWqkS0x/178qKtAGNGKourUW2cm0C5+uHVZqN2cD5/2mdFaX1Tr1JjN+dhS75ebos42SwuUrDMX9VXZeGB3zYJhcQZt4hyN/bziHGQIlBJtqbSynhNsWtccW9wSuJ5Gy5d2XqpFMXS+kWWWczT+zcjvvXsc566EWivlddkvXisJfoZ6waD2jfnfJxGlNba4LbDKsq0q1Mgg1BLWTfkQ5/tbUNd92hpO8nbgmAptsisxGNqk8es42XUaZyblkwq8VVasFQcNtaCx+wPUibpCoU2SdTXhiPYf/UI8n6T10xI6PzMR9o50NFn26xHnoB+nyGY5YedndvcSjr/bhMY3m+YvtAU5zM4bi5zJ512R4CB4Tx72q9Amf6CDoU0KTOFsyyjatPFMNgPtbz3C4c+GcLBFdqmZ9tPG042gSTvILDzt1AIWJ+/mPBXaZDAIhS9daAyfY/gSgajpYxFCTPv5xTnoxwmsTPQaRuGPp9VtDtdzsFtcD+3f7zS+9eutYeayyDFpImRtNAKr+N5NoU2S1+XgBfk/ADLx4vNO1yX2f59ElN4Y3BZUMf6hUAWw3iitV5aAJeQW6l1FgW9wclwrCfMQJwd6tS1v4bqI7sQeY5+8Yuws2oFTa31o2+TDtZr3cFT7ofHguVztHXOU4PkFyf3sW/5uT4Q3Kywg8cPZKEOG5ZCmRZAaSu7kggLVReYfj2xV0Yg6r+r1lXizI7oT/cY+nizUyrXjXinACbV+nN4SlIlnCrR3zFEWfqB1+4mA+ccorTmWwGMm97Nv+TO6/ebHFM51y8+PbYZpotfT0mWpmMsiztHoWhch+JxT0L2lJljYfO8p+/dJRCnB4LagjBmaw/iLbQCzV5mjz5D0Tzg1UwkTw/oPpnjvaq0gRE5oOCUX0a3ah6NyjJwcP2YZe5YsiZ3fYuc3fqSXZ8U1VstoqRuMFl6M2YLLM1GmFYToC/0WoXnXCvjkGDk5Vips/bjkMGagTuO+bcBMX/G0uqXsehqBfXkujqlFcyMfqluaiBY9BrelRhsfpiY0TPbi4kArjnSfRqN4bOj4INgFSfMoSriaN9r4MDWhYWwKnd2P0PTZKA7LJUc+Hgp2QZK11S0YssPxehLRAmFwSwuJjSnz5tpM/zQY3amTw7itFUjrcUob1C8H+4ug1tWC/f3XtbFuPY7dlQ5sWvKcJW/M3KIQmMJ3TmPRYhC1VcdonbHMFszGITWwve2CCBYtj7RxUnJslt+xu9JBXGEzeWPmUinY6mbX7ahJ4vWMhRH05WSW4CLNDg9ONCBa9BjcFtR1fKW1cHmwtyLK0hZ5xZbXegI39f84e7Y6L/lRqs+69A/fiBxbNnkTv7NMEjAU43m1NbtYwlhi55c0KVmANxGhQeklVfnOS2LImaJrQsHO/xd5NwXBm+e85IcaxD7ot1nPbWwK31omCRhEwFJbs4sljE3hslZ5Jur+fZSlOzzxdRWnjmp1W56L3c+qIjtJuZ4xMIK+4/dOREsJg9sCOz/QocaiyXXJGnCgyDxLUi5a24C2qn1oXrtelQnjX+MTIxBV+XDKvI9cDiS4lEYvPum3CWiirmNl601hSdUj95v1h8Eaxnaaw5s22cE6yzOh80uS2np9KRCp5PWXsWeVvp0O/FceqRmgItzIe5JuNrfuyEVr83FCrtm13RTsAuNoNQKRdh9TU2udDHnBpSWm0Gq3WKwIIvvt6pH7zZqgrGHMcgN8bXC+teWwvXNCdQfLddfEOVheN85vBY69ogfNdGO0ulV7oxzfnK5nPIxJJ6Z/K5b/P9WXIDnx08i134ho8eE6bukgb4cILzVRWh/0ZT+sM0jD1zoLZ7ePXJ7DWP/Nhlx6Yxg4WloRfX20qMdrswZc3OdnnJv9OUjGefgHTqPOLpwKqbpzQuLM63jZsVtBf/Z97NbyCq3/ZkMuvSH+38xXFb7WV5jgavt2rGuWaaK+Xwo/VuPc7M9BmvVOBnGJvjad+ZqF15fI9TTWcTOXGZ8zW5kUtU5J1Ctn49rPOCaixYItbulg/GvUdZzGkYFe+LX11wzyllCtaJTrmEWEl4c42fUBGvs6cDHmfYCe/iaxT1g9cmFcNebtvOWzHMjj7W4V9Vp/IeSivmf62iOX70jo/OauvbULndry8OKH9/Ov0iy0SfqSDIcvTKDTMlNU3hJqQt3DVBUFmfdRRRq5zyMcjlj2Qee/MiL2mcKgeR/5Q6/GaLWPqrJoAuM4+NmjsGMV11b7nInI5Tvk+40b5sdxrOnCaHWzk5TrGSdZZ6O4/m1+NebNIL4POTlCWy+PoY1o0WOLGxEREZFLsMWNiIiIyCUY3IiIiIhcgsGNiIiIyCUY3IiIiIhcgsGNiIiIyCUY3IiIiIhcgsGNiIiIyCUY3IiIiIhcgsGNiIiIyCUY3IiIiIhcgsGNiIiIyCUY3IiIiIhcgsGNiIiIyCUyXthQ9URtp52yMi/6+/3qGS1txTiwaR/25gD+gVbU9V9X5ZRaGSj9SSaeLgAmL8/g2jf2//nI3ZqJF17KiPqe9FSI2t0von7TsyhZqYpwB01vfol29YyIaCGxxY3iJAPUe7i2aQcqVUlK5K3DdhHaJG9pJXbqm66Xu24ZykUQ2vLzrOBjg3he+JR6gyMZoMT7f7IMuaokJZ7KQIEIbVLOS8tEzFlcat9pgO91c2gjIkovDG7kDuM3cGFS3/QP9OC8vulqWqvUa8tEEMpQJboc8Xz1j0WAq89IbSiLxfdPMDKib05efoxhfXORKMTTxfpW5+kWNL7ZpB5sbSOi9MHgRi7xECe7PsCGjg8WRzfpOr0rERBB6IsZXPqn6eDjz1881sJRzupl8Mza8pZqTzDwK/043dUFGocHXTjXsbgiKREtHgxuFKciPKe6LBetVVtw6EMfmj/14cTu+ekMLCzXW9lkq1XfDWsAmrghyn41gz//egYD36tCGzmqy5KIiJYOTk5IG8WoLKrFsdJCeHM8qiwAf+AbHL55HT2qJELeehwo3YrtHg+8qsg/2YsLA+04OfRQlRjUAH90oLHra23ftyu2YptR32QAFwd+g/3h+xU1oK20QhyXeh5NoBUbxPFGSOQ4HerzD5xGXX/4PpL1/HrE851r38Bb5joDHeJ6ytec1b7jg2+jeoJRtL1/FmfvqqdJUlifhdWrow/wj7AuExu2ZMQW2G7P4FKr9XP1CQPAfSMQPpWB0r9fhoLV4jP1t2BS7HdL7DehPQtNRLAzl8kJhfWZ4vxFeBX1/TlYn4ndsY08wf3fzmDYIczGf36RtO++uAuH370ETosionTEFrd0IELNKRE4mstlODJCmyQCh6cezTU+HMhTRUEipKz14VpVPfaagonkzanA3vJ9OFWkCsLlFOJtsW+z2DcY2iSxvU3sd23telUQElNoszWH40yUOL/V6poeDa/TU4PmVE+ssDHcp4cZbYB/HN2hyWplkyFny49FKDOFGkluO4WaZJF1RwttjsdmjP3bah0TaGdO57dyBcrUJhFRumGL24ITAaNGBCi5OdmLM5YWqGLsLKvFW6UVuNv3AfYPqWKpqAHXRNCTrVaf9Lbj/Lh5nzdwtFQGsl4c6WgxDeS3tmTJ1qdPBr4W+8pn5v2Ai+H1BanjnTRatWaR0HHaqywTYVO8f9YWt+AvdQBn+n4TvJ6V4lhkOJacz0+QXaU/24TqlcDg5y04eG5+xjsZrW4a2Zp06TEGwrpNnWWg/OeZKBh5jD//6nFMYUtvkcrAyO0nWiuUrPP2bx9j+HujzgzkPiWCVJTuWcn4nERa3IxyOB33OhG4XpPB7AlGLj/GPbGv8Z5c8doa8VqOeC3YqmaSjPPTW1u5/AcRpS+2uC2wyrKtKrTJINQS1m34EOf7W1DXfToyZAy1oLH7A9SJfUJhSJL7NOFIQG4X4vmIljqdFn5uGqFN0vdrHNB2xDZPZKtbQuZ4nAkTQfFIR5PlevaIY9HrE9ksR00ftHP3Eo6/q88onK/QJg23TuPPl59AmyxbkIGnX5PLgmSifOv8ziaVoUYGqku/kt2O5uA1e2ibi1lDm+ya3SJDm3jLFzPoM4U2aeKGCIFfyOPNQEGF/j47iZ1fIby7X0W97CJ/MIp+vZCIKO0wuC2oYvxDoWxxCuBMb5TWK0vgCekxQldeMXYW7cCptT60bfLhWs17OKo1nHnwnG0CCOBCwOEzAzf1sT25RUnrTkz8OBMlr6d9C97tCZXc0sTENyKMmGaSaqHkJRFwZIBb5xxO5uS2c0vZfAmFtie47dRCaKwRJ4LdvRt6UYQb4jqJPzlrooTbeM5v1Rac+FRORGnAMbl+24M7aPuI49uIKH0xuC0oY4bmMP4SbPmKXaUMQXIx3Kp9OFpeg21yPJdljNwcyHFianOu5vU4Fwl9Juk0Lv16Bvdvq1al12R4019PpskUZ1fZxamFNo21Fc2iUI1HK1gmgmtoQWLrIxOzDfOby/kNisd9fZOIKC0xuLmVNl5LhCD5SzfZi4sDrTjSfRqN4iHXOjO6BBecW44zXXz/BAOtM1oXqlSwJcV3Rki2NSKEyTFrI49xW56TDGX189SSmIi7l3BQW2S3BU2fj6Jk5bPw/WyLZUILEVE6YXBLC/GO8VqPU9ogezn4XgSgrhbs77+ujSHrcehWjVluof6jNTmM21qBg5ha5ObxOBe5iV419m02BWl4dwUTORPUGNM2/M0Mbst/VKsdWhKH1Tnfti5IbPuIcUJG7IbRfu4smq6KTc4qJaI0xuC2oK7jK63FyYO9FVGWqMgrtn9t8iZ+F7EGmlSM59WWE/sxZcU4UKrPuvQP35hlxmgcYXMOx7kgUrEAb/0sY9iMbsMY5KTd3RVMwiYiDLfOaGPUZDdwafhxf69up7V6WeRrRESkYXBbYOcHOvSB0DlyfbEGHCgyz3aUi/I2oK1qH5pt1laT+xwrW28Kder9ckmMqEPI5HptPpwy7ysXyA0updGLT2yX25CsYXOnObxpkw9sZmsmfJwLo7ZeXwpEKnn9ZexZpW8nzVPLtPXFZHjRbyhvDXByTNgGbUkMkXsuObUsiZCjNYlm4Okfha0FJz6vcL4mNsRp8lb4mLYn6FMzQ+VxW//3wxMMXFKv/VjNrrUEOHFeW8W1+bm4ZqqEiGipYXBbaONfo67bCG/6grRytqX+UIvyyq7GAfPdCK7jl2rZDm+pXKA3/P29ODLQq73uxD8pwpt5X7lArhbaRF3d0ddUM4fNo1VG3fIz5OSDWuzU3iXN/TgXpe8f49qv1f1ItUVl5TIgoQH4ckyYNiTw9gz6nGZXCsN/eqyWElmmLUwb/AzxeatfE2FOe1cauqHG8NmNdzNek5Mz5Oxa83mJwLb6JXFt5HWblxY5dZN5LgdCRGmMwS0dyPDWcVoLMX7LwCZ5y6tWNMr1yMJmnfbINdf6wt4/2RscS3Y+6gCpAC70fhCxv1yQ90h3ZF0RtLDZioth0/fkIrtn+totoW9ux7kw2lu70PlA3x78/Kuk3+5KI8Kbdj/SL55gUnYPmshbO93+9Qyuhd2yKoIWAGdEALS+T7s11BePkc63SZ/45jHua92ikV3GcokUY3at5Z+HOK+Ry+KaiesW7R6uRESLGe+csKQYdxaQrWoxBDSiJaUQez5sQB14r1IiSl9scSMiMlu5CbtrOIqOiNITgxsRkWYY33aNalvV+xq0WcX641XUaqVERAuPwY2ISPGfO4vDn9/BoBrjSESUbjjGbUnhGDciIiI3Y3AjIiIicgl2lRIRERG5BIPbApItikRERESxYnAjIiIicgkGNyIiIiKXYHAjIiIicgkGNyIiIiKXYHAjIiIicgkGNyIiIiKXYHAjIgrKwp6GIjT/tAgnNmerMiKi9ME7Jywg3hmC4ieDxQrULRebYxM43DIO7V/Qmnw0b9eDRueFIRy/pW3a8q7Jw+6N2ahenqlKgEH/BFo7x9EeUAULTp0nTOeYCp48nNiVixLtyRSaPn6Edm07Web+/RHR0sYWNyK3Gpu2CTQzuDeiNiOI0PBKAY5tz7WENqnEmwvfrgIcWqMKlqrAFL4b0zcHu6eSHNrCxP39ERExuBEtEaqlxysD2ww6L4zi8MdDaNQeo2gSIWUQmah+dql3D07jbIt+XQ5emVJlRETpg8GNKFlWbcGhD31o/tSHE7sLVWGyTeO+ahGyGJkRwSuKNbl695zs/vtsBMdvmVt7ptF+5REOfjaKxt+nS1jJxDPa8S42CX5/REQKx7gtoMU/xq0YBzbtw150oLHra/SI5zvXvoG3PB4Yd2n1Bzpw+KZ8zUHeehwo3Yrt5n0me3FhoB0nhx6qEt3Ote/hqKcXRzra8byoZ6/YBwjgYl8T9g+JY4ko03azcqjvk94WnB9XBQ5q3/HBt1E9wSja3j+Ls3fV0ySqfaUIPnFwg92jOHhlWi8Mjs2yG5cVGleV8PgpTzb2VOfhRW+mGv8l6h+bwndXJ3BWhEAr6/g0ue/uf58X6p4dm0Hn1UdaeLRYk48TG7NREktg8z+yD5mJHKdDfZbra2E9P794XvtKPurNdfoncOr39mPz4v/+iIhC2OJG8y+nEKtFIDolQtxRUyCSvJ4aNG/agUr1PEQGLR+uVdVrYcuyT04F9pbvw6kiVWBRiLdkWNQCmuTBttId4rPCysobsFM9M1SWOdd3tOo9tJUVq5KF1S+Cj/Rg1BQqAtN4IP+K1/q1AhMRZl5UrW2X4w5tIqS8UoDmXflaN6sRTKSS5dmo277CeVycCGq75Zg6sa9lTJ3Yrhb7Nb8S2S0bU2izNYfjTJQ4jzJxbQ+JEOcLr9Obi2MNeZZ/R4a4vz8iIhMGN0oBGXzqsS0ngDN9p7Gh4wPt0djXq7+cU4O3w0NYUa0WoGRr15Hu0D4bOk7jyIA+9dEufMlQ5pX1dOvvPTMpisTn7/WElYljetlcZ1EDmktVa9xAKxqD9enHKVtOvKVv4ECe9m5b7a1d6NR+fYHBz7+al9Y2yW/+wQ+awT27LjipQIUKfwKD7WUXqwglstWqSXalWsbF6QGkens+arWtcNmolvv6J8S+kfvBm28NU7cemT7/ETplmZx5GSwzPcJb2xI6ztB4NvPjsHF8s8qGTwulM2i7EKrz8AV1bMtzsdsmLMb9/RERmTC4UWrIANbRZOne7BlqwRG1/MSqnLDWLPFaowhadV2yi9LcJfoQ5/ub1H6FeN4mSPkHfoOTWrfmQ/xuWK/AXPaXCa3IpBgHSiu0La0Ltf+6petWHmedFjI92O6J0up29xKOv9uExjebcPDcsCqcLw6zD8ciZyp6V2SprQSIMHVYhK6DLY/QHjAHDjkubgRNWmVZeNpozAyjdQf+3rzMiL6fEY6SNhlijseZMBkUPx6xdMP6xbHo9QErHa997N8fEZEZgxulQABn5Bgx9czs9kTwFz1CjzGmLK8YO4t24NRaH9o2+XCtRo5lky948Fyu9g6Lu5PWsW+SuSyizrx12J4j/k524Jd2496koR5cFH+8hetsunVTTGuZEmHBchqq9WgeJhf4jXo8Wahdk4dDrxTgREOBtkitHKulTSQo0N4RZgbf/cWudUl85l/kLFZheZZtd2IiEj/ORM2g7Y/249GM7lBbKf7+iGhxYXCjtFUpw9qm93Ctah+Oltdgmxx7lpPsJhMht1APDzk1aBahUAbDyEc9tmlvdp9g11yCIUku2HtI3k1g1wr45BpwcjyXeczaXMhxYmpzrub1OImI0gSDG6UnOeZMhjWtJaxXG3cmx7o1qvFuRhcrxcBYaiKRkLQmXy3YK7bHptDZ/UgbQ3ZYjSMzugQXnFuOk4hojhjcKA2tx6lyOeZMTWboatHGncmxbj2W8W5JMjGsjysKtAYnJDg+tGVNXCZ4N4Bs1G+OZ7xbNg5pt2FSg+9bHuH4lSltDJnfMo4sAcaEidlmUcYUNufxOImI0gyDG6WvyZv4XdhabbpiPK+2kmL8Bi7ImaaerVFnjc4qJQvwJmIa3/r1MVclVfnY49TbLNdAW2MT7Mam8G3EGmhSFp5WW07sx5RlYc9GfVLCoH9qlsH4cUwomMNxEhG5BYMbpa+cGhwrW2+aDFCMyqIGtGnrtKmipHiIkwP6rNG9VT6cknVaAlwxdpaJemvslh8Jqa3fhOqV+nbJ6y9jzyp9Ox34rzxCm9bqlok6eU/Szdmm8W5Z8MrFb+UaaNttgt3yXOy3e79chDbqoDm5XltYXTIcBhe9nUKr7QK30hQua4lOHO+/z0Ot+Zi0yQc2ATPh4yQicg8GN0pD1/FLtVabt7TeNGFgH5rLK8QPcy+OaEErieTyI1qdcsFeUWeVeWLCPhwtFfVOwnb5EXeQsxZHg+Gtuiofx35apM24bP7pChzbno0SyHuYmmc7TuGcWrZDttRFvn9Ku8dpNINjYXXJcKiFthm0fRb9DgHtnRNqbJ68Ab5Rt/wMffJBaE22uR8nEZFbMLhRWurpb9IXvtUWy1Ume4Nj3s6by5NE1rmhuxVnAgFr992kWpRX1KuvBWcvVQvwJk5fcuLwhQl0WparmFGL5Mp7mKoixS/XXLswJQKYKpDGpoJjydpHVZmtGXz3R31BWvP+Rl3W5TBsBMZxUIQ767HKMCjrn7CEvrkdJxGRe/BepQto8d+rlJYm4x6gslUthoBGREQxY4sbERERkUswuBERERG5BIMbERERkUswuBERERG5BCcnLCBOTiAiIqJ4sMWNiIiIyCUY3IiIiIhcgsGNiIiIyCUY3IiIiIhcgsGNiIiIyCUY3IiIiIhcgsGNiIiIyCUY3IiIiIhcggvwLiAuwJvOinFg0z7szQH8A62o67+uyudLqusje1nY07ACdcuBwe5HOHhlSpXHw/iMGbR9NoKzAVU8K4f9PHk4sSsXJepp0NgEDreMY3H+FyQZ34ODebueiX7vRPFhixuRnbx12C5ClOQtrcROfTMKGbzew7VNO1CpSuISd32LlfzxK0LzT8WjIQ9eVYo1+XqZeBxao8oM0V7TZOOQer35lWxV5sCTjRdFWJBKqrJRq29SzEzfX7SH+bu1s+i+hwT+XRM5YHAjsjN+Axcm9U3/QA/O65vzJ9X1ucHYtE3rxwzujahNG9XP2gSzNdmoVpuzCkzhuzF9c7B7Cu365sIKjOPgx0NoDD4eoVO9tGjN5/ew0NczgX/XRGYMbkS2HuJk1wfY0PFBirotU13fIuWNbJ2ptQtzjqZxtkX/QU9q99ySI7sLzeEo7DFrlyS/ByInDG5ESVGE51RX56K1agsOfehD86c+nNhdqAqTbRr3VUuLxcgMBtWmk06//IHPxkuWLifxXPZLidcWfSsVpbHE/10ThePkhAW0+CcnqAH36EBj19dA3nq8XbEV23I8+suTAVwc+A32Dz3Un9uoLNqBt0trxD6qAAH4A9/g8M3r6FElkYqxs6wWbxVWwBu+34DYb1wVBYUmBtjxD5xGXb/NMRY1oK3UXEcUgVZsEMesS7A+k/iui/V76JHXZ+0beMvjCY618Qc6xL7yNWe17/jg26ieYBRt75/F2bvqaRLVvlIEnziwwe5RHLwyrRcGB5RPoenjR9auMzlOaHu2eP8EHlTlotr/CI2/V6006rVO8RrCXzMNgLdjqd9WFrxrcrF/YzZK1GcM+ifQ2in+gVXLc3AapJ7ofgY5Zi8f1fEMpvdkY091Hl70ZgYH5Q+OTaH1j+JaJnUQfSID9Of6PQhzOr94r2di31/c/66JHLDFjeZfTiHeXutDc1V9KLRJYntb+T5cW7teFZjpg/2by83hRBJhw1OP5hofDuSpIov1OCVCytGIQKX2q/LhVFmxKpu7mEJbUiV6XQTxPawW4Vm7PqbQJnk9NWhOdGJFkvWPzWh/H4yafqwD03gg/4rX+rUCO9O4J1s1TN2l3hVZ4v/O4N4osFIvShI9bBwTodD48ZZKvLnw7SpAvUMISXy/xHk3F6B5Vz7qTKFGKlmeLeoswonN8hq5V2rPL/HvL/F/10RWDG6UAhXYJoKCbNU50q2P49rQcRpHBtT/JBWB41SRvmmoLHtDtUgFcLHvtNpHPLpbcUYbxO/B3qqGiNmXlWWyRU9sTPaa6tLra+zrhX/Sg1X6W01C48vMj0bj+JwMtZje34qLsmyyA42mzwg+gq1tUoL1CYleF10FjmrhOYAzpn3lddHk1ODtsO/BrL21C53arwww+PlX89LaJvnNP2xBInzZdTVZzOBbv/xxNLpLs/AD8WOOsSl8azvwOzSOyvw43K3/wEZT+4rRQjSDzgujoX0/e4TOMREgHH7AE90vYWvycaxKXANZX/cjHFb1aXVemNK66Uqq8rHH9L+nUi/x7yHV5zeX7y/xf9dEVgxulBJa99/Nr3E+2E35EOf7m4JhZZvH1OqWtwPHSuV/aUXA6G6ydqWOXxeh57QKKRV4y6H1zD/cbqpLeogeEbTqRGCarRsybSXhumiBtqMJJ037yutyRGXGVTlRWiPvXsLxd8V39mYTDp4bVoXzxWGWne2MPF3J8kz4r4xrY9m02aVqSYnOq0le68yTh3qtuVLvEjt+K/SD7A9M4XjLKNrsfowT3S9hWdizUZ+Y0XlB1HdlynId/Lce4aAIN0AmXnw+2a1umajbpZa/CH/MtiRLzFJ8fkn5/uL/d00UjsGNUiCACwH7sNQTuKn/Byu3KNRNl1uod+MFvsFJS/gyPMTJAb2VyFu4ztK9Z3yet/QNnCpbj0qnbkM3msN10YnA19tiu9TI7YnZW/tSRvzgNn4cPkZItcoEx6c5mcJl+Q9geRZqn8/Wxg5dviWeF1i70ebE+Cz/eIxjuJRE90uUsRba2ATOyWtg55Y+aaPEm23pOneFVJ/fXL+/Of27JgphcKP0IMdfqc1KsS35J4a0v7YmhvXAZ9pPM/416ro7cHHSg22lckzbe7hWIxfGlWPb3B3k5nRdlpD2O+JHcHkufLILzZ/8tdj0cXNy8HsMXXkmie6XMCNoiGtxzK7lS3vkx77GXVxkq1So29LySFZISfH5pfz7I3LA4EaLjwhv++UYsm45jq5XhLgA/HIihApybWtFgFNvpUVItbJInTLEEREtIgxutLCM7r/JYdzWCkK8uVFGykfZL2hcjqNrESGuCXVqAP/FSfG5nnocS+LMUosUtHTN+boselO43D2DwbEJvZt0nsgxdYlIdL+4GWuEySVQ7Fq+zA833vN0gc4vZd8fkQMGN0qJ53LVhkUxDpRWaFv+4RvBNcSC4948Wx2WtrDfT6ositKaNn4d+40xYNHCz5wU4vl56o6dy3VJipQswJsc7VdGcFD8WM/Hulj+v+izFe3u0qDxZOIZm9mFie7nSASIMrVpy7htlDdvgWeNzpNkn98s1zPp3x9RghjcKAU82FauxpipErkYb2gR2l58Yp7pOf41PtEG8MqlLcR+RabWsWj7yVmX5fpaZlp3aJ61Va1SrmFWroJNtHFiCbmOr4xjrtiBneZgJY5jp/kcEpXodUmS2vpNqFaLoZW8/jL2RK6rsjQYgQHZ8DXko9YUGrxr8nFil8O4qkT3i2AsIZGN+s2mQfceESgsAWYaZ6/KrmI5w7MAh+R7La9noXazqPen4lhUibsk6/xivJ5J+/6I5oZ3TlhAS+bOCSJM+GUXpRYqwulLW0TOkgzta89+v8g7CtiQa61pdxCIrrLMh+ZST0x3MtCI4NhWVRP6D7+FXIbDfkanIbb6Erkuxj5O1zq2ulN154S4iR9NeXcErcvMaeB7LO9R5IKucm2wqCv2B1e8tzE2hc6xbFTbraCf6H5hjGOMYHN+ju81iHrb/vgoSTNd9QVq47tzgr2YvgchGecX8/VM0vdHNBdscaMUCOBCr77QqwxwBn1BXvsgYSxS29gnZ4iqIo28tVMrGuVaZDb79QzpExP0/az/5fRP9moLz8YS2hKizWiV4+js6m2PGtpil9h1SYZULcDrCoFxHPzsEdq0BX8NahHYlkc45zTzMNH9wvivjOBwt+q6M8iAcidyf/neRlWn9f2het0cMpJxfjFfzyR9f0RzwRa3BbR0WtycW3qIiIgodmxxIyIiInIJBjciIiIil2BwIyIiInIJBjciIiIil+DkhAW0+CcnEBERUTKxxY2IiIjIJRjciIiIiFyCwY2IiIjIJRjciIiIiFyCwY2IiIjIJRjciIiIiFyCwY2IiIjIJRjciIiIiFyCC/AuIC7A6yBvB9qqauBVT4MmO9DY9TV61NP0VIwDm/Zhbw7gH2hFXf91VU5ERDR3bHEjSqa8ddguQpvkLa3ETn1zCSvEng99aP5wS2QQJyKiuDG4UfoZ/xp1HR9gQ/DRiovqpbQ3fgMXJvVN/0APzuubREREScHgRpRUD3GySw+c7CYlIqJkY3AjWmpWbcEh2X35qQ8ndheqwvlSgGdWqk0iIpozTk5YQIt/coIaqA99UgHy1uPtiq3YluPRX54M4OLAb7B/6KH+3NF6nKqpx7Z4JieIug6UbsV2jyc4tso/2YsLA+04GVbfzrXv4ag4pIt9H4hjUYURjEkHvTjS0aK6QEMTEez4B06jrt/u3KzXpUc837n2DbxlPtZABw7fdD7XyqIGHCutgNehbsmp/tp3fPBtVE8wirb3z+LsXfU0GWpexYkfPYuSWALb1T+g8V/61BOdd/ceHHsdoeNaVY499dV4ceMKlOhvwaDY75TYT/v/HhFET/xiE0oedOHwu5f0Mgs5zq4BdSujnKtdHQ/uoPWjL9GezGtDRDRHbHGj+ZdTiLfX+tBcJcKXEdoksb2tfB+urV2vCpJBhCJR1zVR115TEJK8ORXYK+o7VaQKlPMDHdqP/bbSHajUiyIZkw4CSRy3Jq7LahEwT4kQdzT8WD01aN5kfzw75bUsjx7aFlpMoS0GMsQ1/+KHqDMFKkluJ+t/8jjWsfJZ+H6RilZJIqLYscVtAS2ZFjcVMGQr0icDX+P8uHxWjJ1lb+BoqR7kord2xdHiVtSAayLUyNa1T3rbRV1Gi5O5PnOrmW62Vjf99QDOdDfhpHb8zirLRLAS9cza4hYMXuJz+34TbAmUrWkymEkRx6POL3KfHThWLpdQiTy3CLKr9GebUC3C1eDnLTh4bli9MB/KcejTH6LasTUskt7itgKdV++geuOzwIM7aProO7TfNY6zEN5Vw/AbLWFzaXGreRXN+0QdGEXn5504d0614gle8dp+8VrJfLRKEhEliC1ulBJaiLlphDbpIc73N6FxIKA92+ZJUqvbUAsauz9AXZcIL8HQJun1HdGqK8TzeVphULDVzfY41uNlmfcmb+J3s4S2uImAeaRDhEFT922POAf9OEUmySnWN5TKHL3152Jf+D5fo66vV2xV4OWwFsUIdy/h+Lvi2r/ZNM+hbW5kaJPBsvFd2V1pPk5TaJsTEeh+JEMb0Hn6LI6bQpvk7/gSB0/fEVsr8OJmtroRUXpgcKMUCOBCwByiQnoCN/Ufy9wi527KOPUY4SqvGDuLduDUWh/aNvlwrUZvVQM8eC5Xe0eIsYyHZysOhIU6FFVim/jjH76R5MV/AzjTa986dntCJbcEhIc917r6h/kNlqtW40XZpfugC+c69KIIHX9Bp/hTsmm1pSubiGihMLhRepDjvdTmXMluw1Ob3sO1qn04Wl6DbXL8mHlsna2HODkgW6w82O4xB59iHCiVXZO9+MS22zO1eib1ILOtvAE7zQFTjpVT3at3Jxf+OJNhcHBEbc2TZ9SYtpWbcOxTfZZt5OOHqNbeTESUHhjcaHHRxoeJsCbHj0324uJAK450n0ajeMi11YwuSFtD7TgzCXhLa0N3PJiPSQlzEexGrcDRKhFOa9RDTvyQxYFW/NJxrCAREbkdgxstrNxCvQtqchi3tYK5MFqd5MB9EdS6WrC//7o21q3HMt7NyUP8blimotA4sUrPWnF84vMG0mkxXT19Wgfhy6VVWtF483qSu3OTZOUKlKnNtHFvFIPyr1yS5E19zJ/jI8aJFURE843BjVIiYkyZxuiGjHH8WKzdqXISQdhabbpiPK+2nPT0f6PdXktfGqQY/1DomZ9JCYkqatDG6Z2REzAstwVr0kJqTKEtpQvwGpbj6VVqM9nujuCB/OsQDr27X0ad3fIkd2/jO7njxmrsma9jIyJKMgY3SgG5XpsPp8rWhyYgyAVyg0tizDZ+bAh/1e7/WYG3wj7DMs7LkFODY+b3iQAml9hok/XNNtQN1/FLOdM1Zy3+oUzvJk3+pITE6bNKPXjOMg4vPrX1+lIgUsnrL89zaOnD5avy7wrU/WwLas11rSpEbU0yguMI7mnJ7Vn43ikPTSIQn7/nHX1pEXvDOPtbfdZo3S/24NBusa/lWojj2/0qTnz6KmpVCRHRQuM6bgtoKa3j5pdjx7SQFi4Q19poEQKt2HAz1I3p+D5JLr0xDBwtrYht3ThtO4Z10cLEvo6b87k7fkbeDrRVyfXanDndIcIw73dOCGess6aeWt1B05tfol09k4x13OJaYy64Hlsk+TmtJQ3inO3P1ajP0YM7aPvoS67jRkRpgS1ulAIBXOj9AI19vVqAM8gFeY/EENqkHm3NN7G/eq4RAeVMwJq+tPeF1aO9T415O28ud3QdXxmTGNJlUoJh/AY+CRgHZ8/pDhGG9tYudGotVDLUfDX/geTuJRx8/w+izlFVoJO3lGo7/Z0ltCWs40scPn1HfKZ6LsmFe9/X16rrH7TWbeY/dxaN4vjarqoxbwZxvJ2f/wGH32VoI6L0wRa3BbR0Wtxia1VLJ/HcKSF11PUM3uPUjrzvqbyFlggkji1+RETkVmxxIwqXtwNvyd7WdJqUIKmlSaKPuXs4p8V7iYgovTG4EZnIxXuNMWQXB2a5L+oC8Za+gVNFxRF3mqiUEz7kDei1MX7psWAwERElF7tKFxC7StOEzYB/f6AVdaZJD+nCuBl+VHJMX2+Lq7qmiYgoNmxxIzIWAZYmA7jYJ2+In36hTTp/U07y6MBFcZzhkV/OJpWTMBq7GNqIiBYrtrgtoMXf4kZERETJxBY3IiIiIpdgcCMiIiJyCQa3BcRuUiIiIooHgxsRERGRSzC4EREREbkEgxsRERGRSzC4EREREbkEgxsRERGRS3AB3gVW+44Pvo3qCUYx+GAMrR99ifa7qoiIiIhIYYtbWlmBkpXPwveLV1GrSoiIiIgMbHFLJ6vKsednP0TdylG0vX8WZ9nqRkRERCZscUsnd/vwbdeoekJERERkxeCWZvyDY2qLiIiIyIrBLc14S5arLSIiIiIrBre0NIb7HN9GREREYRjciIiIiFyCwS0tPQvfh1tQu0o9JSIiIhK4HEjaKUTtOy+jfuMKlKiSwc9bcPDcsHpGRERESxVb3NKUEdqIiIiIDGxxSzc1r6J537PAgzto+ug7tN9lSxsRERHp2OKWZvTlQEbRpt2vlKGNiIiIQhjc0hKXAyEiIqJIDG5paTme5oxSIiIiCsPgRkREROQSDG5phvcqJSIiIicMbmmG9yolIiIiJwxu6WRVOXa/vkI9ISIiIrLiOm4LrPYdH3wb1RPDgy4cfvcSlto9I4iIiCg6trillVEMXu1C00cMbURERBSJLW5ERERELsEWNyIiIiKXYHAjIiIicgkGNyIiIiKXYHAjIiIicgkGNyIiIiKXYHAjIiIicgkGNyIiIiKXYHAjIiIicgkGNyIiIiKXYHAjIiIicgkGNyIiIiKXYHAjIiIicgkGNyIiIiKXYHAjIiIicgkGNyIiIiKXYHAjIiIicgkGNyIiIiKXYHAjIiIicgkGNyIiIiKXYHAjIiIicgkGNyIiIiKXYHAjIiIicgkGNyIiIiKXYHAjIiIicgkGNyIiIiKXYHAjIiIicgkGNyIiIiKXYHAjIiIicgkGNyIiIiKXYHAjIiIicgkGNyIiIiKXYHAjIiIicgkGNyIiIiKXYHAjIiIicgkGNyIiIiKXYHAjIiIicgkGNyIiIiKXYHAjIiIicgkGNyIiIiKXYHAjIiIicomMFzZUPVHbaaeszIv+fr96RvMld90yPLMlAwUFGaoEmBx5gpFLjzFwIx3/eWSg9CeZeLrgCe7/egYD36vitFCI2t0von7TsyhZqYpwB01vfol29YyIiChRbHFbUDKAZGHLz8MfmdgggknpulCQmjfrMvHCa8ssoU3KEc+fLldPKGa17zTA97o5tBERESUPW9wWlNFypJ7aGXmMP//qMSbU0+TKQLkIibL6ycszuPXNk1A9T2WgUPwZ/p4tbrErxJ4PG1AnQlvn6RYc7xhW5URERMnBFre08AS3/2kal4yHCCO3Lz/BpHypYBle+Mky5GrvSzIRznLkXxEOLaFNEoEtPUObCzzowjmGNiIimgcMbulIhqZvZnDt14+D4e2ZddorREREtISxq3RBhbr8bv/TDOzaaHK3ZuKFlzKcu0yfEp/x98tQsFq1nglyYsH934rPs+lClJ+3Rnye8V5Ht2dwqdXmn0Zc9anzg3HsGSisX4anzfvefoxbrU5dwRnaxIk1W8T7VXeyfP/9Pz0G/j4Lq1dH6SqN87pI+rVG6DPtPkNcl1viujh1Xde+44OvuAuH370ETqshIqJkY4tbmpvoNbpMRYjRSkJk0NjyYxGMTMFCkhMLVv84Cxu22k9uML83HonWpx27CEHlIsStDt93tVNXsB76XnhNvN80BlC+f7U8hijjAhM+ThPHzxAPp9AWtHIFytQmERFRMmX+XXHxf1Hbaedv/3Y5/vf/HlPPFqMM/O3GZcgXaWDkTw6tOOPA/7VWf8/k7Sd4JJ5r1mWiersMIE8wcvkxbjU/xp0/PcY98RgZy0D+GhE4nslAhnkf4d/6n2jv0R63Ac+GDPyNbM377zPB/bXHTbWDIaH6jPPLQMGGZcjJeYL7XzzGjbbQfn8n9oN4/W/GHiMwpHYTCuuz4H1abon6xD7XjH3E5/9NqfhMFdz+zzXr+SV6XaS/WbUMfydem87LgPcF8RkjT3D73GP0faXvf098RyOi7N/C9jNbteVFvLhyDN+13sZdVUZERJQsbHFzDRE45DRPTQZKt8hwIrLFFzPoC5tYMHFjBte+kN2cIjBV6O+bmyTUJ0PQP81Y1oWT+90W4VHK8Zj2e0p2p8oNvSu0z7zP90/Q96sZ3B9RBRbJuS6ya1TOsr0k6rFO0BCf59DNKmeUene/ivqNYvPBKPr1QiIioqRicHOjp+RiueLvyGPcu6EXRbjxGDLb5KyJ7GKN25zrU2PL1DOziYA5GCmFqnvy9uP4lvpI1nW5LQKeCH0xWbUFJz71ofnTBhyT67c9uIO2jzi+jYiI5geDm2s8waSRfIxgI5cKiVi813jo67MlRYrry/XofycD+t+YJek4467XZFA87uubREREScfglu6MViRhMp7WJ0qNu5dw8M0mNL7ZgqbPR1Gy8ln4frYFXvUyERFRMnE5kAWlz5yMaTkQ8/IcTy3Dhh8vQ47Tkh2xMj7HaakRQ8L1hc7PadkO4/zkmDKje9L2nC0cPneO18XuWOKlLQeykfcmJSKi+cEWt3Qmgohcc00a6TMFie/l7Ebxd/UylD6lF82rFNcXXAJF1Becj2EmjsG8REhQqq8LERFRijG4paOnMlC4NVNvPZLPb8uZldoryhMMXJJBLgNP/zgT5VvlOmn6Kzq1/88z7YNP3FJcnxHAxOeu/on4TFNduevkdXEap5bq60JERJRa7CpdUEaXn3pqI9qdBYJdik7UnQIcZ2bG2lWqxF9fYl2lGuPY1FMLUc/ISAYKHO6ckOh1mXtXqbrJPHjnBCIimh9scUtLT7TbM90WoeSa4+2ggIlvZrQb0t+/rboWDTLYiPDx519FCW0JSGl93z/GNVVXSKiee3bLiCipvi5ERESpwhY3oqRhixsREc0vtrgRJdvKTdhdw1F0RESUfGxxI0oi7+49OPb6CvXMwOVBiIgoOdjiRpRE/nNncfjzOxh8oAqIiIiSiC1uRERERC7BFjciIiIil2BwIyIiInIJBrcFJLuCiYiIiGLF4EZERETkEgxuRERERC7B4EZERETkEgxuRERERC7B4EZERETkEgxuRERERC7BOycsIN4ZgtKaJw8nduWiRD0NGpvA4ZZx8F8uEVHqMbgtIAY3il8W9jSsQN1ysWkOUGvy0bw9W26h88IQjt/SNoO8mwtwrCpTPbMaHJvBg6uPcO7WtDWMMbjNg8S+PyIiA7tKidxqLCxoaWZwb0RtxqhkeSaqt6/AsYY8WJaEDozj4MdDaAw+HqFTvUR2ZCgrQvNPxeMVPYRFlaTvj4iWFgY3oiVksHvUFMTkYxSHL0xgUL64PBf7N2dp76P41b6iWtKIiOYRgxtRsqzagkMf+tD8qQ8ndheqwmSbxv0xtWk2MqOHr7hNw39rHAc/08NbiTfb2upGMZFd0T5x4Qa7J2ZplUz290dESw2DG82jYhzY9B6ubdqBSvV851of2mpEmXq0rTVec5C3HgfC99nUgANFxeoNITvXytcbsFPWK/bR3+/DqSL5ql2ZDYf6duap16Oord+E6pX6dsnrL2PPKn17vsixaZFEMAiozXgEpvFA/l2eiTKtIEk82djzSgFOyO5D9TjRkI89ayJb9mpf0V8/tEYV2DK6I/NRq0osHOqr9ajXbcjQ1fzTAuwx3mP3Ga9ECbRr8vXxg/5HOPgXQP0TmFVSvz8iWjIY3Gj+5RRitQhEpzbtw1GPx/ID6PXUoDkY7MxU0Kqqx97wfXIqsLd8n0P4KsRboh65j86DbaU7xGeFlZXLgGdVWeZc39EqEeDKIsPiQuhXP/gPRqe1vxojeInX+rWChSYClgg/zbvyUefNtExwKFmejbrtKyICWnun3upXvTFsrJ2ZCFUvyu5I/xTa9ZIgLYA51OfbJcJXDN3Ajp8hHraTMeQEDm1SwRSafj+ll83CHd8fEaUrBjdKARl86rEtJ4AzfaexoeMD7dHY16u/nFODt8NDWFGtFqD8k7040h3aZ0PHaRwZ0Jsk7MKXDGVeWU+3/t4zk6JIfP5eT1iZOKaXzXUWNaC5VAa7AC4OtKIxWJ9+nPJH21v6Bg5EaXlrb+1Cp/brCwx+/hXO3tW3k81v/sEPmsE9uy64WK3JRrX8m6zgsCZXCz+DYyLQfGYeVzeKpm49uFRvD2s1C4yjVV7o5bnY7dDqVlstZ7nOoK0zLCQZrV7itc7uRzhsGsd3+MKU3g1clR9qVYuQiWeq1WfYHPPh8Po02TikzboV7//4UUSQdDIv3x8RLRkMbpQaMoB1NOHk0ENVAPQMteCI6hZalRPWmiVeaxRBq66rBefHQ/sAD3G+v0ntV4jnbYKUf+A3ODkutx7id8N6Beayv0xoRSbFOFBaoW1d7GvC/v7r6NGe6eRx1mkh04Ptniitbncv4fi7TWh8swkHzw2rwvniMPvQdqZiNFnwitCjtxqJwOmfinN/B7dEePpsCAdbRKAJmIPKNNqvjKBJqyQLT4cFqWCr27N2szKz8ZJsihPB6ltLd2IW9mw0ltIYwfEr1nPwi2M5KMKbDGcvPu/c6lbtzdYnb9gcs99SnyS7bPNF2BUh8rPYQ1tIsr4/IlpqGNwoBQI40ysCmHpmdnsi4hcxqEcLWkJeMXYW7cApOfZskz5O7aj2g+/Bc7naOyzuTpqDns5cFlFn3jpszxF/JzvwyyG9KMJQDy6KP97CddHH5KWCCCKNH4/grOU0pnG2ZQiNs3TXlVStCI7b0h8rcEyENtkVOCjHaF2xaw1KTDDseLJQuyYPh+S4sQY5nqxIG8ivtXIVaO8ICUzhO9ny5M2LbB1TrYIR4dLoPh2bwDmn9c9uTWmTBqJOvojj/I0ZpDIoWr+HGMzh+yMiYnCjtFUpw5qc3FC1D0fLa7BNjj3LcezrSlxuof5jnlODZtOkBOujHtu0Ny8+sjuz7cIoDiY5NHhlWJMTCXatgG97LqrluLHl9osAh4gAc9WudcxoVZtCa3i4KlDj0Zbn4pgllJofsnUsOvvJApFCM0hHuVAuEaUcgxulJznmTIY1rSWsVxt3Jse6NarxbkYXK8Unch03vTvz7K3ktbRp5JgzGda0lrApbdyZHDd2WI0d07tKHdyaQNuYbB3MDY2BizIpIbWysVvdgSKy9VI8jDtNePNVmcPsVyKiBDG4URpaj1PlcsyZmszQ1aKNO5Nj3Xos492SZGJY73oLtAYnJDg+ur62jH8jO9k4pI2Zm9Fa8uSYMTnuTI4b81vGjjmZxrd+2fqVjZfUJAXv87I712ZSgmSsgeaXXZDWUBrx4K26iMjlGNwofU3exO9MkxlCivG82kqK8Ru4IGeaerZGnTU6q5QswJsGYl3rTU4isG3Jy8LTasuJ/8q4NiZNXxokCz/w6rM9rZMSlGjj4pJuCsftAqHxUAsZh0JkIhMXiIicMbhR+sqpwbGy9abJAMWoLGpAm7ZOmypKioc4OaDPGt1b5cMpWaclwBVjZ5moV1vc11mqF+BNPWPJimzUbzYN8vdk2y9wq91CyzwZQM1glTdZd5whYJjCOblsyPJs/EB8huwmdZ7xGhoXV7erAIdknZbjyULtZlEvuy2JaBFgcKM0dB2/VGu1eUvrTRMG9qG5vEIEgV4c0YJWEsnlR7Q65YK9os4q88SEfThaKuqdhO3yI0uH0YUpx3flhyYC7MqHr9q8fIcKXYLlfcEZrFNo6p59IoTe6ibCWJW+VlrEpAQzufyIVmcmqmWdu4w69Xp9VaJeETrDlx8hInIbBjdKSz39TfrCt9piucpkb3DM23lzeZLIOjd0t+JMIGBt2ZlUi/KKevW14OylagHeheS/MiICkr6gbZCclXpHD2oG7X1y4VuthU5Rs1e1ddJGVVlUU7hsfBExTEqQdTZ+9ghtIlxaj08tyisnYXBSCxG5XMYLG6qeqO20U1bmRX//4h1KvNjPj2iu5P1LfV65yG0C66URES1CbHEjovTkyUO9HAvnNCmBiGgJYnAjorQjF+89odZE67zKJTyIiAwMbkSUHjwirKkJBXLxXuM2XLw7ARFRCIMbEaUH49ZVkpxQMA+34SIicjtOTlhAnJxARERE8WCLGxEREZFLMLgRERERuQSDGxEREZFLMLgRERERuQSDGxEREZFLMLgRERERuQSDGxEREZFLMLgRERERuQQX4F1AXIA3nRXjwKZ92JsD+AdaUdd/XZXPl1TXR/aysKdhBeqWA4Pdj3DwSiJ3bjA+YwZtn43gbMw3yHfYT94KTN231WJsAodbFut9XJPxPTiYt+uZ6PdOFB+2uBHZyVuH7SJESd7SSuzUN6OQwes9XNu0A5WqJC5x17dYyR8//X6lzQ158KpSrMnXy8Tj0BpVZoj2miYbh9Trza9kqzIHnmy8KMKCVFKVjVp9k2Jm+v6iPczfrZ1F9z0k8O+ayAGDG5Gd8Ru4MKlv+gd6cF7fnD+prs8NxqZtWj9mcG9EbdqoftYmmK3JRrXanFVgCt+N6ZuD3VNo1zcXVmAcBz8eQmPw8Qid6qVFaz6/h4W+ngn8uyYyY3AjsvUQJ7s+wIaOD1LUbZnq+hYpb2TrTK1dmHM0jbMt+g96UrvnlhzZXWgOR2GPWbsk+T0QOWFwI0qKIjynujoXrVVbcOhDH5o/9eHE7kJVmGzTuK9aWixGZjCoNp10+uUPfDZesnQ5ieeyX0q8tuhbqSiNJf7vmigcJycsoMU/OUENuEcHGru+BvLW4+2KrdiW49Ffngzg4sBvsH/oof7cRmXRDrxdWiP2UQUIwB/4BodvXkePKolUjJ1ltXirsALe8P0GxH7jqigoNDHAjn/gNOr6bY6xqAFtpeY6ogi0YoM4Zl2C9ZnEd12s30OPvD5r38BbHk9wrI0/0CH2la85q33HB99G9QSjaHv/LM7eVU+TqPaVIvjEgQ12j+LglWm9MDigfApNHz+ydp3JcULbs8X7J/CgKhfV/kdo/L1qpVGvdYrXEP6aaQC8HUv9trLgXZOL/RuzUaI+Y9A/gdZO8Q+sWp6D0yD1RPczyDF7+aiOZzC9Jxt7qvPwojczOCh/cGwKrX8U1zKpg+gTGaA/1+9BmNP5xXs9E/v+4v53TeSALW40/3IK8fZaH5qr6kOhTRLb28r34dra9arATB/s31xuDieSCBueejTX+HAgTxVZrMcpEVKORgQqtV+VD6fKilXZ3MUU2pIq0esiiO9htQjP2vUxhTbJ66lBc6ITK5Ksf2xG+/tg1PRjHZjGA/lXvNavFdiZxj3ZqmHqLvWuyBL/dwb3RoGVelGS6GHjmAiFxo+3VOLNhW9XAeodQkji+yXOu7kAzbvyUWcKNVLJ8mxRZxFObJbXyL1Se36Jf3+J/7smsmJwoxSowDYRFGSrzpFufRzXho7TODKg/iepCBynivRNQ2XZG6pFKoCLfafVPuLR3Yoz2iB+D/ZWNUTMvqwsky16YmOy11SXXl9jXy/8kx6s0t9qEhpfZn40GsfnZKjF9P5WXJRlkx1oNH1G8BFsbZMSrE9I9LroKnBUC88BnDHtK6+LJqcGb4d9D2btrV3o1H5lgMHPv5qX1jbJb/5hCxLhy66ryWIG3/rlj6PRXZqFH4gfc4xN4Vvbgd+hcVTmx+Fu/Qc2mtpXjBaiGXReGA3t+9kjdI6JAOHwA57ofglbk49jVeIayPq6H+Gwqk+r88KU1k1XUpWPPab/PZV6iX8PqT6/uXx/if+7JrJicKOU0Lr/bn6N88Fuyoc4398UDCvbPKZWt7wdOFYq/0srAkZ3k7Urdfy6CD2nVUipwFsOrWf+4XZTXdJD9IigVScC02zdkGkrCddFC7QdTThp2ldelyMqM67KidIaefcSjr8rvrM3m3Dw3LAqnC8Os+xsZ+TpSpZnwn9lXBvLps0uVUtKdF5N8lpnnjzUa82VepfY8VuhH2R/YArHW0bRZvdjnOh+CcvCno36xIzOC6K+K1OW6+C/9QgHRbgBMvHi88ludctE3S61/EX4Y7YlWWKW4vNLyvcX/79ronAMbpQCAVwI2IelnsBN/T9YuUWhbrrcQr0bL/ANTlrCl+EhTg7orUTewnWW7j3j87ylb+BU2XpUOnUbutEcrotOBL7eFtulRm5PzN7alzLiB7fx4/AxQqpVJjg+zckULst/AMuzUPt8tjZ26PIt8bzA2o02J8Zn+cdjHMOlJLpfooy10MYmcE5eAzu39EkbJd5sS9e5K6T6/Ob6/c3p3zVRCIMbpQc5/kptVoptyT8xpP21NTGsBz7Tfprxr1HX3YGLkx5sK5Vj2t7DtRq5MK4c2+buIDen67KEtN8RP4LLc+GTXWj+5K/Fpo+bk4PfY+jKM0l0v4QZQUNci2N2LV/aIz/2Ne7iIlulQt2WlkeyQkqKzy/l3x+RAwY3WnxEeNsvx5B1y3F0vSLEBeCXEyFUkGtbKwKceistQqqVReqUIY6IaBFhcKOFZXT/TQ7jtlYQ4s2NMlI+yn5B43IcXYsIcU2oUwP4L06Kz/XU41gSZ5ZapKCla87XZdGbwuXuGQyOTejdpPNEjqlLRKL7xc1YI0wugWLX8mV+uPGepwt0fin7/ogcMLhRSjyXqzYsinGgtELb8g/fCK4hFhz35tnqsLSF/X5SZVGU1rTx69hvjAGLFn7mpBDPz1N37FyuS1KkZAHe5Gi/MoKD4sd6PtbF8v9Fn61od5cGjScTz9jMLkx0P0ciQJSpTVvGbaO8eQs8a3SeJPv8ZrmeSf/+iBLE4EYp4MG2cjXGTJXIxXhDi9D24hPzTM/xr/GJNoBXLm0h9isytY5F20/OuizX1zLTukPzrK1qlXINs3IVbKKNE0vIdXxlHHPFDuw0BytxHDvN55CoRK9LktTWb0K1Wgyt5PWXsSdyXZWlwQgMyIavIR+1ptDgXZOPE7scxlUlul8EYwmJbNRvNg2694hAYQkw0zh7VXYVyxmeBTgk32t5PQu1m0W9PxXHokrcJVnnF+P1TNr3RzQ3vHPCAloyd04QYcIvuyi1UBFOX9oicpZkaF979vtF3lHAhlxrTbuDQHSVZT40l3piupOBRgTHtqqa0H/4LeQyHPYzOg2x1ZfIdTH2cbrWsdWdqjsnxE38aMq7I2hdZk4D32N5jyIXdJVrg0VdsT+44r2NsSl0jmWj2m4F/UT3C2McYwSb83N8r0HU2/bHR0ma6aovUBvfnRPsxfQ9CMk4v5ivZ5K+P6K5YIsbpUAAF3r1hV5lgDPoC/LaBwljkdrGPjlDVBVp5K2dWtEo1yKz2a9nSJ+YoO9n/S+nf7JXW3g2ltCWEG1GqxxHZ1dve9TQFrvErksypGoBXlcIjOPgZ4/Qpi34a1CLwLY8wjmnmYeJ7hfGf2UEh7tV151BBpQ7kfvL9zaqOq3vD9Xr5pCRjPOL+Xom6fsjmgu2uC2gpdPi5tzSQ0RERLFjixsRERGRSzC4EREREbkEgxsRERGRSzC4EREREbkEJycsoMU/OYGIiIiSiS1uRERERC7B4EZERETkEgxuRERERC7B4EZERETkEgxuRERERC7B4EZERETkEgxuRERERC7B4EZERETkElyAdwFxAV4HeTvQVlUDr3oaNNmBxq6v0aOepqdiHNi0D3tzAP9AK+r6r6tyIiKiuWOLG1Ey5a3DdhHaJG9pJXbqm0tYIfZ86EPzh1sigzgREcWNwY3Sz/jXqOv4ABuCj1ZcVC+lvfEbuDCpb/oHenBe3yQiIkoKBjeipHqIk1164GQ3KRERJRuDG9FSs2oLDsnuy099OLG7UBXOlwI8s1JtEhHRnHFywgJa/JMT1EB96JMKkLceb1dsxbYcj/7yZAAXB36D/UMP9eeO1uNUTT22xTM5QdR1oHQrtns8wbFV/sleXBhox8mw+naufQ9HxSFd7PtAHIsqjGBMOujFkY4W1QUamohgxz9wGnX9dudmvS494vnOtW/gLfOxBjpw+KbzuVYWNeBYaQW8DnVLTvXXvuODb6N6glG0vX8WZ++qp8lQ8ypO/OhZlMQS2K7+AY3/0qee6Ly79+DY6wgd16py7KmvxosbV6BEfwsGxX6nxH7a//eIIHriF5tQ8qALh9+9pJdZyHF2DahbGeVc7ep4cAetH32J9mReGyKiOWKLG82/nEK8vdaH5ioRvozQJontbeX7cG3telWQDCIUibquibr2moKQ5M2pwF5R36kiVaCcH+jQfuy3le5ApV4UyZh0EEjiuDVxXVaLgHlKhLij4cfqqUHzJvvj2SmvZXn00LbQYgptMZAhrvkXP0SdKVBJcjtZ/5PHsY6Vz8L3i1S0ShIRxY4tbgtoybS4qYAhW5E+Gfga58fls2LsLHsDR0v1IBe9tSuOFreiBlwToUa2rn3S2y7qMlqczPWZW810s7W66a8HcKa7CSe143dWWSaClahn1ha3YPASn9v3m2BLoGxNk8FMijgedX6R++zAsXK5hErkuUWQXaU/24RqEa4GP2/BwXPD6oX5UI5Dn/4Q1Y6tYZH0FrcV6Lx6B9UbnwUe3EHTR9+h/a5xnIXwrhqG32gJm0uLW82raN4n6sAoOj/vxLlzqhVP8IrX9ovXSuajVZKIKEFscaOU0ELMTSO0SQ9xvr8JjQMB7dk2T5Ja3YZa0Nj9Aeq6RHgJhjZJr++IVl0hns/TCoOCrW62x7EeL8u8N3kTv5sltMVNBMwjHSIMmrpve8Q56McpMklOsb6hVOborT8X+8L3+Rp1fb1iqwIvh7UoRrh7CcffFdf+zaZ5Dm1zI0ObDJaN78ruSvNxmkLbnIhA9yMZ2oDO02dx3BTaJH/Hlzh4+o7YWoEXN7PVjYjSA4MbpUAAFwLmEBXSE7ip/1jmFjl3U8apxwhXecXYWbQDp9b60LbJh2s1eqsa4MFzudo7QoxlPDxbcSAs1KGoEtvEH//wjSQv/hvAmV771rHbEyq5JSA87LnW1T/Mb7BctRovyi7dB10416EXRej4CzrFn5JNqy1d2UREC4XBjdKDHO+lNudKdhue2vQerlXtw9HyGmyT48fMY+tsPcTJAdli5cF2jzn4FONAqeya7MUntt2eqdUzqQeZbeUN2GkOmHKsnOpevTu58MeZDIODI2prnjyjxrSt3IRjn+qzbCMfP0S19mYiovTA4EaLizY+TIQ1OX5sshcXB1pxpPs0GsVDrq1mdEHaGmrHmUnAW1obuuPBfExKmItgN2oFjlaJcFqjHnLihywOtOKXjmMFiYjI7RjcaGHlFupdUJPDuK0VzIXR6iQH7oug1tWC/f3XtbFuPZbxbk4e4nfDMhWFxolVetaK4xOfN5BOi+nq6dM6CF8urdKKxpvXk9ydmyQrV6BMbaaNe6MYlH/lkiRv6mP+HB8xTqwgIppvDG6UEhFjyjRGN2SM48di7U6VkwjC1mrTFeN5teWkp/8b7fZa+tIgxfiHQs/8TEpIVFGDNk7vjJyAYbktWJMWUmMKbSldgNewHE+vUpvJdncED+Rfh3Do3f0y6uyWJ7l7G9/JHTdWY898HRsRUZIxuFEKyPXafDhVtj40AUEukBtcEmO28WND+Kt2/88KvBX2GZZxXoacGhwzv08EMLnERpusb7ahbriOX8qZrjlr8Q9lejdp8iclJE6fVerBc5ZxePGprdeXApFKXn95nkNLHy5flX9XoO5nW1BrrmtVIWprkhEcR3BPS27PwvdOeWgSgfj8Pe/oS4vYG8bZ3+qzRut+sQeHdot9LddCHN/uV3Hi01dRq0qIiBYa13FbQEtpHTe/HDumhbRwgbjWRosQaMWGm6FuTMf3SXLpjWHgaGlFbOvGadsxrIsWJvZ13JzP3fEz8nagrUqu1+bM6Q4Rhnm/c0I4Y5019dTqDpre/BLt6plkrOMW1xpzwfXYIsnPaS1pEOdsf65GfY4e3EHbR19yHTciSgtscaMUCOBC7wdo7OvVApxBLsh7JIbQJvVoa76J/dVzjQgoZwLW9KW9L6we7X1qzNt5c7mj6/jKmMSQLpMSDOM38EnAODh7TneIMLS3dqFTa6GSoear+Q8kdy/h4Pt/EHWOqgKdvKVU2+nvLKEtYR1f4vDpO+Iz1XNJLtz7vr5WXf+gtW4z/7mzaBTH13ZVjXkziOPt/PwPOPwuQxsRpQ+2uC2gpdPiFlurWjqJ504JqaOuZ/Aep3bkfU/lLbREIHFs8SMiIrdiixtRuLwdeEv2tqbTpARJLU0Sfczdwzkt3ktEROmNwY3IRC7ea4whuzgwy31RF4i39A2cKiqOuNNEpZzwIW9Ar43xS48Fg4mIKLnYVbqA2FWaJmwG/PsDragzTXpIF8bN8KOSY/p6W1zVNU1ERLFhixuRsQiwNBnAxT55Q/z0C23S+ZtykkcHLorjDI/8cjapnITR2MXQRkS0WLHFbQEt/hY3IiIiSia2uBERERG5BIMbERERkUswuC0gdpMSERFRPBjciIiIiFyCwY2IiIjIJRjciIiIiFyCwY2IiIjIJRjciIiIiFyCC/AusNp3fPBtVE8wisEHY2j96Eu031VFRERERApb3NLKCpSsfBa+X7yKWlVCREREZGCLWzpZVY49P/sh6laOou39szjLVjciIiIyYYtbOrnbh2+7RtUTIiIiIisGtzTjHxxTW0RERERWDG5pxluyXG0RERERWTG4paUx3Of4NiIiIgrD4EZERETkEgxuaelZ+D7cgtpV6ikRERGRwOVA0k4hat95GfUbV6BElQx+3oKD54bVMyIiIlqq2OKWpozQRkRERGRgi1u6qXkVzfueBR7cQdNH36H9LlvaiIiISMcWtzSjLwcyijbtfqUMbURERBTC4JaWuBwIERERRWJwS0vL8TRnlBIREVEYBjciIiIil2BwSzO8VykRERE5YXBLM7xXKRERETlhcEsnq8qx+/UV6gkRERGRFddxW2C17/jg26ieGB504fC7l7DU7hlBRERE0bHFLa2MYvBqF5o+YmgjIiKiSGxxIyIiInIJtrgRERERuQSDGxEREZFLMLgRERERuQSDGxEREZFLMLgRERERuQSDGxEREZFLMLgRERERuQSDGxEREZFLMLgRERERuQTvnEAJykDpTzLxdAEweXkG176x/2eUuzUTL7yUEfU96akQtbtfRP2mZ1GyUhXhDpre/BLt6hkREVGqscUtTeSuW4ZyEYS2/Dwr+Nggnhc+pd7gSAYo8f6fLEOuKkmJpzJQIEKblPPSMhFzFpfadxrge90c2oiIiBYeg1sa0FqlXlsmglCGKtHliOerfywCXH1GakNZLL5/gpERfXPy8mMM65uLRCGeLta3Ok+3oPHNJvVgaxsRES0sBreFtk7vSgREEPpiBpf+aTr4+PMXj7VwlLN6GTyztryl2hMM/Eo/Tnd1gcbhQRfOdSyuSEpERO7G4LbACsv1VjbZatV3wxqAJm6Isl/N4M+/nsHA96rQRo7qsiQiIqLFjZMTFlhhfRZWr44+wD/Cukxs2JIRW2C7PYNLrdbP1ScMAPeNQPhUBkr/fhkKVovP1N+CSbHfLbHfhPYsNBHBzlwmJxTWZ4rzF+FV1PfnYH0mdsc28gT3fzuDYYcwG//5Rap9xwdfcRcOv3sJnB5DRETpgi1uC2y4Tw8z2gD/OLpDk9XKJkPOlh+LUGYKNZLcdgo1ySLrjhbaHI/NGPu31Tom0M6czm/lCpSpTSIionTAFrc0YLS6aWRr0qXHGAjrNnWWgfKfZ6Jg5DH+/KvHMYUtvUUqAyO3n2itULLO2799jOHvjTozkPuUCFJRumcl43MSaXEzyuF03OtE4HpNBrMnGLn8GPfEvsZ7csVra8RrOeK1YKuaSTLOT2tx28jlP4iIKL2wxS0NDLdO48+Xn2BSPinIwNOvyWVBMlG+dX5nk8pQIwPVpV/Jbkdz8Jo9tM3FrKFNds1ukaFNvOWLGfSZQps0cUOEwC/k8WagoEJ/n53Ezq8Q3t2von6j2Hwwin69kIiIKC0wuKWJiW9EGDHNJNVCyUsi4MgAt845nMzJbeeWsvkSCm1PcNuphdBYI04Eu3s39KIIN8R1En9y1kQJt/Gc36otOPGpD82fNuCYXL/twR20fcTxbURElF4Y3NKMPpN0Gpd+PYP7t1Wr0msyvOmvJ9NkQG2kiOzi1EKbxtqKZlGoxqMVLBPBNbQgsfWRidmG+c3l/AbF476+SURElDYY3NLV908w0DqjdaFKBVtSfGeEZFsjQpgcszbyGLflOclQVj9PLYmJuHsJB7VFdlvQ9PkoSlY+C9/PtsCrXiYiIkoHDG5pbqJXjX2bTUEa3l3BRM4ENca0DX8zg9u3ReFqh5bEYXXOt60LEts+YpyQEbthtJ87i6arYpOzSomIKM0wuC0wuY5Z1DFsRrdhDHLS7u4KJmETEYZbZ7QxarIbuDT8uL9Xt9NavSzyNSIioiWMwW0hPbVMW19Mhhf9hvLWACfHhG3QlsQQueeSU8uSCDmy9QoZePpHYWvBic8rnK+JDXGavBU+pu0J+tTMUHnc1tbCJxi4pF77sZpdawlw4ry2imvzc3HNVAkREdFSwOC2kL5/jGu/Vvcj1RaVlcuAhAbgyzFhsrVNrvLf5zS7Uhj+02O1lMgybWHa4GeIz1v9mghz2rvS0A01hs9uvJvxmpycIWfXms9LBLbVL4lrI6/bvLTIqZvMczkQIiJKMwxuC02EN+1+pF88waTsHjSRt3a6/esZXAu7ZVUELQDOiABofZ92a6gvHiOdb5M+8c1j3Ne6RSO7jOUSKcbsWss4P3FeI5fFNRPXLdo9XImIiBYb3jmBKEIh9nzYgDrwXqVERJRe2OJG5GTlJuyu4Sg6IiJKH2xxI7Lh3b0Hx15foZ4ZeO9SIiJaWGxxI7LhP3cWhz+/g8EHqoCIiCgNsMWNiIiIyCXY4kZERETkEgxuRERERC7B4LaAZFcwERERUawY3IiIiIhcgsGNiIiIyCUY3IiIiIhcgsGNiIiIyCUY3IiIiIhcgsGNiIiIyCV454QFxDtDUFrz5OHErlyUqKdBYxM43DIO/sslIko9BrcFxOBG8cvCnoYVqFsuNs0Bak0+mrdnyy10XhjC8VvaZpB3cwGOVWWqZ1aDYzN4cPURzt2atoYxBrd5kNj3R0RkYFcpkVuNhQUtzQzujajNGJUsz0T19hU41pAHy5LQgXEc/HgIjcHHI3Sqlygbh35ahOZoj/DrGS5J3x8RLS0MbkRLyGD3qCmIyccoDl+YwKB8cXku9m/O0t5HRETpicGNKFlWbcGhD31o/tSHE7sLVWGyTeP+mNo0G5nRw1fcpuG/NY6Dn+nhrcSbHb2ViKxkd6clCJsett3Jyf7+iGipYXCjeVSMA5vew7VNO1Cpnu9c60NbjShTj7a1xmsO8tbjQPg+mxpwoKhYvSFk51r5egN2ynrFPvr7fThVJF+1K7PhUN/OPPV6FLX1m1C9Ut8uef1l7Fmlb88XOTYtkggGAbUZj8A0Hsi/yzNRphUkiScbe14pwAlTF+KJhnzsWRPZslf7iv76oTWqwJYcIybfl49aVWLhUF+tR71uQ47/a/5pAfYY77H7jFfCAq0nC9pXbdvdGZukfn9EtGQwuNH8yynEahGITm3ah6Mej+UH0OupQXMw2JmpoFVVj73h++RUYG/5PofwVYi3RD1yH50H20p3iM8KKyuXAc+qssy5vqNVIsCVRYbFhdCvfvAfjE5rfzVG8BKv9WsFC00ELBF+mnflo86baZngULI8G3XbV0QEtPZOvdWvemOUsWEiVL0oB/b7p9CulwRpAcyhPt8uEb5i6AZ2/AzxSDSghXPH90dE6YrBjVJABp96bMsJ4EzfaWzo+EB7NPb16i/n1ODt8BBWVKsFKP9kL450h/bZ0HEaRwb0Jgm78CVDmVfW062/98ykKBKfv9cTViaO6WVznUUNaC6VwS6AiwOtaAzWpx+n/NH2lr6BA1Fa3tpbu9Cp/foCg59/hbN39e1k85t/8INmcM+uCy5Wa7JRLf8mKzisydXCz+DYFJo+M4+rG0VTtx5cqreHtZoFxtEqL/TyXOx2aHWrrZazXGfQ1jmlSpQ1+WrW7Aw6ux9Zui8PX5jSu4Gr8kOtahEy8Uy1+gybYz4cXl+BHuwGxTWvlQE12DpXgBOv5EVt4ZuX74+IlgwGN0oNGcA6mnBy6KEqAHqGWnBEdQutyglrzRKvNYqgVdfVgvPjoX2Ahzjf36T2K8TzNkHKP/AbnByXWw/xu2G9AnPZXya0IpNiHCit0LYu9jVhf/919GjPdPI467SQ6cF2T5RWt7uXcPzdJjS+2YSD54ZV4XxxmH0Yd9ddFrwi9JxQS1EM+qeS07J0S4Snz4ZwsOUR2gPmoDKN9isjaNIqycLTYQEn2Or2rH48Vtl4STbFiWD1raU7MQt7NhpLaYzg+BXrOfjFsRwU4U2Gsxefd251q/Zm65M3bI7Zb6kvRIZBnwioISLQeXO1Fr7oXb7J+v6IaKlhcKMUCOBMrwhg6pnZ7QmHX0ShRwtaQl4xdhbtwCk59myTPk7tqPaD78Fzudo7LO5OmoOezlwWUWfeOmzPEX8nO/DLIb0owlAPLoo/3sJ10cfkpYIIIo0fj+Cs5TSmcbZlCI2/D2sZClNStcLUOiQfK3BMhDat9cgvAs4Vu9agxATDjicLtWvycEiOG2vQW6d8Wl9oJp4p0N4REpjCd7LlyZsX2TqmWgUjwqXRfTo2gXNO65/dmtKWMok6+SKe8781gTZxHG0XRq2TEz57hE7VchbRomiYw/dHRMTgRmmrUoY1Obmhah+Oltdgmxx7lhOlDypRuYX6j3lODZpNkxKsj3ps0968+MjuTBlADiY5NHhlWJMTCXatgG97LqrluLHl9osAh4gAc9WudcxoVZtCa3i4Ut2Wsov1mCWUmh/5eldwFPaTBZyI4/z9I5wNX7RYBM/jLaNo08JbNl6K2upGRBQ/BjdKT3LMmQxrWktYrzbuTI51a1Tj3YwuVopP5DpuenemDCBJJcecybCmtYRNaePO5Lixw2rsmN5V6kC2ZongU1KVG2qxijIpIf1M41u/HgJXruC6eESUXAxulIbW41S5HHOmJjN0tWjjzuRYtx7LeLckmRjWW00CrcEJCY6Prq8t49/ITjYOaWPmZrSWPDlmTI47k+PG/JaxY06M4BNqsfI+L7tzbSYlSMYaaH7ZBWkNpREP3qqLiFyOwY3S1+RN/M40mSGkGM+rraQYv4ELcqapZ2vUWaOzSskCvGkg1rXe5CQC25a8LDyttpz4r4xrY9L0pUGy8AM5ASBiUoISbVzcvMjCns3RFirOxm51X1jLkh9EREnA4EbpK6cGx8rWmyYDFKOyqAFt2jptqigpHuLkgD5rdG+VD6dknZYAV4ydZaJebXFfZ6legDf1jCUrslFvDi6ebPvlL7RbaJkDjprBKm+y7px6lCmck8uGLM/GD8RnyG5S5xmvoXFxdbsKcEjWaTmeLNRuFvU6LdobJ6/4rLqqfBxTCwmbT0Uf16fG00WbLEFElCAGN0pD1/FLtVabt7TeNGFgH5rLK8QPZS+OaEErieTyI1qdcsFeUWeVeWLCPhwtFfVOwnb5kaUjNHZLLoMRnAiwKx++avPyHSp0CZb3BWewTqGpe/aJEHqrmwhjVXLtNptJCWZy+RGtzkxUyzp3GXXq9fqqRL0idIYvP5II/5URvS61kLB5QoR5XF8Tu2WJaB4wuFFa6ulv0he+1RbLVSZ7g2PezpvLk0TWuaG7FWcCAesP7qRalFfUq68FZy9VC/AuJD206AvaBslZqXf0oGbQ3icXvtVa6BT5PjXmrX1UlUU1hcvGFxHDpARZp1yOo02ES+vxqUV55SSMJE1qiVqXXCJEnqMqIiJKpowXNlQ9Udtpp6zMi/7+xfu/WRf7+RHNlbx/qc87g7bPwtc9IyJamtjiRkTpyZOHejmAzGlSAhHREsTgRkRpRw7yP7FLjm0DOq9yrBgRkYHBjYjSg0eENdMgf+M2XMc5M5OIKIjBjYjSg3HrKkkN8k/2bbiIiNyOkxMWECcnEBERUTzY4kZERETkEgxuRERERC7B4EZERETkEgxuRERERC7B4EZERETkEgxuRERERC7B4EZERETkEgxuRERERC7BBXgXEBfgTWfFOLBpH/bmAP6BVtT1X1fl8yXV9ZG9LOxpWIG65cBg9yMcvJLInRuMz5hB22cjOBvzDfId9pO3AlP3bbUYm8DhlsV6H9dkfA8O5u16Jvq9E8WHLW5EdvLWYbsIUZK3tBI79c0oZPB6D9c27UClKolL3PUtVvLHT79faXNDHryqFGvy9TLxOLRGlRmivabJxiH1evMr2arMgScbL4qwIJVUZaNW36SYmb6/aA/zd2tn0X0PCfy7JnLA4EZkZ/wGLkzqm/6BHpzXN+dPqutzg7Fpm9aPGdwbUZs2qp+1CWZrslGtNmcVmMJ3Y/rmYPcU2vXNhRUYx8GPh9AYfDxCp3pp0ZrP72Ghr2cC/66JzBjciGw9xMmuD7Ch44MUdVumur5FyhvZOlNrF+YcTeNsi/6DntTuuSVHdheaw1HYY9YuSX4PRE4Y3IiSogjPqa7ORWvVFhz60IfmT304sbtQFSbbNO6rlhaLkRkMqk0nnX75A5+NlyxdTuK57JcSry36VipKY4n/uyYKx8kJC2jxT05QA+7Rgcaur4G89Xi7Yiu25Xj0lycDuDjwG+wfeqg/t1FZtANvl9aIfVQBAvAHvsHhm9fRo0oiFWNnWS3eKqyAN3y/AbHfuCoKCk0MsOMfOI26fptjLGpAW6m5jigCrdggjlmXYH0m8V0X6/fQI6/P2jfwlscTHGvjD3SIfeVrzmrf8cG3UT3BKNreP4uzd9XTJKp9pQg+cWCD3aM4eGVaLwwOKJ9C08ePrF1ncpzQ9mzx/gk8qMpFtf8RGn+vWmnUa53iNYS/ZhoAb8dSv60seNfkYv/GbJSozxj0T6C1U/wDq5bn4DRIPdH9DHLMXj6q4xlM78nGnuo8vOjNDA7KHxybQusfxbVM6iD6RAboz/V7EOZ0fvFez8S+v7j/XRM5YIsbzb+cQry91ofmqvpQaJPE9rbyfbi2dr0qMNMH+zeXm8OJJMKGpx7NNT4cyFNFFutxSoSUoxGBSu1X5cOpsmJVNncxhbakSvS6COJ7WC3Cs3Z9TKFN8npq0JzoxIok6x+b0f4+GDX9WAem8UD+Fa/1awV2pnFPtmqYuku9K7LE/53BvVFgpV6UJHrYOCZCofHjLZV4c+HbVYB6hxCS+H6J824uQPOufNSZQo1Usjxb1FmEE5vlNXKv1J5f4t9f4v+uiawY3CgFKrBNBAXZqnOkWx/HtaHjNI4MqP9JKgLHqSJ901BZ9oZqkQrgYt9ptY94dLfijDaI34O9VQ0Rsy8ry2SLntiY7DXVpdfX2NcL/6QHq/S3moTGl5kfjcbxORlqMb2/FRdl2WQHGk2fEXwEW9ukBOsTEr0uugoc1cJzAGdM+8rrosmpwdth34NZe2sXOrVfGWDw86/mpbVN8pt/2IJE+LLrarKYwbd++eNodJdm4QfixxxjU/jWduB3aByV+XG4W/+Bjab2FaOFaAadF0ZD+372CJ1jIkA4/IAnul/C1uTjWJW4BrK+7kc4rOrT6rwwpXXTlVTlY4/pf0+lXuLfQ6rPby7fX+L/romsGNwoJbTuv5tf43ywm/Ihzvc3BcPKNo+p1S1vB46Vyv/SioDR3WTtSh2/LkLPaRVSKvCWQ+uZf7jdVJf0ED0iaNWJwDRbN2TaSsJ10QJtRxNOmvaV1+WIyoyrcqK0Rt69hOPviu/szSYcPDesCueLwyw72xl5upLlmfBfGdfGsmmzS9WSEp1Xk7zWmScP9Vpzpd4ldvxW6AfZH5jC8ZZRtNn9GCe6X8KysGejPjGj84Ko78qU5Tr4bz3CQRFugEy8+HyyW90yUbdLLX8R/phtSZaYpfj8kvL9xf/vmigcgxulQAAXAvZhqSdwU/8PVm5RqJsut1Dvxgt8g5OW8GV4iJMDeiuRt3CdpXvP+Dxv6Rs4VbYelU7dhm40h+uiE4Gvt8V2qZHbE7O39qWM+MFt/Dh8jJBqlQmOT3MyhcvyH8DyLNQ+n62NHbp8SzwvsHajzYnxWf7xGMdwKYnulyhjLbSxCZyT18DOLX3SRok329J17gqpPr+5fn9z+ndNFMLgRulBjr9Sm5ViW/JPDGl/bU0M64HPtJ9m/GvUdXfg4qQH20rlmLb3cK1GLowrx7a5O8jN6bosIe13xI/g8lz4ZBeaP/lrsenj5uTg9xi68kwS3S9hRtAQ1+KYXcuX9siPfY27uMhWqVC3peWRrJCS4vNL+fdH5IDBjRYfEd72yzFk3XIcXa8IcQH45UQIFeTa1ooAp95Ki5BqZZE6ZYgjIlpEGNxoYRndf5PDuK0VhHhzo4yUj7Jf0LgcR9ciQlwT6tQA/ouT4nM99TiWxJmlFilo6ZrzdVn0pnC5ewaDYxN6N+k8kWPqEpHofnEz1giTS6DYtXyZH2685+kCnV/Kvj8iBwxulBLP5aoNi2IcKK3QtvzDN4JriAXHvXm2OixtYb+fVFkUpTVt/Dr2G2PAooWfOSnE8/PUHTuX65IUKVmANznar4zgoPixno91sfx/0Wcr2t2lQePJxDM2swsT3c+RCBBlatOWcdsob94CzxqdJ8k+v1muZ9K/P6IEMbhRCniwrVyNMVMlcjHe0CK0vfjEPNNz/Gt8og3glUtbiP2KTK1j0faTsy7L9bXMtO7QPGurWqVcw6xcBZto48QSch1fGcdcsQM7zcFKHMdO8zkkKtHrkiS19ZtQrRZDK3n9ZeyJXFdlaTACA7Lha8hHrSk0eNfk48Quh3FVie4XwVhCIhv1m02D7j0iUFgCzDTOXpVdxXKGZwEOyfdaXs9C7WZR70/FsagSd0nW+cV4PZP2/RHNDe+csICWzJ0TRJjwyy5KLVSE05e2iJwlGdrXnv1+kXcUsCHXWtPuIBBdZZkPzaWemO5koBHBsa2qJvQffgu5DIf9jE5DbPUlcl2MfZyudWx1p+rOCXETP5ry7ghal5nTwPdY3qPIBV3l2mBRV+wPrnhvY2wKnWPZqLZbQT/R/cIYxxjB5vwc32sQ9bb98VGSZrrqC9TGd+cEezF9D0Iyzi/m65mk749oLtjiRikQwIVefaFXGeAM+oK89kHCWKS2sU/OEFVFGnlrp1Y0yrXIbPbrGdInJuj7Wf/L6Z/s1RaejSW0JUSb0SrH0dnV2x41tMUuseuSDKlagNcVAuM4+NkjtGkL/hrUIrAtj3DOaeZhovuF8V8ZweFu1XVnkAHlTuT+8r2Nqk7r+0P1ujlkJOP8Yr6eSfr+iOaCLW4LaOm0uDm39BAREVHs2OJGRERE5BIMbkREREQuweBGRERE5BIMbkREREQuwckJC2jxT04gIiKiZGKLGxEREZFLMLgRERERuQSDGxEREZFLMLgRERERuQSDGxEREZFLMLgRERERuQSDGxEREZFLMLgRERERuQQX4F1AXIDXQd4OtFXVwKueBk12oLHra/Sop+mpGAc27cPeHMA/0Iq6/uuqnIiIaO7Y4kaUTHnrsF2ENslbWomd+uYSVog9H/rQ/OGWyCBORERxY3Cj9DP+Neo6PsCG4KMVF9VLaW/8Bi5M6pv+gR6c1zeJiIiSgsGNKKke4mSXHjjZTUpERMnG4Ea01KzagkOy+/JTH07sLlSF86UAz6xUm0RENGecnLCAFv/kBDVQH/qkAuStx9sVW7Etx6O/PBnAxYHfYP/QQ/25o/U4VVOPbfFMThB1HSjdiu0eT3BslX+yFxcG2nEyrL6da9/DUXFIF/s+EMeiCiMYkw56caSjRXWBhiYi2PEPnEZdv925Wa9Lj3i+c+0beMt8rIEOHL7pfK6VRQ04VloBr0PdklP9te/44NuonmAUbe+fxdm76mky1LyKEz96FiWxBLarf0Djv/SpJzrv7j049jpCx7WqHHvqq/HixhUo0d+CQbHfKbGf9v89Ioie+MUmlDzowuF3L+llFnKcXQPqVkY5V7s6HtxB60dfoj2Z14aIaI7Y4kbzL6cQb6/1oblKhC8jtElie1v5Plxbu14VJIMIRaKua6KuvaYgJHlzKrBX1HeqSBUo5wc6tB/7baU7UKkXRTImHQSSOG5NXJfVImCeEiHuaPixemrQvMn+eHbKa1kePbQttJhCWwxkiGv+xQ9RZwpUktxO1v/kcaxj5bPw/SIVrZJERLFji9sCWjItbipgyFakTwa+xvlx+awYO8vewNFSPchFb+2Ko8WtqAHXRKiRrWuf9LaLuowWJ3N95lYz3WytbvrrAZzpbsJJ7fidVZaJYCXqmbXFLRi8xOf2/SbYEihb02QwkyKOR51f5D47cKxcLqESeW4RZFfpzzahWoSrwc9bcPDcsHphPpTj0Kc/RLVja1gkvcVtBTqv3kH1xmeBB3fQ9NF3aL9rHGchvKuG4TdawubS4lbzKpr3iTowis7PO3HunGrFE7zitf3itZL5aJUkIkoQW9woJbQQc9MIbdJDnO9vQuNAQHu2zZOkVrehFjR2f4C6LhFegqFN0us7olVXiOfztMKgYKub7XGsx8sy703exO9mCW1xEwHzSIcIg6bu2x5xDvpxikySU6xvKJU5euvPxb7wfb5GXV+v2KrAy2EtihHuXsLxd8W1f7NpnkPb3MjQJoNl47uyu9J8nKbQNici0P1Ihjag8/RZHDeFNsnf8SUOnr4jtlbgxc1sdSOi9MDgRikQwIWAOUSF9ARu6j+WuUXO3ZRx6jHCVV4xdhbtwKm1PrRt8uFajd6qBnjwXK72jhBjGQ/PVhwIC3UoqsQ28cc/fCPJi/8GcKbXvnXs9oRKbgkID3uudfUP8xssV63Gi7JL90EXznXoRRE6/oJO8adk02pLVzYR0UJhcKP0IMd7qc25kt2Gpza9h2tV+3C0vAbb5Pgx89g6Ww9xckC2WHmw3WMOPsU4UCq7JnvxiW23Z2r1TOpBZlt5A3aaA6YcK6e6V+9OLvxxJsPg4IjamifPqDFtKzfh2Kf6LNvIxw9Rrb2ZiCg9MLjR4qKNDxNhTY4fm+zFxYFWHOk+jUbxkGurGV2QtobacWYS8JbWhu54MB+TEuYi2I1agaNVIpzWqIec+CGLA634peNYQSIicjsGN1pYuYV6F9TkMG5rBXNhtDrJgfsiqHW1YH//dW2sW49lvJuTh/jdsExFoXFilZ614vjE5w2k02K6evq0DsKXS6u0ovHm9SR35ybJyhUoU5tp494oBuVfuSTJm/qYP8dHjBMriIjmG4MbpUTEmDKN0Q0Z4/ixWLtT5SSCsLXadMV4Xm056en/Rru9lr40SDH+odAzP5MSElXUoI3TOyMnYFhuC9akhdSYQltKF+A1LMfTq9Rmst0dwQP51yEcene/jDq75Unu3sZ3cseN1dgzX8dGRJRkDG6UAnK9Nh9Ola0PTUCQC+QGl8SYbfzYEP6q3f+zAm+FfYZlnJchpwbHzO8TAUwusdEm65ttqBuu45dypmvOWvxDmd5NmvxJCYnTZ5V68JxlHF58auv1pUCkktdfnufQ0ofLV+XfFaj72RbUmutaVYjammQExxHc05Lbs/C9Ux6aRCA+f887+tIi9oZx9rf6rNG6X+zBod1iX8u1EMe3+1Wc+PRV1KoSIqKFxnXcFtBSWsfNL8eOaSEtXCCutdEiBFqx4WaoG9PxfZJcemMYOFpaEdu6cdp2DOuihYl9HTfnc3f8jLwdaKuS67U5c7pDhGHe75wQzlhnTT21uoOmN79Eu3omGeu4xbXGXHA9tkjyc1pLGsQ525+rUZ+jB3fQ9tGXXMeNiNICW9woBQK40PsBGvt6tQBnkAvyHokhtEk92ppvYn/1XCMCypmANX1p7wurR3ufGvN23lzu6Dq+MiYxpMukBMP4DXwSMA7OntMdIgztrV3o1FqoZKj5av4Dyd1LOPj+H0Sdo6pAJ28p1Xb6O0toS1jHlzh8+o74TPVckgv3vq+vVdc/aK3bzH/uLBrF8bVdVWPeDOJ4Oz//Aw6/y9BGROmDLW4LaOm0uMXWqpZO4rlTQuqo6xm8x6kded9TeQstEUgcW/yIiMit2OJGFC5vB96Sva3pNClBUkuTRB9z93BOi/cSEVF6Y3AjMpGL9xpjyC4OzHJf1AXiLX0Dp4qKI+40USknfMgb0Gtj/NJjwWAiIkoudpUuIHaVpgmbAf/+QCvqTJMe0oVxM/yo5Ji+3hZXdU0TEVFs2OJGZCwCLE0GcLFP3hA//UKbdP6mnOTRgYviOMMjv5xNKidhNHYxtBERLVZscVtAi7/FjYiIiJKJLW5ERERELsHgRkREROQSDG4LiN2kREREFA8GNyIiIiKXYHAjIiIicgkGNyIiIiKXYHAjIiIicgkGNyIiIiKX4AK8C6z2HR98G9UTjGLwwRhaP/oS7XdVEREREZHCFre0sgIlK5+F7xevolaVEBERERnY4pZOVpVjz89+iLqVo2h7/yzOstWNiIiITNjilk7u9uHbrlH1hIiIiMiKwS3N+AfH1BYRERGRFYNbmvGWLFdbRERERFYMbmlpDPc5vo2IiIjCMLgRERERuQSDW1p6Fr4Pt6B2lXpKREREJHA5kLRTiNp3Xkb9xhUoUSWDn7fg4Llh9YyIiIiWKra4pSkjtBEREREZ2OKWbmpeRfO+Z4EHd9D00Xdov8uWNiIiItKxxS3N6MuBjKJNu18pQxsRERGFMLilJS4HQkRERJEY3NLScjzNGaVEREQUhsGNiIiIyCUY3NIM71VKREREThjc0gzvVUpEREROGNzSyapy7H59hXpCREREZMV13BZY7Ts++DaqJ4YHXTj87iUstXtGEBERUXRscUsroxi82oWmjxjaiIiIKBJb3IiIiIhcgi1uRERERC7B4EZERETkEgxuRERERC7B4EZERETkEgxuRERERC7B4EZERETkEgxuRERERC7B4EZERETkEgxuRERERC7BOycQctctwzNbMlBQkKFKgMmRJxi59BgDN9Lxn0cGSn+SiacLnuD+r2cw8L0qTguFqN39Iuo3PYuSlaoId9D05pdoV8+IiIgSxRa3BSUDSBa2/Dz8kYkNIpiUrgsFqXmzLhMvvLbMEtqkHPH86XL1hGJW+04DfK+bQxsREVHysMVtQRktR+qpnZHH+POvHmNCPU2uDJSLkCirn7w8g1vfPAnV81QGCsWf4e/Z4ha7Quz5sAF1IrR1nm7B8Y5hVU5ERJQcbHFLC09w+5+mccl4iDBy+/ITTMqXCpbhhZ8sQ672viQT4SxH/hXh0BLaJBHY0jO0ucCDLpxjaCMionnA4JaOZGj6ZgbXfv04GN6eWae9QkREREsYu0oXVKjL7/Y/zcCujSZ3ayZeeCnDucv0KfEZf78MBatV65kgJxbc/634PJsuRPl5a8TnGe91dHsGl1pt/mnEVZ86PxjHnoHC+mV42rzv7ce41erUFZyhTZxYs0W8X3Uny/ff/9Nj4O+zsHp1lK7SOK+LpF9rhD7T7jPEdbklrotT13XtOz74irtw+N1L4LQaIiJKNra4pbmJXqPLVIQYrSREBo0tPxbByBQsJDmxYPWPs7Bhq/3kBvN745FofdqxixBULkLc6vB9Vzt1Beuh74XXxPtNYwDl+1fLY4gyLjDh4zRx/AzxcAptQStXoExtEhERJVPm3xUX/xe1nXb+9m+X43//7zH1bDHKwN9uXIZ8kQZG/uTQijMO/F9r9fdM3n6CR+K5Zl0mqrfLAPIEI5cf41bzY9z502PcE4+RsQzkrxGB45kMZJj3Ef6t/4n2Hu1xG/BsyMDfyNa8/z4T3F973FQ7GBKqzzi/DBRsWIacnCe4/8Vj3GgL7fd3Yj+I1/9m7DECQ2o3obA+C96n5ZaoT+xzzdhHfP7flIrPVMHt/1yznl+i10X6m1XL8Hfitem8DHhfEJ8x8gS3zz1G31f6/vfEdzQiyv4tbD+zVVtexIsrx/Bd623cVWVERETJwhY31xCBQ07z1GSgdIsMJyJbfDGDvrCJBRM3ZnDtC9nNKQJThf6+uUlCfTIE/dOMZV04ud9tER6lHI9pv6dkd6rc0LtC+8z7fP8Efb+awf0RVWCRnOsiu0blLNtLoh7rBA3xeQ7drHJGqXf3q6jfKDYfjKJfLyQiIkoqBjc3ekouliv+jjzGvRt6UYQbjyGzTc6ayC7WuM25PjW2TD0zmwiYg5FSqLonbz+Ob6mPZF2X2yLgidAXk1VbcOJTH5o/bcAxuX7bgzto+4jj24iIaH4wuLnGE0wayccINnKpkIjFe42Hvj5bUqS4vlyP/ncyoP+NWZKOM+56TQbF476+SURElHQMbunOaEUSJuNpfaLUuHsJB99sQuObLWj6fBQlK5+F72db4FUvExERJROXA1lQ+szJmJYDMS/P8dQybPjxMuQ4LdkRK+NznJYaMSRcX+j8nJbtMM5Pjikzuidtz9nC4XPneF3sjiVe2nIgG3lvUiIimh9scUtnIojINdekkT5TkPhezm4Uf1cvQ+lTetG8SnF9wSVQRH3B+Rhm4hjMS4QEpfq6EBERpRiDWzp6KgOFWzP11iP5/LacWam9ojzBwCUZ5DLw9I8zUb5VrpOmv6JT+/880z74xC3F9RkBTHzu6p+IzzTVlbtOXhencWqpvi5ERESpxa7SBWV0+amnNqLdWSDYpehE3SnAcWZmrF2lSvz1JdZVqjGOTT21EPWMjGSgwOHOCYlel7l3laqbzIN3TiAiovnBFre09ES7PdNtEUquOd4OCpj4Zka7If3926pr0SCDjQgff/5VlNCWgJTW9/1jXFN1hYTquWe3jIiS6utCRESUKmxxI0oatrgREdH8YosbUbKt3ITdNRxFR0REyccWN6Ik8u7eg2Ovr1DPDFwehIiIkoMtbkRJ5D93Foc/v4PBB6qAiIgoidjiRkREROQSbHEjIiIicgkGNyIiIiKXYHBbQLIrmIiIiChWDG5ERERELsHgRkREROQSDG5ERERELsHgRkREROQSDG5ERERELsHgRkREROQSvHPCAuKdISitefJwYlcuStTToLEJHG4ZB//lEhGlHoPbAmJwo/hlYU/DCtQtF5vmALUmH83bs+UWOi8M4fgtbTPIu7kAx6oy1TOrwbEZPLj6COduTVvDGIPbPEjs+yMiMrCrlMitxsKClmYG90bUZoxKlmeievsKHGvIg2VJ6MA4Dn48hMbg4xE61UsU4l2Th0MNBWj+aZF6FODEK9nWa2knSd8fES0tDG5ES8hg96gpiMnHKA5fmMCgfHF5LvZvztLeR7GQrWdFOLY9F9Ui/IZkosSbL4JwPmo9qoiIKEkY3IiSZdUWHPrQh+ZPfTixu1AVJts07o+pTbORGT18xW0a/lvjOPiZHt5KvDG0FJGm9hWjy3MKbRfMgXgUTd0zIgiL1wLaW02S/f0R0VLD4EbzqBgHNr2Ha5t2oFI937nWh7YaUaYebWuN1xzkrceB8H02NeBAUbF6Q8jOtfL1BuyU9Yp99Pf7cKpIvmpXZsOhvp156vUoaus3oXqlvl3y+svYs0rfni9ybFokEQwiwkIMAtN4IP8uz0SZVpAknmzseaUAJ4LdiEU40ZCPPWsiW/ZqX9FfP7RGFdjSW7maf5qPWlVi4VBftJYvOf5Pdm/uMd5j9xnhXZ9r8uHTCqbQ1PIIZ29Na8W6abRfGREB7hHaVYmdpH5/RLRkMLjR/MspxGoRiE5t2oejHo/lB9DrqUFzMNiZqaBVVY+94fvkVGBv+T6H8FWIt0Q9ch+dB9tKd4jPCisrlwHPqrLMub6jVSLAlUWGxYXQr37wH4yawoIRvMRr/VrBQhMBS4Sf5l35qPNmWiY4lCzPRt32FREBrb1Tb/Wr3hg21s5MhKoXZUuWfyoiFGkBzKE+3y4RvmLoBnb8DPEwj0erfdaYSBA9nNlxx/dHROmKwY1SQAafemzLCeBM32ls6PhAezT29eov59Tg7fAQVlSrBSj/ZC+OdIf22dBxGkcG9CYJu/AlQ5lX1tOtv/fMpCgSn7/XE1Ymjullc51FDWgulcEugIsDrWgM1qcfp/zR9pa+gQNRWt7aW7vQqf36AoOff4Wzd/XtZPObf/CDZnDPrgsuVmuyUS3/Jis4rMnVws/g2BSaPrPpRhSqt4e1mgXG0Sov9PJc7HZodautlrNcZ9DWOaVKlDX5atbsDDq7H+FwsL4hHL4wpXcDV+WHWtUiZOKZavUZNsd82FJfNl5SrW2X5exP1UJntM41NxTg0GbnLud5+f6IaMlgcKPUkAGsowknhx6qAqBnqAVHVLfQqpyw1izxWqMIWnVdLTg/HtoHeIjz/U1qv0I8bxOk/AO/wclxufUQvxvWKzCX/WVCKzIpxoHSCm3rYl8T9vdfR4/2TCePs04LmR5s90Rpdbt7CcffbULjm004eG5YFc4Xh9mHtjMVo8mCV4SeE2opikH/VJz7O7glwtNnQzjY8gjtgchuxCatkiw8HRakgq1uqkXLSgUmEay+tXQnZmHPRqMFbATHr1jPwS+O5aAIbzKcvfi8c6tbtTdbn7xhc8x+S32KDLnakil6C12QnKUrQuKxV+zOwZCs74+IlhoGN0qBAM70igCmnpndnrD7RdT1aEFLyCvGzqIdOCXHnm3Sx6kd1X7wPXguV3uHxd1Jc9DTmcsi6sxbh+054u9kB345pBdFGOrBRfHHW7gu+pi8VBBBpPHjEZy1nMY0zrYMofH3YS1RYUqqVoRahrTHChwToU12BQ76RcC5YtcalJhg2PFkoVYumSHHjallM/TxYZl4pkB7R0hgCt/JlidvXmTrmGoVjAiXRvfp2ATOOa1/dmtKW8ok6uSLWM9fnI8+lDEb++U6d1oLXWQLH7z59uP15vD9ERExuFHaqpRhTU5uqNqHo+U12CbHnuU49nUlLrdQ/zHPqUGzaVKC9VGPbdqbFx/ZnSlnRR5McmjQ1zcT4XDXCvjkkhly3Jhl2Qw7IsBctWsdM1rVptAaHq4K1Hi05bk4Zgml5ke+3hUchf1kgSjEuZSIsHdYa6FTZUKohc+p5ZCIKHEMbpSe5JgzGda0lrBebdyZHOvWqMa7GV2sFJ/Iddz07kzrrMgkkGPOtPXNxLYIhnLcmRw3dliNHdO7Sh3cmkDbmGwdzA2NgYsyKSHljIkEckapCLu2p2Is77E8y7mFj4goAQxulIbW41S5HHOmJjN0tWjjzuRYtx7LeLckmRjWf3wDrcEJCY6Prq8t49/ITjYOaWPmZvT1zUQwlOPO5Lgxv2XsmJNpfOuXrV/ZeEl1NXqfl925NpMSJCMk+WUXpDWURjyScqsuTiQgooXD4Ebpa/ImfmeazBBSjOfVVlKM38AFOdPUszXqrNFZpWQB3jQQ61pvchKBbUteFp5WW078V8a1MWn60iBZ+IEc/B8xKUGJNi5uXkQGy3B60LQZj0dENEcMbpS+cmpwrGy9aTJAMSqLGtCmrdOmipLiIU4O6LNG91b5cErWaQlwxdhZJurVFvd1luoFeFPPaGnKRr15uQtPtv0Ct9ottMyTAdQMVnmT9Vn7D6dwTrv7QDZ+ID5DdpM6h6DQuLi6XWopDsvxZKF2s6jXadHeBASD5fbwpT9kXcYN/Wfw3V+S3AVNREsegxuloev4pVqrzVtab5owsA/N5RXiR7IXR7SglURy+RGtTrlgr6izyjwxYR+Olop6J2G7/MjSYbQ06WuiBScC7MqHr9o8CF+FLsHyvuAM1ik0dc8+EUIPRyKMVcm122wmJZjJ5Ue0OtVSHLuMOvV6fVWiXhE6w5cfSdwUjmuzR1V9lrr00CaXJrHOHCUimjsGN0pLPf1N+sK32mK5ymRvcMzbeXN5ksg6N3S34kwgYG3ZmVSL8op69bXg7KVqAd6F5L8yIgKSWu7CIGel3tGDmkF7nww25rFgavaqtk7aqCqLagqXjS8ihkkJss7Gzx6hTYRL6/GpRXnlJIxkBik5e9SmPn3R4REcd1qahIhoDjJe2FD1RG2nnbIyL/r7F+8IkcV+fkRzJe9f6vPOoE0EIbZeERGxxY2I0pUnD/Vy8JjTpAQioiWIwY2I0o5cvPeEvCuB2O68mowlPIiIFgcGNyJKD/K+n2qQv1y817gNF8eKERGFMLgRUXowbl0lyQkF83AbLiIit+PkhAXEyQlEREQUD7a4EREREbkEgxsRERGRSzC4EREREbkEgxsRERGRSzC4EREREbkEgxsRERGRSzC4EREREbkEgxsRERGRS3AB3gXEBXjTWTEObNqHvTmAf6AVdf3XVfl8SXV9ZC8LexpWoG45MNj9CAevJHLnBuMzZtD22QjOxnyDfIf95K3A1H1bLcYmcLhlsd7HNRnfg4N5u56Jfu9E8WGLG5GdvHXYLkKU5C2txE59MwoZvN7DtU07UKlK4hJ3fYuV/PHT71fa3JAHryrFmny9TDwOrVFlhmivabJxSL3e/Eq2KnPgycaLIixIJVXZqNU3KWam7y/aw/zd2ll030MC/66JHDC4EdkZv4ELk/qmf6AH5/XN+ZPq+txgbNqm9WMG90bUpo3qZ22C2ZpsVKvNWQWm8N2YvjnYPYV2fXNhBcZx8OMhNAYfj9CpXlq05vN7WOjrmcC/ayIzBjciWw9xsusDbOj4IEXdlqmub5HyRrbO1NqFOUfTONui/6AntXtuyZHdheZwFPaYtUuS3wOREwY3oqQownOqq3PRWrUFhz70oflTH07sLlSFyTaN+6qlxWJkBoNq00mnX/7AZ+MlS5eTeC77pcRri76VitJY4v+uicJxcsICWvyTE9SAe3SgsetrIG893q7Yim05Hv3lyQAuDvwG+4ce6s9tVBbtwNulNWIfVYAA/IFvcPjmdfSokkjF2FlWi7cKK+AN329A7DeuioJCEwPs+AdOo67f5hiLGtBWaq4jikArNohj1iVYn0l818X6PfTI67P2Dbzl8QTH2vgDHWJf+Zqz2nd88G1UTzCKtvfP4uxd9TSJal8pgk8c2GD3KA5emdYLgwPKp9D08SNr15kcJ7Q9W7x/Ag+qclHtf4TG36tWGvVap3gN4a+ZBsDbsdRvKwveNbnYvzEbJeozBv0TaO0U/8Cq5Tk4DVJPdD+DHLOXj+p4BtN7srGnOg8vejODg/IHx6bQ+kdxLZM6iD6RAfpz/R6EOZ1fvNczse8v7n/XRA7Y4kbzL6cQb6/1obmqPhTaJLG9rXwfrq1drwrM9MH+zeXmcCKJsOGpR3ONDwfyVJHFepwSIeVoRKBS+1X5cKqsWJXNXUyhLakSvS6C+B5Wi/CsXR9TaJO8nho0JzqxIsn6x2a0vw9GTT/WgWk8kH/Fa/1agZ1p3JOtGqbuUu+KLPF/Z3BvFFipFyWJHjaOiVBo/HhLJd5c+HYVoN4hhCS+X+K8mwvQvCsfdaZQI5UszxZ1FuHEZnmN3Cu155f495f4v2siKwY3SoEKbBNBQbbqHOnWx3Ft6DiNIwPqf5KKwHGqSN80VJa9oVqkArjYd1rtIx7drTijDeL3YG9VQ8Tsy8oy2aInNiZ7TXXp9TX29cI/6cEq/a0mofFl5kejcXxOhlpM72/FRVk22YFG02cEH8HWNinB+oREr4uuAke18BzAGdO+8rpocmrwdtj3YNbe2oVO7VcGGPz8q3lpbZP85h+2IBG+7LqaLGbwrV/+OBrdpVn4gfgxx9gUvrUd+B0aR2V+HO7Wf2CjqX3FaCGaQeeF0dC+nz1C55gIEA4/4Inul7A1+ThWJa6BrK/7EQ6r+rQ6L0xp3XQlVfnYY/rfU6mX+PeQ6vOby/eX+L9rIisGN0oJrfvv5tc4H+ymfIjz/U3BsLLNY2p1y9uBY6Xyv7QiYHQ3WbtSx6+L0HNahZQKvOXQeuYfbjfVJT1EjwhadSIwzdYNmbaScF20QNvRhJOmfeV1OaIy46qcKK2Rdy/h+LviO3uzCQfPDavC+eIwy852Rp6uZHkm/FfGtbFs2uxStaRE59Ukr3XmyUO91lypd4kdvxX6QfYHpnC8ZRRtdj/Gie6XsCzs2ahPzOi8IOq7MmW5Dv5bj3BQhBsgEy8+n+xWt0zU7VLLX4Q/ZluSJWYpPr+kfH/x/7smCsfgRikQwIWAfVjqCdzU/4OVWxTqpsst1LvxAt/gpCV8GR7i5IDeSuQtXGfp3jM+z1v6Bk6VrUelU7ehG83huuhE4OttsV1q5PbE7K19KSN+cBs/Dh8jpFplguPTnEzhsvwHsDwLtc9na2OHLt8Szwus3WhzYnyWfzzGMVxKovslylgLbWwC5+Q1sHNLn7RR4s22dJ27QqrPb67f35z+XROFMLhRepDjr9RmpdiW/BND2l9bE8N64DPtpxn/GnXdHbg46cG2Ujmm7T1cq5EL48qxbe4OcnO6LktI+x3xI7g8Fz7ZheZP/lps+rg5Ofg9hq48k0T3S5gRNMS1OGbX8qU98mNf4y4uslUq1G1peSQrpKT4/FL+/RE5YHCjxUeEt/1yDFm3HEfXK0JcAH45EUIFuba1IsCpt9IipFpZpE4Z4oiIFhEGN1pYRvff5DBuawUh3twoI+Wj7Bc0LsfRtYgQ14Q6NYD/4qT4XE89jiVxZqlFClq65nxdFr0pXO6eweDYhN5NOk/kmLpEJLpf3Iw1wuQSKHYtX+aHG+95ukDnl7Lvj8gBgxulxHO5asOiGAdKK7Qt//CN4BpiwXFvnq0OS1vY7ydVFkVpTRu/jv3GGLBo4WdOCvH8PHXHzuW6JEVKFuBNjvYrIzgofqznY10s/1/02Yp2d2nQeDLxjM3swkT3cyQCRJnatGXcNsqbt8CzRudJss9vluuZ9O+PKEEMbpQCHmwrV2PMVIlcjDe0CG0vPjHP9Bz/Gp9oA3jl0hZivyJT61i0/eSsy3J9LTOtOzTP2qpWKdcwK1fBJto4sYRcx1fGMVfswE5zsBLHsdN8DolK9LokSW39JlSrxdBKXn8ZeyLXVVkajMCAbPga8lFrCg3eNfk4scthXFWi+0UwlpDIRv1m06B7jwgUlgAzjbNXZVexnOFZgEPyvZbXs1C7WdT7U3EsqsRdknV+MV7PpH1/RHPDOycsoCVz5wQRJvyyi1ILFeH0pS0iZ0mG9rVnv1/kHQVsyLXWtDsIRFdZ5kNzqSemOxloRHBsq6oJ/YffQi7DYT+j0xBbfYlcF2Mfp2sdW92punNC3MSPprw7gtZl5jTwPZb3KHJBV7k2WNQV+4Mr3tsYm0LnWDaq7VbQT3S/MMYxRrA5P8f3GkS9bX98lKSZrvoCtfHdOcFeTN+DkIzzi/l6Jun7I5oLtrhRCgRwoVdf6FUGOIO+IK99kDAWqW3skzNEVZFG3tqpFY1yLTKb/XqG9IkJ+n7W/3L6J3u1hWdjCW0J0Wa0ynF0dvW2Rw1tsUvsuiRDqhbgdYXAOA5+9ght2oK/BrUIbMsjnHOaeZjofmH8V0ZwuFt13RlkQLkTub98b6Oq0/r+UL1uDhnJOL+Yr2eSvj+iuWCL2wJaOi1uzi09REREFDu2uBERERG5BIMbERERkUswuBERERG5BIMbERERkUtwcsICWvyTE4iIiCiZ2OJGRERE5BIMbkREREQu8f9v7/5DqzrzfY9/WgWJATEmmRvTiW5bjVqOp/44djw304jSdmg7ktwWvZELQ3uoZbr/0CJHSMHSWypU6EV6/CNTxjL2DlzMVTokOLZ0pqdienLHaY9Rx0tjUue4NW2UMduIoLmCtvd51nr2ztq/8sPsJHsl7xdsstbae2etve2Qz3yf5/kughsAAEBIENwAAABCguAGAAAQEgQ3AACAkCC4AQAAhATBDQAAICRowDuJaMCbQ/FGta6sUcTtJg20q6Hjc3W63cJUoddWb9NLRVKsp0V1l8+54wAAjB0VNyCfih/VBhParEjVcm3yN6exMm19J6rmd9ZlBnEAwKgR3FB4bn2uuva39Vjy0aIT7qmCd+trHR/wN2M9nTrqbwIAkBcENyCvruq9Dj9wMkwKAMg3ghsw3Sxcp112+PLDqPZtLnMHx8s8/Xi+2wQAjBmLEybR1F+c4Cbqy19UoOIVenXpE1pfVOo/PRDXiZ7fafu1q/5+Tiu0v6Ze60ezOMGc67WqJ7ShtDQ5tyo20KXjPW16L+18m5a9oT3mkk50v22uxR3MkFh00KXd7YfdEOjgQoRsYj0HVHc522dL/V46zf6mZc/r5eC1xtvVeD73Z11evkV7q5YqkuPcVq7z1+6IKrrK7ahfrW8e0qFLbjcfap7Rvp8vUuVIAtvpz9TwL91uxxfZvFV7n9PgdS2s1tb6NVq7qkSV/kvUa96337zP+1+PCaL73lqtyisdanz9pH8shZ1nt0V184f4rNnOceWiWt7/RG35/G4AYIyouGH8FZXp1WVRNa804SsR2iyzvb56m84uW+EO5IMJReZcZ825XgoEIStStFQvmfPtL3cHnKM97d4f+/VVG7XcP5Qpseggnsd5a+Z7WWwC5n4T4vakX2tpjZpXZ7+eTfa7rB46tE22EYW2EbAhrvmtJ1UXCFSW3c7X/+XJeY75ixR9ayKqkgAwclTcJtG0qbi5gGGrSB/0fK6jt+xehTYteF57qvwgN3S1axQVt/ItOmtCja2ufdDVZs6VqDgFzxesmvmGq7r5z8d18EyT3vOuP7flC0ywMucZtuKWDF7m93b/LlkJtNU0G8ysjOtxny/zPRu1t9q2UMn8bBnsUOkvV2uNCVe9xw5r55E+98R4qNauD5/UmpzVsEx+xa1Ep05f1JpVi6QrF9X0/ldqu5S4zjJFFvYplqiEjaXiVvOMmreZc6hfp46d0pEjropnRMxz281zleNRlQSA+0TFDRPCCzHnE6HNuqqjl5vU0BP39taX5qnqdu2wGs68rboOE16Soc3yz7fbO12ZHin2DiYlq25Zr2OFnrJ5b+C8Ph0mtI2aCZi7200YDAzfdprP4F+nySRFFf6Gs7zIr/6c6E5/z+eq6+4yW0v1VFpFMcOlk3r3dfPdv9g0zqFtbGxos8Gy4XU7XBm8zkBoGxMT6H5uQ5t06sAhvRsIbVas/RPtPHDRbJVo7eNU3QAUBoIbJkBcx+PBEDWoM37e/2M5uzz3MOUodSbCVXGFNpVv1P5lUbWujupsjV9Vk0r18GzvFYMSbTxKn9BraaFO5cu13vyI9X2d5+a/cR3syl4du3DbJbf7kB72Quv0Z+MbLBcu1lo7pHulQ0fa/UMZ2v+qU+ZH5erFKUPZADBZCG4oDHa+l9scKztsuH/1Gzq7cpv2VNdovZ0/Fpxbl9VVvddjK1al2lAaDD4Veq3KDk126YOsw54Tq3PADzLrq7doUzBg2rlybnj10sDkX2c+9PZed1vj5MduTtv81dr7ob/KNvPxpNZ4LwaAwkBww9TizQ8zYc3OHxvo0omeFu0+c0AN5mF7qyWGILO61qaDA1KkqnbwjgfjsShhLJLDqEu1Z6UJpzXuYRd+2MPxFv0q51xBAEDYEdwwuWaX+UNQA3264B0Yi0TVyU7cN0Gt47C2Xz7nzXXrTJnvlstVfdpnU9HgPLHlpcvM9Znf11NIzXT99Jk6Cd+2VmlRw/lzeR7OzZP5JVrgNgvGt/3qtT9tS5IX/Tl/OR8jXFgBAOON4IYJkTGnzJMYhhzh/LGRDqfaRQRpvdp8FXrEbeXSefkL7/ZafmuQCv2srHR8FiXcr/It3jy9g3YBRsptwZq8kDqi0DahDXgT5uqhhW4z3y5d1xX7M0c4jGx+SnXZ2pNcuqCv7BtXrdHW8bo2AMgzghsmgO3XFtX+BSsGFyDYBrnJlhjDzR+7pv/w7v+5VC+n/Y6UeV4JRTXaG3ydCWC2xUarPd9wU910Tr+yK12LlulnC/xh0vwvSrh//qrSUj2cMg9vdGrr/VYgVuVzT41zaOnWn0/bnyWq++U61QbPtbBMtTX5CI7X9a2X3BYpuqN6cBGB+f1bd/itRbLr06Hf+6tG697aql2bzXtTvgtzfZuf0b4Pn1GtOwIAk40+bpNoOvVxi9m5Y15ISxcfVW+0DPEWPXZ+cBgz5+ss23qjT9pTtXRkfeO87RH0RUsz8j5uuT97zt9RvFGtK22/ttxy3SEiYdzvnJAu0WfN7aa6qKYXP1Gb27MSfdxG1WMu2Y8tk/09LZVbzGfO/lkT58vpykW1vv8JfdwAFAQqbpgAcR3velsN3V1egEuwDXl3jyC0WZ1ezzfzfrfvMQHlYDw1fXmvSzuP9zo35+1o8HhO5/THxCKGQlmUkHDra30QT1xcdrnuEJHQ1tKhU16FyoaaP45/ILl0Ujvf/Mycs98d8NlbSrUe+ColtN239k/UeOCi+Z1u37KNe9/0e9Vd7k09d1DsyCE1mOtrPe3mvCWY6z117DM1vk5oA1A4qLhNoulTcRtZVa2QjOZOCRPHfZ/Je5xmY+97am+hZQJJzoofACCsqLgB6Yo36mU72lpIixIs15pk6Dl3V8fUvBcAUNgIbkCAbd6bmEN2omeY+6JOkkjV89pfXpFxp4nldsGHvQG9N8evMBoGAwDyi6HSScRQaYHIMuE/Fm9RXWDRQ6FI3Ax/SHZOX9fhUA1NAwBGhoobkGgCbA3EdaLb3hC/8EKbdfS8XeTRrhPmOtMjv11NahdhNHQQ2gBgqqLiNommfsUNAADkExU3AACAkCC4AQAAhATBbRIxTAoAAEaD4AYAABASBDcAAICQILgBAACEBMENAAAgJAhuAAAAIUED3klWuyOq6Cq3o371Xrmhlvc/UdsldwgAAMCh4lZQSlQ5f5Gibz2jWncEAAAggYpbIVlYra2/fFJ18/vV+uYhHaLqBgAAAqi4FZJL3fpTR7/bAQAASEVwKzCx3htuCwAAIBXBrcBEKue6LQAAgFQEt4J0Q98xvw0AAKQhuAEAAIQEwa0gLVL0nXWqXeh2AQAADNqBFJwy1e54SvWrSlTpjvQeO6ydR/rcHgAAmK6ouBWoRGgDAABIoOJWaGqeUfO2RdKVi2p6/yu1XaLSBgAAfFTcCozfDqRfrd79SgltAABgEMGtINEOBAAAZCK4FaS5eogVpQAAIA3BDQAAICQIbgWGe5UCAIBcCG4FhnuVAgCAXAhuhWRhtTY/V+J2AAAAUtHHbZLV7ogqusrtJFzpUOPrJzXd7hkBAACGRsWtoPSr93SHmt4ntAEAgExU3AAAAEKCihsAAEBIENwAAABCguAGAAAQEgQ3AACAkCC4AQAAhATBDQAAICQIbgAAACFBcAMAAAgJghsAAEBIcOcE3KcHVPVPM/TQPGngz/d09ovs/xnNfmKG/v4nDwz5msJUptrNa1W/epEq57tDuqimFz9Rm9sDAGCiUXErELMffVDVJgit++eZycdjZr/sR+4FOdkAZV7/Tw9qtjsyIX70gOaZ0GYV/eRBE3OmltodWxR9LhjaAACYfAS3AuBVpZ590AShB9wRX5HZX/wLE+DqH5jYUDYSf/tB16/7mwN//l59/uYUUaaHKvytUwcOq+HFJveg2gYAmFwEt8n2qD+UKJkg9PE9nfwfd5OPv3z8vReOihY/qNJhK28T7Qf1/Ma/znANgY7ClQ4daZ9akRQAEG4Et0lWVu1X2WzVqvvr1AB0+2tz7Df39Jff3lPP39zBLIrckCUAAJjaWJwwycrqZ2rx4qEn+Gd4dIYeW/fAyALbhXs62ZL6e/0FA9J3iUD4owdU9Z8f1LzF5nf6L9GAed835n23vb3BhQjZjGVxQln9DPP5TXg15/tL8nwB2a7t+g/67vf31JcjzI7+82Wq3RFVtKJDja+fFMtjAACFgorbJOvr9sOMN8F/FMOh+aqy2ZCz7hcmlAVCjWW3c4WafLHnHiq05by2xNy/J1LnBGYzps83v0QL3CYAAIWAilsBSFTdPLaadPJ79aQNm+b2gKr/eYbmXf9ef/nN9yMKW35F6gFdv/CDV4Wy57zw++/V97fEOR/Q7B+ZIDXE8KyV+D33U3FLHFeu637UBK5nbTD7Qdf//L2+Ne9NvGa2eW6Jea7IPJesqgXk4/N5FbdVtP8AABQWKm4FoK/lrv7y5x80YHfmPaCHnrVtQWao+onxXU1qQ40NVCd/Y4cdg8Fr+NA2FsOGNjs0u86GNvOSj++pOxDarNtfmxD4sb3eBzRvqf+6bO7v85UpsvkZ1a8ym1f6ddk/CABAQSC4FYjbX5gwElhJ6oWSn5iAYwPco7nDyZhcyF0pGy+Doe0HXchVIUz0iDPB7tuv/UMZvjbfk/lRtGSIcDuaz7dwnfZ9GFXzh1u01/Zvu3JRre8zvw0AUFgIbgXGX0l6Vyd/e0/fXXBVpWdtePOfz6eBuNuYIHaI0wttntQqWooyNx9t3oMmuA42JE59zNBw0/zG8vl6zeM7fxMAgIJBcCtUf/tBPS33vCFUa966Cb4zQr4tMSHMzlm7/r0u2M9kQ1n9OFUS78elk9rpNdk9rKZj/aqcv0jRX65TxD0NAEAhILgVuNtdbu7bcOYV4N0VAuxK0MSctr4v7unCBXNwcY5KYp/7zBdSGxJnfYxwQcbI9antyCE1nTabrCoFABQYgtsks33MhpzDlhg2HIGigru7QkDaQoS+lnveHDU7DFyVft1/c7fTWvxg5nMAAExjBLfJ9KMHvf5iNrz4N5RPDXB2TthjXksMk3tO5qosmZBjq1d6QA/9PK0XnPl9ZeO1sGGUBr5Jn9P2g7rdylB73anVwh/Uc9I99wu3ujYlwJnP9YT5bv7ZfGfuCAAA0wHBbTL97Xud/a27H6nXVNa2ARmcgG/nhNlqm+3y351rdaXR93++d61EHvQa0yZ/h/l9i581Yc57VQH62s3hyzbfLfGcXZxhV9cGP5cJbIt/Yr4b+72NS0XO3WSediAAgAJDcJtsJrx59yP9+AcN2OHBAHtrpwu/vaezabesyuAFwHsmAKa+zrs11Mffq5Bvk377i+/1nTcsmjlkbFukJFbXpszzM5/r+p/Nd2a+t6Hu4QoAwFTDnROADGXa+s4W1Yl7lQIACgsVNyCX+au1uYZZdACAwkHFDcgisnmr9j5X4vYSuHcpAGByUXEDsogdOaTGYxfVe8UdAACgAFBxAwAACAkqbgAAACFBcAMAAAgJgtskskPBAAAAI0VwAwAACAmCGwAAQEgQ3AAAAEKC4AYAABASBDcAAICQILgBAACEBHdOmETcGQIYLzO1dUuJ6uZKvWduaueXd9zxPCgt1r4XZqvS7SbduK3Gw7fE/6IBjCeC2yQiuGHiDAaZlICxZI6aN8yyWzp1/Jre/cbbdALvSXFPvTfu6qvTt3Xom7vuWIFJCVd31PTrm2rztvNgUoLb/fz7AZiKGCoFphsTujLDxT19e91tDmuGKufOUt2GEjVvKVZBtpGO39FXN/zN3jN38hfarPgt7fz1NTUkHzd1yj01MjNV+/Q87XulXM2Jx5Z52rVkpnt+GGP+9wMQZgQ3AMOwFatAUPmoX00mDPXap+bO1t6CDG93deiwf715HSYdq9JZ2rWlRNGICb/ukGfuDK2xQfhpv3oGALkQ3IDJtnCddr0TVfOHUe3bXOYO5ttdfecqUCmu3/MD2GjE76rty5va+dHtZHjbvMR7BkPxhljnaM3cezp15qYaA2G48bgLwpE52pX1u8zjvx+AUGOO2ySa+nPcKvTa6m16Se1q6PhcnWZ/07Ln9XJpabJCE4u3q/G8fS6H4hV6reoJbQi+Z6BLx3va9N61q+6Ib9OyN7SntEu729v0iDnPS+Y9JmXoRHeTtl8z15JxzHtbqhzn+6DrsI7ecgfyrHZHVNFVbkf9an3zkA5dcrt5VPt0uaLmQ/We6dfOL93ctOR8rWzzwBLzqnLPEYs8Pk97V87IPb+rdJa2rinW2kCFqffGnRzz49z5lPhddkhxjuqD743d1v4/pJ8n11w8X8rnzSXHdbb8q/nccXcgp1na9YoJZCOY4xZ5fI7+8a83dSjb70zMV4vdVMMfMquEo//3AzAVUXHD+Csq02ITiPabELcnEIisSGmNmldv1HK3P8gGrajOrqz3wlbKe4qW6qXqbdpf7g6kKNPLNix6Ac0q1fqqjeZ3pR2r3qJNbi9h+YLc59uz8g21LqhwR8Lp8o173s8r/YEQE7+rK/anee6yd2B0Yn9NDJnO0ALvSIIJU0/PU/MLc1SXNiyYmB+XvbJk2N+VY0ixMpL/oVkbPnNdZ/SFcu17fIRzz0Yg9mWO0GYNUz0bj38/AOFDcMMEsMGnXuuL4jrYfUCPtb/tPRq6u/yni2r0anoIK6/1ApStdu0+M/iex9oPaHeP/5cvW/iyoSxiz3PGf+3BAXPI/P6XStOOmWt6KnjO8i1qrnLVuJ4WNSTP51+nraJEqp7Xa8Xeq/OqraVDp7y/vlLvsT+OS7XNigX/4Cfd07fZhuBGKrkIYKYeSuRia8lsLwjZqlXTR/2D8+N+befH+QFkzYY5qvW20tnA5A8pth4ffK8dTvRkDM0OzmcLPhrdeYa0ZI5fMTTfQ67hy8qVc7Q1+NnGyzw/OPa6gJZuXP79AIQOwQ0Twwaw9qaU4c3Oa4e121UfFhalVbPMcw0maNV12CHK4JDoVR293OTeV6ZHsgSpWM/v9J43rHlVn/b5Jwge++tt71BAhV6rWupteUOol8+lDN3a66zzQmapNpSOQ9Xt0km9+3qTGl5s0s4jfe7geMmx+vBGtpWKozFDP57nNq1vTAj66Jp2HrZDjcHAYefHXVeTd7K0sBdkA9+vr6cMp8bM7/TfJ80vyUcVbKa2rkq00riud7+8k/Id2PPt9MLiDK19JH9Vt+wS13JHLUMO647Xvx+AsCC4YQLEddDOEXN7QRdu5xo3MoEpMaesuEKbyjdq/7KoWldHdbbGzmWzT5Tq4dneK1JcGkid+2YFj2Wcs/hRbSgyPwfa9ats896sa506YX5Eyh7NMqwbEiaINNgwlPLxXbUqy5yqsYolzlM6U7VLirXLtsDYMs9rf2HnamWEvaR7arVzy9xeUGK4MC9KZ2mt64t2JFf/s2/ueK0+KiOz8jo8m672aX+O3qnjQ8xTm+B/PwCFieCGgrXchrXVb+jsym3aU12j9XbuWdE4jFnNLvP/KBfVqNmEQhsMMx/1Wu+9GNllVoIiNqxtKVfzCyWKbpitNXYO2Vw7LFkg3NCk19Ik2FMt5TFHa7wXjx87x85bdBC7SQNdAMMiuKEw2TlnNqx5lbAub96ZnevW4Oa7JYZYMckSVSvbriL4b2Lnjtmw5lW07njzx+xct0Y33y0x5DndJVflmtC2k6oZgBEguKEArdD+ajvnzC1m6DjszTuzc906U+a75cntPn9+ULwluSAh58Nra4KEyCOz/KpVLHh3glna5d2GyS0uOHzTmz9m57rFUua7TbLEKk7bfiOwKCHrI++3svLvnmBDm620MdQJYKQIbihcA+f1aVqvNl+FHnFbeXHrax23K01LnxiXVaPDmpAGvOOgtFjbvRWZ0qmLWYLHjTv6U9Z7mc7UQ25rUiVWxEaK87NqNKMlSi5+3znb6sTryUZoAzAKBDcUrqIa7V2wIrAYoELLy7eo1evT5g7lxVW91+OvGn1pZVT77TlTAlyFNi0w563J1n5k7GrrV2vNfH+78rmntHWhv12w7GKDx+cM3mg919ysubO1/fHgpP6Ziiwx77PNcsdzpv+I3dWh0zY0zVDdC/O0y15ryn9X7nO+kqttSUKiJccs1Qc/b+ks1ab/d+r609XZuyccH0FjYABIQ3BDATqnX7lebZGq+sCCgW1qrl5q/jB2abcXtPLIth/xzmkb9ppzrgwuTNimPVXmvAPK2n5k6pulaHDCvl1ssNIfIrV3MmjMqBjd0RHXQ832QBuc+F+ivRvs++549zotCLZtiXetM7TGXusLgc9prtf7nCaU5Wxb4rmrP8WyfN4X5ii6JnDv0eQtr+yOuzdp8lypj3w2/QUwtRDcUJA6Lzf5jW+9ZrnOQFdyztvR4PE8sed87EyLDsbjqfOZBlxTXnNevxdcfk1UA978uZdsrLsz4/ZTvtiX1/0GtsHmsOY9iTlvbf3uWAGw19rw0U21mvCVcueCG64pr7nenHc7cLzPm7jxfoL9vBcD7UsSq1gBYAy4V+kkmvr3KgUAAPlExQ0AACAkCG4AAAAhQXADAAAICYIbAABASBDcAAAAQoLgBgAAEBIENwAAgJAguAEAAIQEwQ0AACAkCG4AAAAhQXADAAAICYIbAABASBDcAAAAQoLgBmRVoddWv6GzNW+odcEKd2w8TfT5AABhRHADsil+VBuK/M1I1XJt8jeH4ILX6o1a7o6MyqjPN1XN1NYt5Wp+xTy2FCvijmrJHP+Yeexa4o4lzdIu99y+x2e6Y6kij88b8vnCdz/fC4CpiOAGZHPrax0f8DdjPZ066m+On4k+XxjcuKuY2xx0T99ed5tZVK6crVq3PWXdx/cCYOoguAFZXdV7HW/rsfa3VXf5nDs2nib6fFPVLNWHtqoGAMMjuAF5Ua6H3VDnlLVwnXa9E1Xzh1Ht21zmDubbXX13w20GXb+nXreZU+yOTpkfU7PqNobvBcCU8sDfP7byB7ddcBYsiOjy5cxBgaliqn8+f97XNr2kdjV0fC4Vr9CrS5/Q+qJS/+mBuE70/E7br13197NYXr5Rr1bVmPe4A4orFv9CjefPqdMdyVShTQtq9XLZUkXS39dj3nfLHUpy15kjeMV6DqjucpZrLN+i1qrgOYYQb9Fj5pp993m+gNF9L6n/Dp32+1n2vF4uLU3OlYrF28177XO51e6IKrrK7ahfrW8e0qFLbjePap8uV9RcWO+Zfu388q5/sLRY+16YrUrdUdOvb6rNP+rYOW5ztCZ2U403irV35YzU9xp2jlu24wmRJcXavGq21sx1B2QCUeyW9v/hTpZhSTvfrER1uq3Gw7fM8zPNNc9RfWSGuT5fb+y2ea99LofSWdq6plhrg++5cUct/2o+W9wdSDP67wXAVETFDeOvqEyvLouqeWX9YGizzPb66m06uyzbKkp/sn9zdTCcWCZslNaruSaq14rdoRQrtN+ElD0Zgcq9b2VU+xdUuGNjN6LQllf3+70Y5t9hsQnP3vcTCG1WpLRGzfe7sCLPLt+45/280h8IWPG7umJ/mucueweymDtT+vLWKKtu/qT/vRuCoc0ygSoyR3tfmaetgf9kU8ydoQUmgO0yIS4aCGBWZWS29gYXEQR4CyVemKO69PfMnaXoC7kXUNz39wJgSiG4YQIs1XoTFGxVZ/cZfx7XY+0HtLvHlRZM4Nhf7m8mLF/wvKtIxXWi+4B7j3mcadFBbxJ/qV5auSVj9eXyBbaiZzYGugLn8s/X0N2l2ECpFvovDRicXxZ8NCSuL5drhwOvb9EJe2ygXQ2B35F8JKtt1n2ez7jf78W3VHu88BzXwcB77ffiKarRq2n/DkFtLR065aUEqffYH8el2mbFgsEk6Z6+zTZUmOGOjpyxAWdkc90ij5sA5QW2ezp1vF8Nv77mPz66qVbvfDNUZ0JW9hBog9YcE/juqTXw3sbjd/yn587W5vSVnktMGFw5w2yY8525qcbE+dz77LBn5co5WcPi2L4XAFMFwQ0Twhv+O/+5jiaHKa/q6OWmZFhZXxqouhVv1N4q+5fLBIwzTalDqbfOmdBzwIWUpXo5R/Us1tcWOJd1VZ0maNWZwDTcMGTBysP34gXa9ia9F3iv/V52u8y4sGiIauSlk3r3dfNv9mKTdh7pcwfHS45VkllXVKaKjbTqVlqs7S5EtX50Xe9+E6xk3dGhw/0uvA0RAm/YIcrrOhR4b+ybm2pyFzm/JPi+mdq6apa3deq4Od+XqcOw9n07vdA3Q2sfyRU67/97ATA1ENwwAeI6Hs8eljrj5/0/OLPLB4fpZpf5Q0zxL/Rexnw066re6/GrRJGyR1OG9xK/L1L1vPYvWKHluYYNw2gM34vPBL6uw1lbjVy4PXy1b8KYANNgw1DKJd01QeqaGv7gqllDGmHVbZ4bqozdSjtXgjnnaf98lZFZWYY9TeCzc9LcXlBiWDNF6SyttdW9G7d15Bv/UIZv3AKLbOcb8/cCYCoguKEw2PlXbnO52bZit695P7O63ecHvsD7PLc+V92Zdp0YKNX6Kjunzb8bwdnVdm5buIPcmL6XaWYkVbeIq4b1ZgtZCYlVm3Y+m3dgDBJBce5s7XVNczMfc7TGezEAZEdww9Rjwtt2O4fsjJ1H12VCXFwxuxDCBbnWZSbAuZdiqkqtumWfHwYA4UNww+RKDP8N9OmCd2BQZPYQM+WHeF/SLTuP7rAJcU2qcxP4TwyY31tar715XFmaYgIqXWP+XqaJZNUt6zDnoMq5dp5bDokqWT5WbSaqdzE75Dm4KCHrw2szAgCZCG6YEA/PdhspKvRa1VJvK9b3dbKHWHLeW+kTOVpbZH+ftbx8iGrarXPanpgDNlT4GZMyPTJOw7Fj+V7yYkIa8OaTq7rZ1Z2L3KGA2F/9VZyKFOdo+TG4mKA3lq2f2yjF7+gru9gh5/kAYHgEN0wA26/NzTFzR2wz3sEmtF36ILjS89bn+sCbgG1bW5j3lQeqY0O9z666rPZ7mXnDocWpVbXltodZtQs2Q80Tuy/n9MfENS/dqE3BYGWuY1PwM9yv+/1e8qS2frXWzPe3K597Slsz+6oUnETVbU3ED2Ap4rfU4qUx2/JjnnYtCSxksA1ybZNdr1XIHbVkado7eonFDu58j89SJCXAzVTt43O075Vc7UcAgOCGCWL7p3lzzOxCAftYWZ/sR3bwTOZKx6PnE60tXJPekbzPBJvGbn9hgt9sN/A+8/AaANvXDbSrcRyCzdGedrcwoEZ7EosivGvepj3VtTl6q43OfX0v01pirlt2bX9ItPyYoTUbSgYXCdgGua6/W+tHebwjwTc31ehdjznfyjna+0JwYUKJoitnqdJcz0NU5ADkQHDDBIjreJff6DXmhQ6f35C3KXdriw77HhvE3CGPvbVTixpsL7Is7+u85i9M8N+X2uMhNtDlNZ71b/s0DrwVrXYeXbbztuUpTN3f95IPE9WAN98SVbfs/HYajcdv61RKI1t7yyvbIDe9/cbYxb687jf4jaXdZ/SGa8p7+Gbezwlg6uBepZNo2tyr1HbqzxnQAADASFFxAwAACAmCGwAAQEgQ3AAAAEKC4AYAABASLE6YRFN/cQIAAMgnKm4AAAAhQXADAAAICYIbAABASBDcAAAAQoLgBgAAEBIENwAAgJAguAEAAIQEwQ0AACAkaMA7iWjAm0PxRrWurFHE7SYNtKuh43N1ut3CVKHXVm/TS0VSrKdFdZfPueOI1KzT5p8v0pr5Je6I1Hvlor76/Vc61N7njtyHheu0763VqnS7SVc61Pj6SfG/MABTCRU3IJ+KH9UGE9qsSNVybfI3UfOM9m5bnRLarMr5i1T3D/PcHgBgOFTcJhEVt5Faof019VpPxS2kqrXrwye1xmz1HvtM+490D1bBFpap1vxouzSGilsGdz4qbgCmICpuQF5d1Xsdb+ux9rcJbQkL52m+/WmCVEpos0xgy29oA4CpjeAGTDcL12nXO1E1fxjVvs1l7iAAIAwYKp1EU3+o1A0byh/iVPEKvbr0Ca0vKvWfHojrRM/vtP3aVX8/p/sYKjXneq3qCW0oLU0ucogNdOl4T5veSzvfpmVvaI+5pBPdb5trcQczJIZAu7S7/bCOphzzdjLEeg6o7nK2z5b6vXSa/U3LntfLwWuNt6vxfO7Purx8i/ZWLVUkx7mtXOev3RFVdJXbUb9a3zykQ5fcbp5ENj+j7c8tylwwkO70Z2r4l263E7CwWlvr12jtqpLk7xj5QobRDpWWqXbzWtWvNtfrlQatfvWePqX9Ld2KDfXd5LjOlvc/UVuev1MAsKi4YfwVlenVZVE1rzThKxHaLLO9vnqbzi5b4Q7kgwlF5lxnzbleCgQhK1K0VC+Z8+0vdwecoz3t3h/39VUbtdw/lCmx6CDe6UJbHpjvZbEJmPtNiNuTfq2lNWpenf16Ntnvsnro0Db55g4f2rIq09YdW9X81pOqC4Qhy1vIsG2LdtW4A3lhQt47WxS1ITMZ2ixz7lVPau9bW7UrR1Uysjn3dUbfopoJYHxQcZtE06bi5gKGrSJ90PO5jt6yexXatOB57anyg9zQ1a5RVNzKt+isCTW2uvZBV5s5V6LiFDxfsGrmG67q5j8f18EzTXrPu/7cli8wwcqcZ9iKWzJ4md/b/btkJdBW02wwszKux32+zPds1N5q20Il87NlsEOlv7QrPO1igcPaeWSc55gl2nWMpAJW84yaty1yVauvAvPfbFXsKROw7KrUi2p68RO1+U9kMfKKmw1fe+3vNOdrSqmSlSlSs1bbf75I6sjyHbnrtJW5U8dO6Uhg7l7EPLfdPFc5TtVMANMbFTdMCC/EnE+ENuuqjl5uUkNP3NtbX5qnqtu1w2o487bqzB/bwdBm+efb7Z2uTI8UeweTklW3rNexQk/ZvDdwXp8OE9pGzQTM3e0mDAaGbzvNZ/Cv02Seogp/w1le5FdxTnSnv+dz1XV3ma2leiqtopjh0km9+7r57l9sGv/QNlrtn6jxTXNdr9sQFby2PrUdOaSm03Z7rh5a6B3Mm94OGxLdjqdPMXMtO833lPkdlWmrDXTGqQOH9G7aggvvfQcumq0SrX2cqhuA/CK4YQLEdTweDFGDOuPn/T96s8tzD1OOUmciXBVXaFP5Ru1fFlXr6qjO1vhVNalUD8/2XjHo1tc6PmB+lj6h19JCncqXa735Eev7Os+tSOI62JW9Onbhtktu9yE97IVNck6ZbRVSs067dmzVvne2eosp/Ll5Jfrxj71XjFnsy4vqNT8rn3tKuzZXKzKSQLhwsdbaYdUrHTrS7h/K0P5XnTI/KlcvThkCB4CxIrihMNj5Xm5zrOyw4f7Vb+jsym3aU12j9Xb+WHBuXVZX9V6PrViVakNpMPhU6LUqOzTZpQ+yDntOrM4Bv/qzvnqLNgUDpp0r54ZXLw1M/nWOhb3Dgrfq9a0titqmvXYOWVrj3ry5dFI73+zQqSslWvOcndPmr7ZtNkExZ5D7sZvTNn+19trXZn34fesAIN8IbphavPlhJqzZ+WMDXTrR06LdZw6owTxsb7XEEGRW19p0cMAEh6rawTsejMeihLFIDqMu1Z6VJpzWuIdd+GEPx1v0q5xzBUMgeYcFs33lok4d+0xNbx5Wo3nYoV1/qDTPEkPH5hxNx8w5r/Sr1wTFRJDbt8MEOPdSAJhsBDdMrtll/h/FgT5d8A6MRaLqZCfum6DWcVjbL5/z5rp1psx3y+WqPu2zqWhwntjy0mXm+szv6ymkZrp++kyddG9bq7So4fy5PA/nTqRq7XIT/lsPmKD2+ife/DE71y02EU16zTnajphzvn5IO01IbHjzMxPi5K0u3R5cIfqtCXb2p21lYl831IM7NwDIM4IbJkTGnDJPYhhyhPPHRjqcahcRpPVq81XoEbeVS+flL3TC/PRbg1ToZ2Wl47Mo4X6Vb/Hm6R20CzDa/Ts0+I8mL6SOKLQVegPeKxf1p6y92sr0kNsakfklWuA2c4nUDFFNu9Std39vFxmY8FYZuJ/qpQv6ygQ6rVqjrXleJAEAwyG4YQLYfm1R7V+wYnABgm2Qm2yJMdz8sWv6D7twQEv1ctrvSJnnlVBUo73B15kAZltstNrzDTfVTef0K7vStWiZfrbAHybN/6KE++evKi3Vwynz8Eantt4NRRp2Un7BhY/5q7Xdzi9zu35rjme0750tqks2Dh7KdX1rg5UWqT74exZWqzb4WU2A3b7tSe39cKs/HLowNcRGzOv9CqDU23vd++nr0yEv0JWozuvzZt/rP+OzrUvM9X74jHcfVgDIJ/q4TaLp1MctZueOeSEtXXxUvdEyxFv02PnBYcycr7Ns640+aU/V0pH1jfO2R9AXLc3I+7jl/uw5f0fxRrWutP3acst1h4iEibhzQopR9HFL9lXLxvZa65DXLPfUgSa9m2tFp5Hz96TdqcEuhNj888Egm1WO6x7yWi1zva3vf0IfNwB5RcUNEyCu411vq6G7ywtwCbYh7+4RhDar0+v5Zt7v9j0moByMp6Yv73Vp5/Fe5+a8HQ0ez+mc/phYxFAoixISbn2tD+KJi8su1x0iEtpa7CpKf7v32B8LKljEjhxS44GL6nXX57EByM15a/Mmlw3P+z3H/FYfSfb3/HuwcmZe1+4vTGg8YL+TfnfUZ5sA2/PmCpv2HHYeXOtpN+ctwfweu6ii0VwvoQ1AvlFxm0TTp+I2sqpaIRnNnRImjvs+k/c4zcbe99TeQssEi5wVPwBAWFFxA9IVb9TLdrS1kBYlWK41ydBz7q6OqXkvAKCwEdyAANu8NzGH7ETPMPdFnSSRque1v7wi404Ty+2CD3sDem+OX2E0DAYA5BdDpZOIodICkWXCfyzeorrAoodCkbgZ/pDsnL6uw6EamgYAjAwVNyDRBNgaiOtEt70hfuGFNuvoebvIo10nzHWmR367mtQuwmjoILQBwFRFxW0STf2KGwAAyCcqbgAAACFBcAMAAAgJgtskYpgUAACMBsENAAAgJAhuAAAAIUFwAwAACAmCGwAAQEgQ3AAAAEKCBryTrHZHVNFVbkf96r1yQy3vf6K2S+4QAACAQ8WtoJSocv4iRd96RrXuCAAAQAIVt0KysFpbf/mk6ub3q/XNQzpE1Q0AAARQcSskl7r1p45+twMAAJCK4FZgYr033BYAAEAqgluBiVTOdVsAAACpCG4F6Ya+Y34bAABIQ3ADAAAICYJbQVqk6DvrVLvQ7QIAABi0Ayk4Zard8ZTqV5Wo0h3pPXZYO4/0uT0AADBdUXErUInQBgAAkEDFrdDUPKPmbYukKxfV9P5XartEpQ0AAPiouBUYvx1Iv1q9+5US2gAAwCCCW0GiHQgAAMhEcCtIc/UQK0oBAEAaghsAAEBIENwKDPcqBQAAuRDcCgz3KgUAALkQ3ArJwmptfq7E7QAAAKSij9skq90RVXSV20m40qHG109qut0zAgAADI2KW0HpV+/pDjW9T2gDAACZqLgBAACEBBU3AACAkCC4AQAAhETBDpX2L/k7tzU6Jd/8X7cFAAAwtVBxAwAACAmCGwAAQEgQ3AAAAEKC4AYAABASBDcAAICQILgBAACERMG3A/nps69o28PepnFDV/tv6Oinf9C/9blDaWgHAgAApqqQVdzmqqIkom0NT+un7ggAAMB0Ea4GvGWL9V9/tlHPltzQx82H9b+zVN2ouAEAgKkqXBW3vgv6819vuB0AAIDpJXSLE2LXCW4AAGB6Cl1wi8yb67YAAACml5C2A7mh73KsKgUAAJiqQhrcAAAApp+QBreItv23tfppmdsFAACYBmb8p4qK/+62C8r/K/2R20p149sr6iur1EOVi7T+79bovzy+Rv/44EV99u2A93zR9b95PwEAAKaa0A6VVrifAAAA00W4GvBa1U/rfz4dMS+I6cCn/65/67vunvDRgBcAAExVIW0HckMfe/crTQ1tAAAAUxntQAAAAEIipMFtrh5iRSkAAJhmQrs4AQAAYLoJXXDjXqUAAGC6CuniBAAAgOknXMGtbLHq/4HgBgAApqeC7+P202df0baHvc1B/af15v/6SjG3G0QfNwAAMFWFbKj0hq7+x2kd+DR7aAMAAJjKwnfnhGFQcQMAAFMV7UAAAABCguAGAAAQEgU7VAoAAIBUVNwAAABCguAGAAAQEgQ3AACAkCC4AQAAhATBDQAAICQIbgAAACFBcAMAAAgJghsAAEBIENwAAABCguAGAAAQEgQ3AACAkCC4AQAAhATBDQAAICQIbgAAACFBcAMAAAgJghsAAEAoSP8fyWh33dh5evoAAAAASUVORK5CYII=;" vertex="1" parent="1">
          <mxGeometry x="1740" y="860" width="622" height="1002" as="geometry" />
        </mxCell>
      </root>
    </mxGraphModel>
  </diagram>
</mxfile>
